<svg xmlns="http://www.w3.org/2000/svg" xmlns:xlink="http://www.w3.org/1999/xlink" viewBox="0 0 386.49 237.614">
<path d="M17.96,217.16a9.266,9.266,0,0,0,2.75-3.57v-7.71c-1.21-2.93-4.01-6.33-8.21-6.33H0v37.24H12.66c4.21,0,7.2-3.3,8.46-6.38v-9.63a8.324,8.324,0,0,0-3.16-3.62M7.52,206.78H10.8a3.087,3.087,0,0,1,3.03,1.97v3.78a3.255,3.255,0,0,1-2.91,1.97H7.52Zm6.71,20.7a3.208,3.208,0,0,1-3.16,2.08H7.52v-8.73H11.2a3.269,3.269,0,0,1,3.03,1.97Z" fill="currentColor"/>
<path d="M29.9,199.55l-6.64,31.87v5.37h6.23l1.42-7.88H38.8l1.38,7.88h6.96v-5.37L40.5,199.55Zm2.35,21.87,2.63-14.53H35l2.51,14.53Z" fill="currentColor"/>
<path d="M57.66,199.55H50.14v37.24h15.7v-7.5H57.66Z" fill="currentColor"/>
<path d="M76.28,199.55H68.76v37.24h15.7v-7.5H76.28Z" fill="currentColor"/>
<rect width="7.53" height="37.24" transform="translate(87.37 199.55)" fill="currentColor"/>
<path d="M110.15,214.07l-1.7-.58c-1.66-.53-2.27-1.12-2.59-1.92v-3.19a3.422,3.422,0,0,1,3.08-1.97c2.23,0,3.32,1.65,3.76,3.57h6.47v-4.36a10.858,10.858,0,0,0-10.24-6.86,11.188,11.188,0,0,0-10.32,6.86v9.36c1.17,2.5,3.24,4.68,9.02,6.55l1.74.53c1.7.53,2.47,1.22,2.83,2.18v3.41a3.643,3.643,0,0,1-3.4,2.29c-2.06,0-3.56-1.49-4.05-3.88H98.24v4.42a11.429,11.429,0,0,0,21.2-.05l.02-.02v-9.53c-1.01-2.34-3.16-4.79-9.31-6.81" fill="currentColor"/>
<path d="M121.65,207.05h6.43v29.74h7.53V207.05h6.35v-7.5H121.65Z" fill="currentColor"/>
<rect width="7.53" height="37.24" transform="translate(145.04 199.55)" fill="currentColor"/>
<path d="M167.3,198.76c-6.51,0-9.79,4.68-10.97,8.14v22.56c1.17,3.46,4.41,8.14,10.97,8.14s9.51-4.63,10.68-7.39v-4.37h-6.47c-.53,2.39-1.9,4.1-4.09,4.1a3.717,3.717,0,0,1-3.56-2.5V208.92a3.717,3.717,0,0,1,3.56-2.5c2.19,0,3.56,1.7,4.09,4.1h6.47v-4.36c-1.17-2.77-4.17-7.4-10.68-7.4" fill="currentColor"/>
<path d="M194.13,199.55l-6.64,31.87v5.37h6.23l1.42-7.88h7.89l1.38,7.88h6.96v-5.37l-6.64-31.87Zm2.35,21.87,2.63-14.53h.12l2.51,14.53Z" fill="currentColor"/>
<path d="M235.89,231.42l-4.61-10a11.041,11.041,0,0,0,4.17-5.16V205.89c-1.74-4.04-4.94-6.33-8.58-6.33h-12.5V236.8h7.53V222.7H224l5.79,14.1h6.11l-.01-.01Zm-7.52-17.77a3.225,3.225,0,0,1-3.2,2.08h-3.28v-8.78h3.28a3.294,3.294,0,0,1,3.2,2.13Z" fill="currentColor"/>
<path d="M253.78,215.56h-.12l-4.69-16.01h-9.75v37.24h7V212.74h.12l5.18,17.14h4.05l5.17-17.14h.13v24.05h7.04V199.55h-9.63Z" fill="currentColor"/>
<path d="M282.64,198.75c-6.52,0-9.79,4.68-10.97,8.14v22.56c1.17,3.46,4.45,8.14,10.97,8.14s9.79-4.68,10.97-8.14V206.89c-1.17-3.46-4.45-8.14-10.97-8.14m3.44,28.68a3.617,3.617,0,0,1-6.88,0V208.91a3.617,3.617,0,0,1,6.88,0Z" fill="currentColor"/>
<path d="M314.29,221.42a11.041,11.041,0,0,0,4.17-5.16V205.89c-1.74-4.04-4.94-6.33-8.58-6.33h-12.5V236.8h7.53V222.7h2.1l5.79,14.1h6.11v-5.37l-.01-.01Zm-2.92-7.77a3.225,3.225,0,0,1-3.2,2.08h-3.28v-8.78h3.28a3.294,3.294,0,0,1,3.2,2.13Z" fill="currentColor"/>
<path d="M341,198.75c-6.51,0-9.79,4.68-10.97,8.14v22.56c1.17,3.46,4.41,8.14,10.97,8.14s9.51-4.63,10.68-7.39v-4.36h-6.47c-.53,2.39-1.9,4.1-4.09,4.1a3.717,3.717,0,0,1-3.56-2.5V208.92a3.717,3.717,0,0,1,3.56-2.5v-.01c2.18,0,3.56,1.7,4.09,4.1h6.47v-4.36c-1.17-2.77-4.17-7.4-10.68-7.4" fill="currentColor"/>
<path d="M365.57,198.75c-6.55,0-9.79,4.68-10.97,8.14v22.56c1.17,3.46,4.45,8.14,10.97,8.14s9.79-4.68,10.97-8.14V206.89c-1.17-3.46-4.45-8.14-10.97-8.14m3.44,28.68a3.617,3.617,0,0,1-6.88,0V208.91a3.617,3.617,0,0,1,6.88,0Z" fill="currentColor"/>
<path d="M383.35,227.98v-.02a5.287,5.287,0,0,0-.7-.05,3.709,3.709,0,0,0-2.22.68,3.578,3.578,0,0,0-1.38,2.95v2.13a3.749,3.749,0,0,0,3.54,3.82h.06a5.127,5.127,0,0,0,.7-.05,3.7,3.7,0,0,0,2.98-3.73v-2a3.7,3.7,0,0,0-2.98-3.73" fill="currentColor"/>
<path d="M370.58,74.92c-.96.4-.4,1.11-1.03,1.66-.32.29-.69.52-1.01.82a2.106,2.106,0,0,0-.69,1.07,1.081,1.081,0,0,0,.43,1.14,1.7,1.7,0,0,0,.92.15,25.336,25.336,0,0,0,2.75-.25,2.484,2.484,0,0,0,1.4-.53,1.889,1.889,0,0,0,.4-1.75c-.27-1.35-.98-3.22-3.17-2.31m-1.77,3.1c.13-.72,2.03-.72,2.03-.72v.01s-.72,1.37-.59,1.89-1.57-.46-1.44-1.18m2.49.66a.52.52,0,0,1-.008-1.04h.008a.52.52,0,1,1,0,1.04" fill="currentColor"/>
<path d="M294.49,48.55c.42.98,1.13,1.81,1.6,1.77-.39-.54-.78-1.07-1.18-1.63.21.08.42.16.64.26a.85.85,0,0,0,.805-.891.793.793,0,0,0-.015-.119c-.64.03-1.3.02-1.96,0-.05-.07-.1-.13-.15-.21a1.176,1.176,0,0,0,.06.2,16.111,16.111,0,0,0-4.18.3c-1.08.28-2.14.65-3.2,1.04a1.054,1.054,0,0,0,.26.13v.3c-.53,0-.76.31-1.15.59-.7-.04-.82.08-1.22.6a17.515,17.515,0,0,0-1.81.27c-.46.3-.11.71-.28.96a.983.983,0,0,0-1.378-.18,1.019,1.019,0,0,0-.092.08c-.71.5-1.48.27-2.06.92a2.842,2.842,0,0,1-.92.03c-.01-.1,0-.21,0-.31-.5.18-1.02.35-1.55.51.04.02.06.05.1.07a1.727,1.727,0,0,1,0,.6,2.277,2.277,0,0,0-1.53.32v-.38c-.18.1-.36.19-.53.29v.08h-.14c-.46.26-.92.53-1.39.78a2.264,2.264,0,0,1-1.76.89.865.865,0,0,0-.16.02c-.25.09-.51.15-.76.22a6.949,6.949,0,0,1-1.13,1.01h-.9a2.6,2.6,0,0,1-.64-.88,2,2,0,0,1-1.29-1.31h-.02a2.15,2.15,0,0,1-1.47-1.24c-.39-.39-.77-.77-1.13-1.15-.48-.31-.95-.65-1.41-1.01l.03.05a18.079,18.079,0,0,1,.82,1.65c.36.34.73.66,1.02.98,1.2,1.46,2.33,2.14,3.54,3.56.13.56-.14.72-.31,1.19a1.488,1.488,0,0,1-.63.03c-.16-.64.53-.18.47-.78-.1-.41-.87.04-1.16-.29a2.772,2.772,0,0,0-1.2-2.04,10.77,10.77,0,0,1-1.17-1.16,14.269,14.269,0,0,1,.74,4.14c0,.31-.01.61-.03.91.39.39.93.94,1.38.76.66-.61-1.06-.88-.31-1.49.38,0,.88.44,1.22.63.02.49-.31.77-.45,1.15a17.209,17.209,0,0,1,3.11-2.52c-.14.09-.31.17-.45.26a1.628,1.628,0,0,0,.57-.8c.9-.18.8-1,1.71-1.24.1-.19.21-.38.32-.56a1.957,1.957,0,0,0,1.18-.28,2,2,0,0,0,1.2-.58,11.991,11.991,0,0,0,1.34-.07,1.5,1.5,0,0,1,1.08-.26c-.12.05-.24.11-.36.16,2.86-1.2,5.71-2.24,7.93-3.39,3.32-1.71,6.59-4.07,10.35-2.94" fill="currentColor"/>
<path d="M199.14,40.55v.01a.96.96,0,0,1,.09-.53c-.13.2-.27.4-.39.6a1.414,1.414,0,0,1,.3-.08" fill="currentColor"/>
<path d="M131.66,81.49c-.22.31-.13.55.29.71.56-.24.27-1.13-.29-.71" fill="currentColor"/>
<path d="M151.37,89.09a.4.4,0,1,0-.4-.7c-.13.38-.14.85.4.7" fill="currentColor"/>
<path d="M192.11,107.57c-.08.09-.15.18-.23.27V108Z" fill="currentColor"/>
<path d="M205.62,98.82c-.72.88-1.86,5.98-1.44,6.68.45-2.35,1.26-4.4,1.44-6.68" fill="currentColor"/>
<path d="M201.73,104.88c.29-.06.51-.04.53-.11.5-2.04.98-4.09,1.47-6.13l-.36-.15c-.53,2.06-1.06,4.12-1.64,6.39" fill="currentColor"/>
<path d="M200.38,116.46c-.19,2.03-.67,4.04-.22,6.09a44.229,44.229,0,0,0,.22-6.09" fill="currentColor"/>
<path d="M200.06,123.82c-.31,2.49-.2,4.43.37,4.95-.21-1.67.41-3.24-.37-4.95" fill="currentColor"/>
<path d="M204.42,118.11c.51-1.55.63-3.82.21-4.08-.44,1.36-.55,3.56-.21,4.08" fill="currentColor"/>
<path d="M203.41,107.26h.01c-.22,1.29-.46,2.59-.66,3.89a1.8,1.8,0,0,0,.11.59c.1-.17.27-.31.3-.5.2-1.12.39-2.24.55-3.37a1.959,1.959,0,0,0-.13-.65,1.232,1.232,0,0,1-.18.04" fill="currentColor"/>
<path d="M206.04,106.92c.22-1.03,1-1.98.25-3.27-.19,1.21-.81,2.17-.25,3.27" fill="currentColor"/>
<path d="M201.41,106.38h-.01c-.12,1.39-.22,2.58-.34,3.96.18-.24.3-.33.32-.44.17-.97.33-1.95.45-2.94.02-.14-.23-.33-.42-.58" fill="currentColor"/>
<path d="M203.91,124.53h.01c-.29,2.12-.27,2.33.39,2.59-.08-.96-.15-1.78-.22-2.61-.06,0-.12.02-.18.02" fill="currentColor"/>
<path d="M200.87,111.63c-.14,1.08-.28,2.15-.42,3.22v.01l.27.06a9.543,9.543,0,0,0,.36-3.25c-.07-.01-.14-.03-.21-.04" fill="currentColor"/>
<path d="M205.3,111.14c.45-1.12.51-2.06.08-2.5,0,.89-.43,1.59-.08,2.5" fill="currentColor"/>
<path d="M207.85,106.09a2.776,2.776,0,0,0,.69-2.7c-.24.92-.44,1.71-.69,2.7" fill="currentColor"/>
<path d="M201.88,125.73a1.762,1.762,0,0,0-.08-2.28c.02.71.05,1.42.08,2.28" fill="currentColor"/>
<path d="M202.37,115.41c-.04.62-.08,1.24-.12,1.98.55-.51.6-.91.34-1.93-.07-.02-.15-.03-.22-.05" fill="currentColor"/>
<path d="M202.15,119.09l-.01.01c-.04.64-.09,1.28-.13,1.92h.26a2.878,2.878,0,0,0,.08-1.92,1.333,1.333,0,0,1-.2-.01" fill="currentColor"/>
<path d="M299.85,53.43a46.873,46.873,0,0,0,3.01,5.25c-.91-1.81-1.58-3.74-3.01-5.25" fill="currentColor"/>
<path d="M299.27,52.32c-1.06-2.25-2.16-3.84-2.89-3.99,1.04,1.3,1.37,2.94,2.89,3.99" fill="currentColor"/>
<path d="M298.76,59.3c.4,1.56,1.5,3.53,1.96,3.54-.36-1.37-1.42-3.28-1.96-3.54" fill="currentColor"/>
<path d="M304.68,67.59a2.256,2.256,0,0,0,.44.49c.04-.04.08-.09.12-.13-.5-1.2-.99-2.41-1.5-3.61a1.646,1.646,0,0,0-.4-.44,1.54,1.54,0,0,0,.02.57q.63,1.575,1.32,3.12" fill="currentColor"/>
<path d="M304.84,72.44c-.48-1.11-.49-2.23-1.51-2.89.36.98.23,2.17,1.51,2.89" fill="currentColor"/>
<path d="M306.69,67.42c.06.12.36.16.64.28-.63-1.23-1.17-2.29-1.8-3.51-.02.29-.07.42-.02.53.38.91.75,1.81,1.18,2.7" fill="currentColor"/>
<path d="M294.14,51.65c.56.77,1.05,1.43,1.54,2.09.04-.04.09-.07.13-.11-.88-1.93-1-2.1-1.67-1.98" fill="currentColor"/>
<path d="M305,63c-.45-.98-.9-1.95-1.35-2.93-.08.03-.17.05-.25.08a10.112,10.112,0,0,0,1.41,2.92c.06-.02.13-.05.19-.07" fill="currentColor"/>
<path d="M301.7,65.62c.23,1.17.67,1.99,1.24,2.15-.46-.75-.49-1.56-1.24-2.15" fill="currentColor"/>
<path d="M303.16,73.78c-.29-.89-.54-1.66-.86-2.62a2.84,2.84,0,0,0,.86,2.62" fill="currentColor"/>
<path d="M298.07,53.48c-.39-.59-.78-1.18-1.26-1.88a1.812,1.812,0,0,0,1.26,1.88" fill="currentColor"/>
<path d="M300.878,58.845c-.173.7.008,1.061.732,1.785a1.436,1.436,0,0,0,.2-.07c-.288-.535-.576-1.072-.932-1.715" fill="currentColor"/>
<path d="M300.87,58.83l.008.015,0-.015Z" fill="currentColor"/>
<path d="M300.07,57.32c-.3-.56-.6-1.13-.9-1.69l-.21.12a2.964,2.964,0,0,0,.94,1.66c.06-.03.11-.06.17-.09" fill="currentColor"/>
<path d="M133.98,82v0Z" fill="currentColor"/>
<path d="M133.98,82.01c-.2.11-.41.231-.62.33-.07,1.491-.14,2.981-.15,4.481-.03,3.42.11,6.89.21,10.34a19.974,19.974,0,0,0,.39,2.38,3.354,3.354,0,0,0,.19-.71c-.11-2.33-.32-4.67-.31-6.97.01-3.317.09-6.613.29-9.851" fill="currentColor"/>
<path d="M138.83,95.07c-.03-3.5.43-6.63.1-9.96-.64,1.41-.76,9.03-.1,9.96" fill="currentColor"/>
<path d="M136.38,94.4c.1-3.05.18-6.11.26-9.17-.15-.05-.31-.09-.46-.14-.13,3.09-.26,6.17-.4,9.57.34-.14.6-.16.6-.26" fill="currentColor"/>
<path d="M138.2,120.57c-.44-2.95-.45-5.96-1.22-8.87.27,2.97.18,5.99,1.22,8.87" fill="currentColor"/>
<path d="M141.44,107.34c-.19,2.06.2,5.27.74,5.94.23-2.35-.18-5.65-.74-5.94" fill="currentColor"/>
<path d="M138.552,97.684c-.067.029-.134.067-.2.1.05,1.92.08,3.84.15,5.76a2.9,2.9,0,0,0,.28.84,2.4,2.4,0,0,0,.24-.78c-.03-1.66-.08-3.33-.16-5a3.447,3.447,0,0,0-.308-.916" fill="currentColor"/>
<path d="M138.55,97.68l0,0,.008,0Z" fill="currentColor"/>
<path d="M141.39,96.75c0-1.53.71-3.06-.49-4.79.07,1.79-.43,3.3.49,4.79" fill="currentColor"/>
<path d="M136.4,97.66v-.01c-.01-.2-.36-.43-.64-.75.2,2.04.36,3.78.55,5.8.15-.38.27-.53.27-.7-.04-1.44-.08-2.89-.18-4.34" fill="currentColor"/>
<path d="M143.12,122.69h.01c.17,3.12.24,3.42,1.09,3.67-.33-1.37-.61-2.55-.89-3.74-.07.02-.14.05-.21.07" fill="currentColor"/>
<path d="M136.66,104.63a2.054,2.054,0,0,1-.26-.02c.09,1.58.19,3.17.28,4.75.11.01.22.03.33.04a17.521,17.521,0,0,0-.35-4.77" fill="currentColor"/>
<path d="M141.54,103.02c.26-1.72.11-3.08-.51-3.64.21,1.29-.13,2.39.51,3.64" fill="currentColor"/>
<path d="M159.26,103.56a2.508,2.508,0,0,0,.14-.81c-.23-1.65-.48-3.29-.76-4.94a3.478,3.478,0,0,0-.42-.87c-.06.04-.13.08-.19.12.28,1.9.55,3.8.85,5.7a3.393,3.393,0,0,0,.38.8" fill="currentColor"/>
<path d="M152.28,93.8c-.04-1.53.62-3.08-.65-4.77.13,1.78-.33,3.32.65,4.77" fill="currentColor"/>
<path d="M152.63,100.06c.2-1.72,0-3.08-.62-3.62.25,1.28-.05,2.39.62,3.62" fill="currentColor"/>
<path d="M143.34,95.19a4.725,4.725,0,0,0,.17-4.05c-.06,1.38-.11,2.57-.17,4.05" fill="currentColor"/>
<path d="M141.01,124.83a3.018,3.018,0,0,0-.65-3.28c.2,1.03.4,2.05.65,3.28" fill="currentColor"/>
<path d="M139.37,109.82a2.449,2.449,0,0,1-.27-.03c.1.9.21,1.81.33,2.89.53-.85.49-1.44-.06-2.86" fill="currentColor"/>
<path d="M139.96,115.16a1.925,1.925,0,0,0-.24.02h-.01c.1.94.21,1.87.31,2.81.1-.01.2-.02.31-.04a5.039,5.039,0,0,0-.37-2.79" fill="currentColor"/>
<path d="M214.3,33.43l.01.01c-3.29,7.43-6.72,14.77-9.62,22.42-2.65,7-4.6,14.38-6.82,21.61-1.12,3.63-2.18,7.29-3.22,10.95-.32,1.13-.58,2.27-.86,3.41.35.15.7.31,1.05.47.49-2.07.96-4.14,1.55-6.18,4.02-13.81,7.59-27.8,13.7-40.74,1.87-3.96,3.5-8.13,5.09-12.36-.3.13-.59.28-.88.41" fill="currentColor"/>
<path d="M236.82,66.33l.01-.02c-2.96,9.24-5.85,18.52-8.74,27.79.35-.08.71-.15,1.07-.21,1.65-5.38,3.32-10.75,4.95-16.14,1.01-3.34,1.87-6.74,2.92-10.05.73-2.29,1.69-4.46,2.52-6.7.22-.59.35-1.23.51-1.84-.13-.06-.26-.12-.4-.18-.95,2.45-2.03,4.83-2.84,7.35" fill="currentColor"/>
<path d="M211.43,34.96l.01-.01c-.47.28-.93.58-1.39.88-2.96,6.36-5.76,12.85-8.15,19.63-.4,1.13-.75,2.3-1.1,3.45-1.27,4.16-2.6,8.31-3.79,12.49-1.87,6.52-3.66,13.06-5.47,19.59.18.07.37.13.55.21,2.5-9.9,5.4-19.66,8.68-29.35a236.3,236.3,0,0,1,10.66-26.89" fill="currentColor"/>
<path d="M141.55,39.52c-.4,1.13-.75,2.3-1.1,3.45-1.27,4.16-2.6,8.31-3.79,12.49-1.87,6.52-3.66,13.06-5.47,19.59.18.07.37.13.55.21,2.5-9.9,5.4-19.66,8.68-29.35h.01a236.976,236.976,0,0,1,10.66-26.9c-.47.28-.93.58-1.39.88-2.96,6.37-5.76,12.86-8.15,19.63" fill="currentColor"/>
<path d="M162.17,17.62c-7.76,0-9.14,1.03-9.14,1.03l3.99.19a2.208,2.208,0,0,0-.2.13h.01c-2.96,6.36-5.76,12.85-8.15,19.63-.4,1.13-.75,2.3-1.1,3.45-1.27,4.16-2.6,8.31-3.79,12.49-1.87,6.52-3.66,13.06-5.47,19.59.18.07.37.13.55.21,2.5-9.9,5.4-19.66,8.68-29.35a242.068,242.068,0,0,1,10.3-26.1l27.09,1.32,16.21,5.69-15.01-6.73s-16.21-1.55-23.97-1.55" fill="currentColor"/>
<path d="M211.66,48.81c.46-.54.59-.63.64-.76,1.19-2.92,2.27-5.94,3.58-8.76,1.22-2.62,2.49-5.21,3.78-7.76-.34.08-.67.18-1.01.28-.16.33-.34.66-.5.99h.01c-1.98,4.2-3.78,8.54-5.62,12.85a28.4,28.4,0,0,0-.88,3.16" fill="currentColor"/>
<path d="M220.39,46.16c1.95-4.33,4.29-7.92,5.78-12.21-1.59,1.38-6.07,10.68-5.78,12.21" fill="currentColor"/>
<path d="M217.75,43.94h.01c1.86-3.7,3.7-7.43,5.53-11.15l-.49-.43c-1.91,3.73-3.83,7.46-5.93,11.56.49.02.82.15.88.02" fill="currentColor"/>
<path d="M208.66,65.58c-1.36,3.81-3.18,7.47-3.55,11.61,1.14-3.88,2.84-7.59,3.55-11.61" fill="currentColor"/>
<path d="M204.3,79.57c-1.79,4.65-2.64,8.42-2.01,9.67.54-3.29,2.35-6.05,2.01-9.67" fill="currentColor"/>
<path d="M214.17,70.48c1.62-2.76,2.99-7.06,2.47-7.74-1.41,2.43-2.75,6.61-2.47,7.74" fill="currentColor"/>
<path d="M215.18,56.39l.01.01a4.921,4.921,0,0,0-.14,1.19c.25-.27.59-.48.74-.83q1.365-3.09,2.64-6.24a4.937,4.937,0,0,0,.14-1.31h-.31c-1.03,2.39-2.08,4.77-3.08,7.18" fill="currentColor"/>
<path d="M224.7,43.5c-.93,2.24-2.41,3.82-2.12,6.18.88-1.88,2.62-3.36,2.12-6.18" fill="currentColor"/>
<path d="M215.58,46.64l-.01.01c-.92,2.62-1.7,4.86-2.61,7.45.4-.39.64-.5.73-.72.77-1.8,1.55-3.6,2.25-5.45.1-.26-.2-.73-.36-1.29" fill="currentColor"/>
<path d="M231.55,68.5c-.92,2.62-1.7,4.86-2.61,7.45.4-.39.64-.5.73-.72.77-1.8,1.55-3.6,2.25-5.45l-.01.01c.1-.26-.2-.73-.36-1.29" fill="currentColor"/>
<path d="M204,93.03c1.38-2.19,2.06-5.49,1.3-6.24-.42,2.02-.82,3.93-1.3,6.24" fill="currentColor"/>
<path d="M209.26,87.72v.01c.38-1.87.7-3.49,1.03-5.11a2.567,2.567,0,0,1-.29-.03c-1.57,3.94-1.64,4.35-.74,5.13" fill="currentColor"/>
<path d="M212.29,56.69c-.1-.06-.21-.12-.31-.17-.78,2-1.57,4.01-2.35,6.01.13.08.26.16.38.24,1.23-1.78,1.58-4.02,2.28-6.08" fill="currentColor"/>
<path d="M219.21,57.49c1.29-1.96,1.88-3.73,1.44-4.77-.48,1.7-1.52,2.87-1.44,4.77" fill="currentColor"/>
<path d="M244.64,56.23c1.41-4.53,3.3-8.38,4.26-12.82-1.41,1.56-4.74,11.34-4.26,12.82" fill="currentColor"/>
<path d="M245.37,42.25v-.01c-1.45,3.93-2.9,7.86-4.49,12.19.49-.04.83.05.88-.08,1.4-3.9,2.77-7.82,4.15-11.73-.18-.12-.36-.25-.54-.37" fill="currentColor"/>
<path d="M242.91,59.53v-.01c-.74,2.5-1.49,4.99-2.19,7.5a4.818,4.818,0,0,0,0,1.2,3.328,3.328,0,0,0,.64-.91c.65-2.15,1.28-4.33,1.87-6.51a5.221,5.221,0,0,0-.01-1.31,2.953,2.953,0,0,1-.31.04" fill="currentColor"/>
<path d="M239.59,45.99c-.86,2.27-2.29,3.9-1.92,6.24.82-1.91,2.51-3.45,1.92-6.24" fill="currentColor"/>
<path d="M234.55,60.14c1.23-2.01,1.76-3.79,1.29-4.81-.42,1.72-1.42,2.91-1.29,4.81" fill="currentColor"/>
<path d="M225.88,48.87a6.413,6.413,0,0,0,2.51-4.89c-.85,1.66-1.59,3.1-2.51,4.89" fill="currentColor"/>
<path d="M206.16,84.03a4.091,4.091,0,0,0,1.07-4.41c-.33,1.38-.67,2.75-1.07,4.41" fill="currentColor"/>
<path d="M211.12,68.16v.01c1.14-.75,1.43-1.5,1.55-3.56-.11-.06-.21-.13-.32-.19-.39,1.17-.77,2.34-1.23,3.74" fill="currentColor"/>
<path d="M226.47,82.13v.01c1.14-.75,1.43-1.5,1.55-3.56-.11-.06-.21-.13-.32-.19-.39,1.17-.77,2.34-1.23,3.74" fill="currentColor"/>
<path d="M208.83,75.05c.13.04.27.09.4.13a6.942,6.942,0,0,0,1.13-3.65c-.1-.04-.21-.08-.31-.12-.41,1.21-.81,2.42-1.22,3.64" fill="currentColor"/>
<path d="M107.09,118.76l.01-.01c-.2-1.98-.24-3.98-.41-5.97-.43-5.2-1.01-10.38-1.31-15.59-.12-2.06-.2-4.11-.29-6.17-.25.06-.5.14-.76.2.17,3.75.38,7.51.73,11.26.53,5.68,1.06,11.36,1.65,17.03.16,1.5.53,2.96.8,4.44l.32-.06a9.926,9.926,0,0,0-.06-1.09c-.22-1.35-.54-2.68-.68-4.04" fill="currentColor"/>
<path d="M118.38,117.69l.01-.01c-.2-1.98-.24-3.98-.41-5.97-.43-5.2-1.01-10.38-1.31-15.59-.12-2.06-.2-4.11-.29-6.17-.25.06-.5.14-.76.2.17,3.75.38,7.51.73,11.26.53,5.68,1.06,11.36,1.65,17.03.16,1.5.53,2.97.8,4.44l.32-.06a9.926,9.926,0,0,0-.06-1.09c-.22-1.35-.54-2.68-.68-4.04" fill="currentColor"/>
<path d="M121.48,98.03l.01-.01c-.25.06-.5.14-.76.2.17,3.75.38,7.51.73,11.26.53,5.68,1.06,11.36,1.65,17.03.16,1.5.53,2.97.8,4.44l.32-.06a9.926,9.926,0,0,0-.06-1.09c-.22-1.35-.54-2.68-.68-4.04-.2-1.98-.24-3.98-.41-5.97-.43-5.2-1.01-10.38-1.31-15.59-.12-2.06-.2-4.11-.29-6.17" fill="currentColor"/>
<path d="M108.5,113.06c.14-3-.49-5.95-.69-8.93-.4,3.04.32,5.96.69,8.93" fill="currentColor"/>
<path d="M107.71,95c-.66.8-.65,3.65-.1,7.29.82-2.56-.03-4.83.1-7.29" fill="currentColor"/>
<path d="M113.79,116.38c.48-.4.18-3.72-.54-5.97-.38.77-.09,3.99.54,5.97" fill="currentColor"/>
<path d="M112.22,120.55a2.286,2.286,0,0,0-.4-.71,3.427,3.427,0,0,0-.09.88c.34,1.89.71,3.78,1.07,5.66l.22.06a4.14,4.14,0,0,0,.11-.96q-.42-2.475-.9-4.92Z" fill="currentColor"/>
<path d="M109.76,122.01h-.01c.24,2.01.44,3.75.69,5.78.21-.37.5-.67.47-.87-.21-1.44-.48-2.86-.74-4.28-.03-.17-.18-.29-.41-.63" fill="currentColor"/>
<path d="M109.55,92.55c-.03,1.74-.05,3.18-.07,4.7.67-.42.71-2.91.07-4.7" fill="currentColor"/>
<path d="M111.96,94.7c.41-1.34.07-2.79,0-4.19l-.26-.2a1.54,1.54,0,0,0-.24.68c.07,1.23.18,2.46.27,3.68Z" fill="currentColor"/>
<path d="M112.41,101.05c.02-1.22.05-2.43.08-3.84-.78.42-.79.73-.29,3.81h-.01a2.041,2.041,0,0,1,.22.03" fill="currentColor"/>
<path d="M108.7,115.41h.01c.24,1.57.49,3.14.73,4.7.08-.02.17-.05.25-.07a17.274,17.274,0,0,0-.67-4.74c-.11.04-.21.07-.32.11" fill="currentColor"/>
<path d="M115.07,124.24c.48-.68.34-2.04-.27-3.67-.36,1.36.2,2.36.27,3.67" fill="currentColor"/>
<path d="M109.66,99.37c.02,1.25.04,2.3.06,3.34a3.01,3.01,0,0,0-.06-3.34" fill="currentColor"/>
<path d="M110.97,114.47v.01c.09-.03.17-.06.26-.09.24-1.5.15-2.09-.55-2.81.11,1.09.2,1.99.29,2.89" fill="currentColor"/>
<path d="M110.43,109.08h.01l.24-.03a5.082,5.082,0,0,0-.23-2.81c-.1,0-.21.02-.31.03.1.94.2,1.87.29,2.81" fill="currentColor"/>
<path d="M91.78,112.86c.05-.07.1-.14.16-.21l.54,1.03a43.186,43.186,0,0,0-.85-10.64,19.229,19.229,0,0,0,.15,9.82" fill="currentColor"/>
<path d="M108.2,67.14a29.26,29.26,0,0,0-1.13,3.16c-1.01,4.69-2.08,9.39-2.9,14.07-.3,1.71-.53,3.41-.76,5.12.29-.09.58-.17.87-.26q.765-5.79,1.83-11.63c.57-3.14,1.45-6.29,2.18-9.44a5.816,5.816,0,0,0-.09-1.02" fill="currentColor"/>
<path d="M111.84,86.97h-.01c1.01-4.07,1.26-8.1,2.11-12.45-1.01.98-2.49,9.21-2.47,12.56.12-.04.24-.07.37-.11" fill="currentColor"/>
<path d="M109.67,74.31c-.66,4.67-1.27,8.92-1.87,13.17.22-.03.44-.05.67-.08h-.01c.66-4.2,1.33-8.4,1.96-12.59.02-.14-.33-.23-.75-.5" fill="currentColor"/>
<path d="M115.61,51.34c1.79-3.78,2.56-7.89,3.9-11.8-2.14,3.68-2.78,7.81-3.9,11.8" fill="currentColor"/>
<path d="M120.23,37.07c2.42-2.83,2.54-6.2,4.03-9.28-1.27.68-2.79,4.33-4.03,9.28" fill="currentColor"/>
<path d="M123.11,50.5c-.9.78-2.25,5.07-2.51,7.93.83-.26,2.22-4.66,2.51-7.93" fill="currentColor"/>
<path d="M116.23,61.8v.01a4.751,4.751,0,0,0-.59,1.07c-.58,2.61-1.11,5.22-1.66,7.82l.25.19a5.123,5.123,0,0,0,.65-1.18q.8-3.39,1.48-6.78a3.374,3.374,0,0,0-.13-1.13" fill="currentColor"/>
<path d="M117.85,72.87c-1.64,1.8-1.34,4-1.88,6.42,2.08-2.06,1.51-4.32,1.88-6.42" fill="currentColor"/>
<path d="M112.41,63.48c-.77,2.7-1.44,5.04-2.22,7.78.47-.37,1-.59,1.07-.86v-.01c.5-1.95.92-3.92,1.34-5.88.05-.23-.08-.47-.19-1.03" fill="currentColor"/>
<path d="M125.32,31.62c1.09-.18,2.47-3.34,2.61-5.99-.96,2.21-1.76,4.05-2.61,5.99" fill="currentColor"/>
<path d="M132.118,24.307l-.228-.4a2.241,2.241,0,0,0-.67.74c-.57,1.61-1.09,3.24-1.63,4.86.09.05.18.11.28.16,1.249-1.489,1.589-3.526,2.248-5.364" fill="currentColor"/>
<path d="M132.12,24.3l0,.006,0,0Z" fill="currentColor"/>
<path d="M126.78,37.9c.09.05.17.1.26.15.68-1.55,1.37-3.09,2.16-4.88-1.22.12-1.4.5-2.42,4.73" fill="currentColor"/>
<path d="M152.31,24.68c.09.05.17.1.26.15.68-1.54,1.37-3.09,2.16-4.88-1.22.12-1.4.51-2.42,4.73" fill="currentColor"/>
<path d="M115.07,54.49c-.15,0-.31-.02-.46-.03l-1.59,6.42c.12.01.24.03.36.04.64-2.13,1.66-4.22,1.69-6.43" fill="currentColor"/>
<path d="M118.04,69.19c.98-.61,1.53-2.43,1.61-4.84-1.19,1.55-1.01,3.14-1.61,4.84" fill="currentColor"/>
<path d="M119.34,81.06a6.557,6.557,0,0,0,.79-5.57c-.29,2.04-.52,3.68-.79,5.57" fill="currentColor"/>
<path d="M122.71,38.76a4.192,4.192,0,0,0,1.71-4.32c-.64,1.62-1.18,2.97-1.71,4.32" fill="currentColor"/>
<path d="M119.19,50.63c-.44,1.45-.81,2.65-1.18,3.86l.38.03c1.11-1.8,1.31-2.59.8-3.89" fill="currentColor"/>
<path d="M121.34,43.52c-.38,1.25-.75,2.51-1.13,3.76l.33.09a7,7,0,0,0,1.21-3.72c-.14-.04-.27-.09-.41-.13" fill="currentColor"/>
<path d="M64.21,100.66c.72-.33,1.08-2.79.68-4.65-.25,1.72-.46,3.15-.68,4.65" fill="currentColor"/>
<path d="M66.41,104.75a1.686,1.686,0,0,0,.21.05v.01c.18-1.2.36-2.41.58-3.8-.83.31-.88.62-.79,3.74" fill="currentColor"/>
<path d="M224.07,105.53a45.533,45.533,0,0,0,.85,6.04c-.17-2.03-.05-4.1-.85-6.04" fill="currentColor"/>
<path d="M222.71,99.47c.5,1.61.17,3.26,1.24,4.81-.13-2.5-.58-4.39-1.24-4.81" fill="currentColor"/>
<path d="M219.18,101.77v.01c.25.93.46,1.73.67,2.53.06-.02.11-.04.17-.06-.09-2.14-.14-2.34-.84-2.48" fill="currentColor"/>
<path d="M224.87,113.14l-.01.01a10.011,10.011,0,0,0,.21,3.26h.22c-.05-1.08-.1-2.16-.15-3.25a2.454,2.454,0,0,1-.27-.02" fill="currentColor"/>
<path d="M221.82,102.71a1.76,1.76,0,0,0,.48,2.23c-.15-.7-.3-1.39-.48-2.23" fill="currentColor"/>
<path d="M222.92,112.94v.01h.23c-.07-.61-.14-1.23-.23-1.97-.45.6-.43,1.01,0,1.96" fill="currentColor"/>
<path d="M222.52,107.37a2.1,2.1,0,0,0-.25.04,2.844,2.844,0,0,0,.26,1.9,1.341,1.341,0,0,0,.2-.02Z" fill="currentColor"/>
<path d="M271.56,72.6c-.17.1-.33.2-.5.29a68.338,68.338,0,0,1,5.28,6.98c.14-.1.29-.19.44-.28-1.62-2.28-3.27-4.53-4.99-6.72-.07-.09-.15-.18-.23-.27" fill="currentColor"/>
<path d="M258.12,84.71a45.256,45.256,0,0,0,3.3,5.13c-1-1.77-1.76-3.7-3.3-5.13" fill="currentColor"/>
<path d="M257.48,83.62c-1.17-2.22-2.36-3.75-3.14-3.85,1.13,1.25,1.52,2.89,3.14,3.85" fill="currentColor"/>
<path d="M254.12,81.86c-.66-.8-1.28-1.57-2.03-2.48.33,1.29,1.4,2.59,2.03,2.48" fill="currentColor"/>
<path d="M252.11,83.34c.61.74,1.14,1.38,1.67,2.02.04-.04.09-.08.13-.12-.97-1.9-1.11-2.06-1.8-1.9" fill="currentColor"/>
<path d="M254.89,83.09a1.75,1.75,0,0,0,1.37,1.82c-.43-.57-.85-1.14-1.37-1.82" fill="currentColor"/>
<path d="M260.18,91.93v-.01a1.713,1.713,0,0,1,.21-.08c-.32-.53-.64-1.06-1.03-1.69-.16.74.03,1.09.82,1.78" fill="currentColor"/>
<path d="M257.25,87.17a2.871,2.871,0,0,0,1.03,1.62l.01-.01c.06-.03.12-.07.17-.1l-.99-1.65c-.07.05-.14.09-.22.14" fill="currentColor"/>
<path d="M279.64,43.52a36.8,36.8,0,0,0-4.41-7.74c1.41,2.56,2.66,5.32,4.08,7.88.11-.05.22-.1.33-.14" fill="currentColor"/>
<path d="M274.06,33.47c-2.2-4.71-4.24-7.96-5.31-8.17,1.87,2.65,2.86,6.14,5.31,8.17" fill="currentColor"/>
<path d="M269.06,29.74c-1.11-1.71-2.16-3.32-3.42-5.27.81,2.73,2.62,5.51,3.42,5.27" fill="currentColor"/>
<path d="M266.79,32.89h.01c1.03,1.57,1.92,2.93,2.81,4.28.05-.09.09-.17.14-.26-1.85-4.04-2.08-4.38-2.96-4.02" fill="currentColor"/>
<path d="M272.8,36.21c-.74-1.21-1.47-2.42-2.35-3.87a4.589,4.589,0,0,0,2.35,3.87" fill="currentColor"/>
<path d="M276.84,44.2l-1.8-3.51c-.08.1-.17.2-.25.29a8.247,8.247,0,0,0,1.85,3.44c.07-.07.14-.15.2-.22" fill="currentColor"/>
<path d="M188.55,31.75h.01c-.79,1.61-2.83,6.5-5.25,12.43-4.22,10.31-9.6,23.74-11.56,28.52-.2.49-.37.89-.49,1.18-.74,1.77-1.46,3.56-2.2,5.34.9-1.72,1.85-3.4,2.81-5.05.33-.57.66-1.15,1-1.71.89-2,7.38-18.56,11.36-28.62,1.52-3.84,2.68-6.74,3.01-7.51,1.63-3.75,3.41-7.46,5.35-11.04-.17-.17-.34-.34-.53-.5-1.19,2.31-2.38,4.62-3.51,6.96" fill="currentColor"/>
<path d="M151.26,75.09c-.75,2.54-1.49,5.09-2.22,7.63.16.02.33.03.49.05q1.08-3.66,2.18-7.3c.1-.34.16-.69.24-1.04-.06-.03-.13-.07-.19-.1a3.2,3.2,0,0,0-.5.76" fill="currentColor"/>
<path d="M160.88,60.86h.01c-.92,2.8-1.73,5.63-2.73,8.39-1.77,4.89-3.46,9.79-4.95,14.75.13.08.26.15.39.23.2-.66.39-1.32.59-1.97,1.89-5.92,3.93-11.8,5.91-17.69.52-1.55,1.05-3.09,1.56-4.65a8.182,8.182,0,0,0,.2-.86c-.08-.02-.17-.05-.25-.07-.25.62-.52,1.24-.73,1.87" fill="currentColor"/>
<path d="M176.34,24.7v.01c-1.42,2.82-2.71,5.72-4.05,8.59a6.446,6.446,0,0,0-.24.78c.09.01.18.03.27.04.93-2.14,1.79-4.33,2.81-6.42.89-1.82,1.97-3.52,2.93-5.3.21-.39.43-.77.64-1.16-.19,0-.38,0-.57-.01-.6,1.15-1.21,2.31-1.79,3.47" fill="currentColor"/>
<path d="M166.92,38.98c-1.34,3.08-2.65,6.18-3.97,9.28a2.914,2.914,0,0,0-.12.6,1.865,1.865,0,0,1,.2.1q2.295-5.31,4.6-10.62a1.307,1.307,0,0,0-.71.64" fill="currentColor"/>
<path d="M174.45,24.88c-.23.04-.44.09-.81.16-1.04,2.4-2.08,4.79-3.16,7.28.61-.42,3-4.98,3.97-7.44" fill="currentColor"/>
<path d="M167.12,45.51c1.24-2.9,2.57-5.77,3.56-8.78a74.166,74.166,0,0,0-3.89,8.62c.11.05.22.11.33.16" fill="currentColor"/>
<path d="M169.92,27.75c-.92,1.44-1.66,2.87-2.4,4.3a.991.991,0,0,0-.13.25c-.02.24-.02.49-.03.73a1.137,1.137,0,0,0,.2-.03c.79-1.55,1.58-3.09,2.36-4.65.08-.16,0-.4,0-.6" fill="currentColor"/>
<path d="M173.48,4.7v.01c.1-.14.06-.39.09-.6C172.45,5.4,171.5,6.7,170.55,8a.812.812,0,0,0-.16.23c-.06.24-.1.48-.14.72h.2c1.01-1.41,2.03-2.82,3.03-4.25" fill="currentColor"/>
<path d="M169.11,34.6c-.34.94-1.3,1.73-1.06,2.82.1.02.2.03.3.05.49-1.01.98-2.03,1.47-3.04-.04-.09-.09-.17-.13-.26-.2.14-.51.24-.58.43" fill="currentColor"/>
<path d="M164.82,39.16c.38-.8.72-1.62,1.07-2.44-.04-.07-.07-.15-.11-.22-.17.12-.41.21-.49.38-.33.68-.63,1.39-.91,2.11a1.631,1.631,0,0,0,0,.54c.15-.12.37-.2.44-.36Z" fill="currentColor"/>
<path d="M172.75,21.32c-.5,1.16-.94,2.16-1.42,3.27a3.574,3.574,0,0,0,1.42-3.27" fill="currentColor"/>
<path d="M172.5,8.04c-.72,1.03-1.35,1.93-2.05,2.92a3.576,3.576,0,0,0,2.05-2.92" fill="currentColor"/>
<path d="M88.42,106.56l.25.83c-.08-.66-.15-1.32-.23-1.98,0,.38-.01.77-.02,1.15" fill="currentColor"/>
<path d="M87.71,99.2c.24,2.07.49,4.14.73,6.21.06-3.74.12-7.47.17-11.21-1.23,1.26-1.11,3.26-.9,5" fill="currentColor"/>
<path d="M82,117.34v-.01l.29-.19q-.075-5.955-.14-11.9a22.8,22.8,0,0,0-.15,12.1" fill="currentColor"/>
<path d="M252.73,48.66a165.522,165.522,0,0,1-11.28,36.51c5.78-11.56,10.5-23.69,11.28-36.51" fill="currentColor"/>
<path d="M238.8,27.36h0Z" fill="currentColor"/>
<path d="M249.79,25.33a1.5,1.5,0,0,1,.33.12c.46-.3.92-.59,1.39-.88a1.167,1.167,0,0,0-.1-.48,16.256,16.256,0,0,1-1.32-1.42l-1.02.3c.22.05.44.09.65.16.28.43.16,1.34-.53,1.24a1.022,1.022,0,0,1-.39-.64q-.33-.285-.93.03a1.07,1.07,0,0,1-.13.74c-.42.08-.61-.36-.89-.6a.528.528,0,0,1-.11-.25c-.33.09-.66.16-.99.24a1,1,0,0,1-.509,1.32,1.038,1.038,0,0,1-.181.06c-.33-.23-.42-.64-.74-.9-.02-.05,0-.09,0-.13l-.73.18c-.21.32-.08.61-.29.99a2.533,2.533,0,0,1-.88.22,1.57,1.57,0,0,1-.17-.88c-.3.08-.6.15-.91.22a8.681,8.681,0,0,1-.1,1.65c-.85.4-.63-.48-1.06-.9a3.878,3.878,0,0,0,.01-.47c-.3.07-.6.12-.9.18a.564.564,0,0,1-.395.692l-.035.008a12.044,12.044,0,0,0-2.08.06c-.36.03-.56-.06-.67-.23-.52.07-1.04.12-1.57.17a2.379,2.379,0,0,0-.7.34c-.48.04-1.1-.15-1.53.09a11.493,11.493,0,0,0-2.5-.12,1.326,1.326,0,0,0-.04.65c.72.18,1.48.38,2.21.5.51.54-.47.48-.77.36a2.084,2.084,0,0,0-1.57.09l-4.88-2.09h-6.9l-2.93.86-4.66,2.93.04-.05-5.52,4.14-.34,2.59,11.04-7.76,9.14-1.03,3.91.28a3.075,3.075,0,0,1-.19.29c3.62.24,7.35.21,10.62,1.18,3.68,1.09,6.09,4.66,8.84,7.14a.764.764,0,0,0,.09-.32c.45-.06.46-.3.51-.48-1.15-1.78-2.3-3.53-3.55-5.15a2.5,2.5,0,0,1-.43-.82c-.26-.27-.61-.49-.75-.81.16-.37.53-.59.8-.89l.06-.03c.6-1.4,2.3-2.26,3.5-.94a2.413,2.413,0,0,1,.71-.72l.66-.45c0-.25.03-.48.38-.58m-8.82,3.03c-.63.32-.81-.02-.99-.56-.4-.41-1.33-.17-1.87-.19.02-.188.247-.278.68-.25-.04-.44-.5-.38-.38-.98l.29-.04c-.04.42.11.66.44.71.63.03.92-.52,1.51-.21l.1.3c-.15.61.62.7.22,1.22m1.15-1.1c-1.21-.49.75-1.74,1.06-.7-.11.51-.69.35-1.06.7" fill="currentColor"/>
<path d="M254.75,93.54c.3.35,1.13,1.63,2.02,2.9.18-.17.35-.36.55-.52a73.079,73.079,0,0,0-6.37-8.81,21.565,21.565,0,0,0,3.8,6.43" fill="currentColor"/>
<path d="M215.315,24.152c-.661-.5-8.55-6.409-9.1-6.812-.58-.42-2.15-6.94-2.15-6.94l.5,7.351Z" fill="currentColor"/>
<path d="M215.38,24.19l-.065-.039.065.049Z" fill="currentColor"/>
<path d="M264.37,12.6,238.1,4.92c2.73,2.23,10.28,3.96,10.28,3.96l15.98,3.72Z" fill="currentColor"/>
<path d="M115.6,81.2l-.01.01v.11a.245.245,0,0,0-.41.18v3.92a.25.25,0,0,0,.5,0,2.436,2.436,0,0,1,.01-.27.218.218,0,0,0,.13-.15,9.727,9.727,0,0,0,.28-3.8c-.04-.31-.54-.32-.5,0" fill="currentColor"/>
<path d="M226.24,84.03c.03-.17-.11-.38-.3-.3a1.51,1.51,0,0,0-.81,1.17.211.211,0,0,0-.06.18v.07c-.01.05-.03.1-.04.15a10,10,0,0,0-.27,2.99.242.242,0,0,0,.249.235.286.286,0,0,0,.041-.005.239.239,0,0,0,.44-.06,35.968,35.968,0,0,0,.77-4.36c0-.02-.01-.03-.02-.05Zm-.67,1.07h-.01v-.02a.063.063,0,0,1,.01-.04Z" fill="currentColor"/>
<path d="M225.45,91.42l-.03-.02a.933.933,0,0,0-.29.07.245.245,0,0,0-.41.18v.04a1.022,1.022,0,0,0-.34.85.565.565,0,0,0,0,.13v.07c0,.04.04.06.07.09a4.622,4.622,0,0,0-.19,1.93c.03.31.53.32.5,0a2.621,2.621,0,0,1,0-.28.224.224,0,0,0,.22-.228v0a5.441,5.441,0,0,1,.45-2.1c.07-.12.17-.23.23-.36.07-.16,0-.38-.21-.37" fill="currentColor"/>
<path d="M238.54,194.34a.169.169,0,0,0,.03-.06h-.07Z" fill="currentColor"/>
<path d="M224.63,193.59l.02.02c.02.01.03.03.05.04a.88.88,0,0,0,.143.076c0-.01,0-.02-.013-.026v-.02a.215.215,0,0,0-.2-.09" fill="currentColor"/>
<path d="M224.87,193.74l-.027-.014a.057.057,0,0,0,.007.014Z" fill="currentColor"/>
<path d="M352.9,130.95l-.61-.64-.04.07c.19.23.39.46.58.68a1.145,1.145,0,0,1,.07-.11" fill="currentColor"/>
<line y1="0.01" transform="translate(79.72 94.01)" fill="none"/>
<path d="M258.857,171.918l-.363.487c.128-.158.247-.327.366-.485Z" fill="currentColor"/>
<path d="M386.49,87.091a26.5,26.5,0,0,0-2.53-8.88,15.788,15.788,0,0,0-6.15-7.11c-.78-.41-1.41-.66-2.07-.96l-1.98-.88-3.98-1.76c-2.68-1.13-5.38-2.23-8.16-3.18a31.3,31.3,0,0,0-4.3-1.19,5.673,5.673,0,0,0-1.19-.12c-.42-.03-.74,0-1.1,0l-2.18.03c-2.9.06-5.82.16-8.72.5a25.979,25.979,0,0,0-7.85,2s-1.11-.1-1.13-.1c-.35-.03-.69-1.22-.81-1.47-.31-.65-.65-1.29-1.01-1.91a49.424,49.424,0,0,0-5.29-5.78,18.383,18.383,0,0,0-3.06-1.87,26.188,26.188,0,0,0-5.71-1.62c-.77-.17-1.54-.35-2.31-.52a18.786,18.786,0,0,1-5.76-2.89c-.42-.45-1.24-1.36-2.33-2.57-4.99-5.57-9.91-11.19-14.85-16.81-1.47-1.73-2.98-3.47-4.6-5.04-1.97-1.83-3.72-3.15-3.79-3.2l-.22-.12c-1.8-.61-3.56-.72-5.24-1.69q-4.05-2.34-8.04-4.79a80.564,80.564,0,0,0-6.92-4.23L238.4.091,238.16,0l-.25.06c-2.48.64-4.98,1.25-7.47,1.86-4.49,1.11-8.98,2.22-13.49,3.3l-3.57.84a15.061,15.061,0,0,1-3.17.6,15.312,15.312,0,0,1-3.26-.62c-1.89-.41-3.76-.86-5.64-1.26-6.91-1.48-13.77-3.16-20.76-4.3a25.49,25.49,0,0,0-3.59-.43,17.794,17.794,0,0,0-3.44.3l-.16.03a35.116,35.116,0,0,0-4.45,1.12c-3.42,1.1-6.67,2.62-7.92,3.7l-.45.4c-.61.54-1.37,1.22-2.25,1.95a19.862,19.862,0,0,1-6.32,3.69,9.559,9.559,0,0,1-1.3.32c-1.02.17-2.19.31-3.42.4-.33.04-.67.06-1.02.1l-.81.07c-.54.03-1.1.08-1.57.12-.18,0-.38.02-.55.03-1.7.14-3.49.3-5.05.54-.53.09-1.01.19-1.48.29a10.351,10.351,0,0,0-1.75.59c-.27.13-.54.27-.79.4l-.34.19c-.06.04-.11.07-.28.17-.26.15-.52.31-.74.46q-.78.51-1.32.93l-.14.12a10.128,10.128,0,0,0-.93.8,2.54,2.54,0,0,0-.38.02l-.16-.03-.13.04c-.33,0-.7.04-1.09.08a8.517,8.517,0,0,0-3.27.77l-.44.23a25.226,25.226,0,0,0-8.65,6.83,17.164,17.164,0,0,0-1.54,2.42,6.335,6.335,0,0,0-.42.82,18.234,18.234,0,0,1-2.38,3.88,19.2,19.2,0,0,1-2.27,2.38l-.5.42a14.425,14.425,0,0,1-1.72,1.17l-.1.06c-.21.12-.34.18-.35.19l-.17.11a31.737,31.737,0,0,0-3.81,3.81,2.347,2.347,0,0,0-.18.24,8.8,8.8,0,0,0-1.62,2.86,2.423,2.423,0,0,1-.13.29c-.03.06-.06.12-.15.27a31.887,31.887,0,0,1-3.28,4.05c-1.68,1.89-3.41,3.73-5.16,5.56-1.69,1.76-3.4,3.51-5.11,5.25-.84.85-1.62,1.76-2.45,2.61-.61.62-1.3,1.13-1.85,1.8-1.55,1.85-2.84,3.9-4.31,5.8a40.734,40.734,0,0,1-3.81,4.06,34.082,34.082,0,0,0-3.52,4.07,20.1,20.1,0,0,0-3.15,5.53,28.591,28.591,0,0,1-2.69,6.66l-3.8,5.18a9.346,9.346,0,0,1-1.42,1.42,2.022,2.022,0,0,0-.49.14c-2.56.82-14.35,6.23-14.85,6.46l-1.51.69s5.24,11.03,7.92,13.35c.28,1.79,1.18,7.46.65,8.11,0,0-11.76,11.56-22.74,21.75S1.28,177.141.69,190.1c0,0,27.45,3.72,42.34-.2,0,0,1.76,1.18,10.19-13.91,0,0,21.71-23.01,29.55-21.63s9.6,8.44,13.13,9.41c2.78.77,5.2,2.52,11.77.25a25.038,25.038,0,0,0,7.73-4.65c1.54-1.28,4.41-2.22,9.12,1.07,7.84,5.49,20.78.58,23.71,1.76,2.95,1.18,6.27,2.35,7.06,10.01.78,7.64,3.14,18.04,7.06,18.41,3.51.37,27.95-.61,33.19.17,3.78.56,3.69-.08,3.14-1.88.04-1.32,3.99.29,3.42-1a17.372,17.372,0,0,0-3.14-3.59c-.58-.45-.9-1.93-1.05-2.81-.32-5.99-1.44-15.63-5.18-18.34-4.89-3.51,1.38-5.29,5.68-5.49,4.33-.19,11.18-3.72,12.36-3.72s16.28-1.27,16.28,1.27c0,1.3-1.17,2.86-1.75,3.96-1.32,2.48-2.63,4.96-3.73,7.55a31.139,31.139,0,0,0-2.71,13.1c.08,2.81,1.83,11.93,5.57,12.64,1.3.25,26.61.76,26.14-1.05-.21-.81,1.83-.63,2.61-.34,1.25.47,3.02.86,2.88-.25-.19-1.57,1.09-.15,2.09,0,.61.09-.92-6.3-2.68-6.69s.19-4.11,6.27-10.98,12.94-18.22,13.72-20.39c.13-.38.53-.64,1.11-.88a1.042,1.042,0,0,0,.11.14l.06-.02a27.825,27.825,0,0,1,6.26-.08c2.12.16,4.25.38,6.37.5,4.33.22,15.25-.37,20.98-2.28l.88-.36c.3-.16.72-.41.91-.53a2.86,2.86,0,0,1,2.94.13c5.19,3.9,9.62,5.86,14.23,8.08a2.1,2.1,0,0,1,1.19,2.11c-.53,5.54-1.86,24.57-1.83,25.1a4.953,4.953,0,0,0,.13,1,3.587,3.587,0,0,0,.55,1.21,6.471,6.471,0,0,0,3.37,2.16,15.251,15.251,0,0,0,3.42.58,56.846,56.846,0,0,0,6.78-.25c5.75-.26,14.83-.98,18.95.78,2.04.87,1.55-2.26.96-3.34-.71-.3-.09-.17,0,0,.69.29,1.48.58,3.04,1.34a.958.958,0,0,0,1.3-1.25,9.854,9.854,0,0,1-1.16-3.78c-.12-7.81,5.11-20.22,3.12-31.47-2.57-14.57-35.11-42.1-35.18-42.21a33.771,33.771,0,0,1,5.62-4.55l.05-.03a5.9,5.9,0,0,1,2.01-.85c.69-.08,1.6-.11,2.4-.14l4.99-.17c3.32-.09,6.65-.24,9.99-.38,1.68-.09,3.34-.19,5.03-.33l1.3-.13a13.624,13.624,0,0,0,1.36-.24,21.477,21.477,0,0,0,2.57-.74,34.8,34.8,0,0,0,4.8-2.09,25.282,25.282,0,0,0,2.31-1.38,13.158,13.158,0,0,0,1.16-.89,4.443,4.443,0,0,0,1.18-1.55c.02-.02.03-.02.06-.02a2.361,2.361,0,0,1,.49-.02c.17.02.5.08.5.08l.16.05.3.08s.06.02.06,0a.239.239,0,0,1,.06.05l.06.03a2.1,2.1,0,0,0,1.18.11,1.936,1.936,0,0,0,.42-.17c.17-.09.28-.17.36-.22.16-.13.25-.22.36-.31a5.506,5.506,0,0,0,.469-.52,12.184,12.184,0,0,0,.75-.97,18.357,18.357,0,0,0,1.24-2.04,12.923,12.923,0,0,0,.94-2.29,7.735,7.735,0,0,0,.281-1.32,7.361,7.361,0,0,0,.029-1.4ZM8.91,183.051l.44.02a.4.4,0,0,1,.4.28l-.02.51a.441.441,0,0,1-.4.25l-.46-.02Zm-.061,1.9.491.02a.439.439,0,0,1,.4.28l-.02.63a.427.427,0,0,1-.43.26l-.48-.02Zm-1.049.73a3.09,3.09,0,0,1-.18-1.02,3.288,3.288,0,0,1,.26-1.26Zm2.99,2.16-.01-.01a3.148,3.148,0,0,1-2-.73l.68.02a1.289,1.289,0,0,0,1.17-.82l.05-1.3a1.069,1.069,0,0,0-.41-.5,1.288,1.288,0,0,0,.39-.47l.04-1.04a1.267,1.267,0,0,0-1.08-.89l-.65-.02a3.112,3.112,0,0,1,3.8.14l-.99-.03-1.04,4.26-.03.72.84.03.23-1.05,1.06.04.11.78a3.165,3.165,0,0,1-2.16.87m1.9-2.67-.708-.02.42-1.94h.02Zm1.092.44-.49-2.85a3.138,3.138,0,0,1,.65,1.9,3.336,3.336,0,0,1-.16.95M340.87,68.571v-.02c.07-.82.19-1.63.32-2.45h.56a48.806,48.806,0,0,0-.6,4.97c-.09,1.17.03,2.34.05,3.52,0,.06-.06.12-.21.39a4.937,4.937,0,0,1-.28-1.16c.02-1.75.02-3.5.16-5.25m-13.53-10.44h.01c.04-.21.14-.27.24-.26.05.04.09.06.14.1.21.16.38.3.56.45.11.09.25.19.35.28.05.04.09.08.14.12l.18.47,2.86,7.4a4.214,4.214,0,0,0-1.17.73c-1.13-3.21-2.33-6.42-3.7-9.58.13.1.27.19.39.29m3.94,16.26c.05,1.18.3,2.32.45,3.49a3.522,3.522,0,0,1-.16.41,4.886,4.886,0,0,1-.41-1.12h-.01c-.18-1.74-.39-3.48-.44-5.24-.01-.38,0-.77.02-1.15.18-.16.37-.31.55-.47-.05,1.36-.06,2.72,0,4.08m-6.95-18.58h-.02a17.332,17.332,0,0,1,1.96,1.14c.02.02.03.04.05.06l-.36-.06a77.321,77.321,0,0,1,3.31,8.09c.32.96.61,1.93.91,2.89l-.04.04a3.587,3.587,0,0,1-1.14.86q-2.265-6.72-5.2-13.25c.18.08.35.14.53.23m-4.88-1.24h-.01l.71.06a10.326,10.326,0,0,1,2.47.51c.14.29.28.57.41.86,1.95,4.35,3.57,8.77,5.08,13.21a22.762,22.762,0,0,1-3.05.8c-1.81-4.78-4.37-11.02-6.42-15.54.27.03.52.07.81.1m9.33,71.02.01.01c.06.08.13.17.19.25-.67.47-1.34.93-2.02,1.4-.05-.07-.11-.13-.16-.2.63-.53,1.08-1.26,1.98-1.46m-1.3-1.8c.3-.76.55-.93,1.29-.76-.42.36-.77.67-1.12.97-.05-.07-.11-.14-.16-.21Zm-3.37-.35c-.22-.48,4.64-4.63,5.87-5.05.03.56-4.79,4.67-5.87,5.05m-3.97,2.17c-.1,1.05-1.12,1.06-1.9,1.56.03-1.31,1.19-1.18,1.9-1.56m-4.29-24.51-.01-.01c-.85-1.05-1.63-2.13-2.43-3.19-.22-.3-.45-.59-.64-.9a25.273,25.273,0,0,1-1.96-4.02,9.768,9.768,0,0,0,.21-1.07,33.911,33.911,0,0,0,3.45,6.46,55.112,55.112,0,0,0,4.95,6.41c-.1.07-.18.16-.28.24-1.11-1.3-2.22-2.6-3.29-3.92m2.67.65h.01a51.572,51.572,0,0,1-4.07-5.61,64.149,64.149,0,0,1-2.97-7.08,3.753,3.753,0,0,1-.11-1.06,26.648,26.648,0,0,1,2.28,4.73c1.31,4.03,4.41,7.38,7.19,10.86a1.033,1.033,0,0,0,.1.11c-.2.13-.38.26-.58.39-.63-.77-1.26-1.55-1.85-2.34m-5.45-15.49c.18-.04.37-.09.55-.13a30.8,30.8,0,0,0,1.02,3.74,23.172,23.172,0,0,0,1.2,2.54c.02.04-.02.1-.08.33a4.682,4.682,0,0,1-.66-.78c-.55-1.28-1.13-2.55-1.55-3.85a17.387,17.387,0,0,1-.48-1.85m2.98,7.46.01-.01c.17-.07.34-.13.51-.2a34.151,34.151,0,0,0,1.96,3.55,28.281,28.281,0,0,0,1.82,2.35c.03.04,0,.1,0,.34a5.443,5.443,0,0,1-.84-.68c-.86-1.19-1.76-2.36-2.51-3.59-.35-.57-.66-1.17-.95-1.76m4.22,2.36.01-.01a31.163,31.163,0,0,1-2.91-6.05,1.269,1.269,0,0,0,.93-.24c.01.05.03.08.04.13a49.066,49.066,0,0,0,4.12,8.44,19.458,19.458,0,0,0,2.18,3.04c-.15.1-.3.19-.46.29a58.693,58.693,0,0,1-3.91-5.6m6.26-8.76h-.01a43.794,43.794,0,0,1-2.51-12.24c.29-.11.58-.23.86-.35.1,1.4.26,2.77.5,4.38a74,74,0,0,0,2.98,11.33,28.271,28.271,0,0,0,2.2,5.04l-.59.18a81.523,81.523,0,0,1-3.43-8.34M329.2,97.783a5.867,5.867,0,0,0-.556.318c-.11-.2-.23-.4-.34-.61-1.05-2.02-2.09-4.04-3.08-6.08a9.139,9.139,0,0,1-.47-1.71c.1-.03.2-.05.3-.08a1.535,1.535,0,0,1,.24.38,10.518,10.518,0,0,0,.47,1.54c.35.71.85,1.38,1.23,2.08.758,1.377,1.437,2.784,2.206,4.162M324.08,86.091l-.01-.01a23.027,23.027,0,0,0,.79,2.62c.01.04-.04.09-.13.32a3.444,3.444,0,0,1-.53-.83c-.34-1.31-.72-2.62-.93-3.94a16.529,16.529,0,0,1-.18-1.87c.19-.03.38-.05.57-.08a28.388,28.388,0,0,0,.42,3.79m3.31,12.99h0c-.18.16-.35.31-.52.47-.28-.46-.57-.92-.83-1.39a45.975,45.975,0,0,1-3.16-5.89,58.948,58.948,0,0,1-1.83-7.25,3.431,3.431,0,0,1,.06-1.06,24.691,24.691,0,0,1,1.52,4.87c.6,3.69,2.72,6.96,4.76,10.25m-4.85-4.61h-.01a48.149,48.149,0,0,0,3.39,5.94c-.1.08-.19.17-.29.25-.73-1.12-1.46-2.24-2.16-3.37-.68-1.11-1.28-2.24-1.91-3.37-.17-.31-.36-.62-.5-.94a31.825,31.825,0,0,1-2.12-8.84h.56a1.264,1.264,0,0,0,.2-.04c.02.58.06,1.16.11,1.73a26.584,26.584,0,0,0,2.73,8.64m.4,29.45c-.17.78-.9.81-1.36,1.29-.14-.59.4-1.04,1.36-1.29m-.34,3.06v-.01c.72-.48,1.46-.93,2.21-1.37a1.249,1.249,0,0,1,.52-.02c-.07.14-.09.34-.21.41-.85.53-1.71,1.04-2.57,1.56l-.18-.12c.07-.15.1-.37.23-.45m1.14,2.03h0c.61-.44,1.25-.83,1.89-1.22.08-.05.22,0,.5.02-.81.65-1.51,1.21-2.33,1.86-.03-.29-.15-.59-.06-.66m6.89-7.96h0l.21.21c-.37.31-.74.62-1.1.93l-.17-.17c.11-.57.58-.77,1.06-.97m2.57.89c-.67,1.47-2.12,2.17-3.33,3.11.85-1.29,2.24-2.05,3.33-3.11m-.93-1.82c-.13-.86.35-1.42,1.1-1.29-.41.48-.76.89-1.1,1.29m-1.25-2.3-.16-.13c.37-.5,1.56-4.49,1.98-5.07.43.68-.48,4.29-1.82,5.2m-1.59-28.71V89.1c-.53-1.49-.97-3.02-1.44-4.53-.14-.46-.36-1.21-.46-1.68a48.786,48.786,0,0,1-.91-9.06c.21-.13.41-.25.62-.38,0,.13-.01.25-.01.38a44.6,44.6,0,0,0,1.62,11.52,71.9,71.9,0,0,0,3.17,9.67l-.37.12c-.75-2.01-1.51-4.01-2.22-6.03m-15.74-37.85h-.01c.7.27,1.44.57,2.2.88a1.223,1.223,0,0,1-.96-.3h-.25a10.5,10.5,0,0,1-1.3-.67c-.06-.04-.12-.06-.17-.1.16.06.32.12.49.19M172.561,3.246c-3.222,2.431-8.573,9.207-9.521,10.425a1.362,1.362,0,0,0,.06-.39c0-1.15,6.34-7.89,8.02-9.65.473-.139.957-.276,1.441-.385m-3.091.965v.01c.31-.11.6-.24.92-.35-3.31,2.48-8.62,10.02-8.62,10.02a.049.049,0,0,1,.03.01c-.07,0-.15.02-.22.02a1.37,1.37,0,0,0,.03-.22c0-1.12,6-7.52,7.86-9.49m-.88.34-.01.01c-2.95,2.4-7.18,8.21-8.09,9.49-.15.02-.3.03-.45.05.65-1.63,6.14-7.49,7.84-9.28.23-.1.47-.17.71-.27m-24.65,9.22v.01c.53-.05,1.07-.09,1.62-.13l.6-.06a2.737,2.737,0,0,0,.95.07l.27-.06c-.09.02-.18.04-.26.06-.22.05-.45.09-.68.13a.035.035,0,0,1-.02-.01.281.281,0,0,0-.09.03c-.3.05-.61.09-.91.12a1.192,1.192,0,0,1-.18-.01.468.468,0,0,0-.32.05,11.812,11.812,0,0,1-1.19.03c-.02-.07-.03-.14-.05-.21.08,0,.15-.02.26-.02m-12.91,4.49c-.23.02-.47.04-.73.06h-.01c.26-.02.51-.04.74-.06m-7.03,1.1v-.01h.03c-.05.03-.1.06-.16.09.04-.02.09-.06.13-.08m-19.41,28.06V47.4c.77-1.75,1.55-3.51,2.48-5.17.56-1,1.82-2.97,2.94-4.62-.24.66-.48,1.32-.71,1.99-1.47,4.21-2.81,8.45-4.21,12.69-.39,1.17-.79,2.35-1.12,3.53-2.75,9.72-5.87,26.13-7.52,36.09-.47,0-.94,0-1.4.03-.32,0-.63-.02-.95-.03.98-5.75,3.31-18.88,4.52-23.91,1.67-6.93,3.77-13.77,5.97-20.58m-5.94,9.81h.01a26.12,26.12,0,0,0,2.76-3.56c-3.29,11.51-6.79,28.07-8.58,38.2l-1.95-.06c1-5.76,3.31-17.76,4.5-22.74.96-3.97,2.08-7.91,3.26-11.84m-4.36,4.06v.01c.88-.73,1.74-1.47,2.56-2.25-2.5,9.14-5.65,23.95-7.22,32.71-.27,0-.54-.02-.81-.03.94-5.9,2.8-19.78,4.01-24.79.45-1.89.95-3.77,1.46-5.65m-9.74,2.45h.01v-.1c.7.22,1.92-.39,2.33.27,0,.2,0,.39.01.59-1.15.21-1.51-.83-2.59-.63Zm-10.03,15.2v-.01a5.268,5.268,0,0,0,.71-1.45c.37-.92.64-1.88,1.05-2.78.07-.05.13-.1.2-.15-.03,0-.03-.03-.06-.03s-.05.04-.08.06a5.429,5.429,0,0,1,.92-1.43,17.624,17.624,0,0,0,1.54-1.68c.07-.1.15-.2.22-.29a.946.946,0,0,0,.78.17l.45.34c.5-.22.72-.51.67-.87a.939.939,0,0,0-.71-.14,2.4,2.4,0,0,0,.29-.45c.5.21.96-.42,1.37-.41,0,.6-.2,1.27.27,1.46a19.272,19.272,0,0,0,2.69-1.68c2.8-2.13,5.2-4.89,7.98-7.11-1.81,7.78-4.03,22.21-5.2,29.06l-3.03-.66a15.378,15.378,0,0,1-3.17-1.39c-.64-.4-1.26-.84-1.87-1.28a.215.215,0,0,0-.07-.14,10.7,10.7,0,0,0-3.02-2.2,17.088,17.088,0,0,1-3.43-1.98,4.216,4.216,0,0,1-.11-.62Zm-18.81,23.34v-.01a3.638,3.638,0,0,0,.32-.94l1.5-.2a8.543,8.543,0,0,0-1.48,5.79l-2.11-.97c.59-1.22,1.18-2.45,1.77-3.67m-4.55-.3v.05a.244.244,0,0,1-.17-.02h-.02Zm.8,3.06a8.6,8.6,0,0,0-.13-2.47c-.12.81-.23,1.55-.33,2.26-.54-.25-1.06-.49-1.53-.71-.36-.17-.69-.32-1.02-.47a1.67,1.67,0,0,1,1.26-1.02,16.946,16.946,0,0,0,2.98-.91l.71-.1c-.08,1.4-.16,2.81-.23,4.21Zm-11.03,64.79c-.88.71-1.71.1-2.64.21.37-.77,1.37-.79,2.64-.21m-3.09,3.07c1.22.11,2.44.27,3.66.45.2.03.39.28.59.43-.2.09-.4.29-.6.27-1.41-.16-2.81-.37-4.22-.56-.03-.1-.06-.2-.09-.29.22-.11.44-.32.66-.3m-.55,3.26h.01c1.06.06,2.12.19,3.17.33.13.02.24.2.53.46-1.47,0-2.74,0-4.22-.01.22-.35.36-.79.51-.78m-.95-6.95c-1.04,1.07-2.18.18-3.49.03,1.2-1.42,2.36-.25,3.49-.03m-1.08,3.27c-.64.79-6.24-.4-7.32-1.46,2.43,0,4.75,1.04,7.32,1.46m-.11,4.14-.01-.01c-2.5-.65-4.78-1.23-7.05-1.82.02-.21.05-.41.08-.61,2.25.52,4.5,1.03,6.75,1.58.07.02.1.38.23.86m-9.03.81h.01c2.34.69,4.71,1.22,7.09,1.67,1.69.32,3.4.34,5.1.51.08,0,.16.1.53.36a7.947,7.947,0,0,1-1.73.21c-2.53-.32-5.07-.59-7.58-1.09-1.17-.23-2.33-.53-3.5-.86.03-.26.05-.53.08-.8m30.93-6.32h.01c-1,.99-4.33,3.64-4.8,4.35-3.3,4.94-8.66,12.26-9.52,12.97a7.276,7.276,0,0,1-3.04,1.27,29.109,29.109,0,0,0-3.52.05,88.2,88.2,0,0,1-9.57-1.39c-.06-.42-.12-.83-.18-1.25a81.72,81.72,0,0,0,11.18,1.52l.67-.53c.49-.38.96-.78,1.42-1.19-4.3-.57-9.96-1.71-13.96-2.63.02-.36.04-.76.05-1.2,1.75.52,3.49,1.03,5.25,1.46a68.662,68.662,0,0,0,9.88,1.22c.5-.5.99-1.02,1.45-1.55-3.81-.44-8.86-1.28-12.31-1.79a9.7,9.7,0,0,1-1.92-.7,60.042,60.042,0,0,1,9.51.87c1.24.25,3.63.57,5.43.75.16-.19.32-.38.48-.58.51-.66,1.07-1.37,1.66-2.1-.66.01-1.43.03-1.79.04a22.03,22.03,0,0,1-3.3-.39c0-.15-.02-.29-.03-.44a3.407,3.407,0,0,1,.78-.09,27.962,27.962,0,0,0,2.99.29c.4-.01,1.2-.04,1.9-.08.68-.83,1.37-1.66,2.03-2.39-1.72-.16-4.48-.44-5.39-.51v-.36a33.253,33.253,0,0,1,5.89.31,39.564,39.564,0,0,1,3.27-2.78c-1.75-.05-5.01-.19-5.53-.17v-.37c.85-.48,4.45-.35,5.95.21,1.23-.97,2.53-1.96,3.57-2.71a104.89,104.89,0,0,1-12.93-.87c.13-.51,10.89-.12,14.16-.02a.1.1,0,0,1-.01.05,2.914,2.914,0,0,1,.73-.41c1.09,0,1.14-.44-.46,1.14m19.77-55.34-.02.01c-.16-.06-.32-.12-.49-.19l-.44-.17c-.09-.03-.19-.07-.29-.11-.16-4.6-.23-9.21-.32-13.83a134.021,134.021,0,0,1,.6-13.91c-.22.03-.72.42-.74.61-.39,6.95-.58,13.96-.56,20.94,0,1.95.05,3.89.13,5.82-5-1.99-10.89-4.51-17.5-7.5-.12-.06-.24-.11-.36-.17a23.183,23.183,0,0,1,.68-5.93l.13-.23,1.42-.19,12.19-13.11.87-2.34h.08a.686.686,0,0,1-.03-.14l.29-.78c.26.22.54.43.81.64a12.371,12.371,0,0,0,2.04,1.49.174.174,0,0,0-.05.07c.67.39,1.32.84,1.95,1.28-.39,6.94-.58,13.93-.57,20.9,0,2.29.08,4.57.18,6.84m2.81-20.98a118.71,118.71,0,0,0-.87,21.74l-.78-.29c-.09-.03-.19-.08-.28-.11-.19-4.93-.28-9.87-.36-14.82-.07-4.31.16-8.57.51-12.81.88.63,1.72,1.23,2.47,1.68,1.44.85,1.29,3.39-.49,3.75-.05,0-.07.06-.11.09a.691.691,0,0,0-.28.58,1.7,1.7,0,0,1,.19.19m15.05,23.38-.21-.51a7.462,7.462,0,0,1-1.34.58l-.26.02.39.77c-.22.09-.48.18-.78.29a11.269,11.269,0,0,0-1.03-2.86c.05,1.06.1,2.11.15,3.16-.07.02-.13.04-.22.07h-.05l-.09.06a3.427,3.427,0,0,1-1.11.08l-.07.4a.743.743,0,0,0-.08-.15v-.27H89.9c.01-1.79.02-3.58-.03-5.36a1,1,0,0,0-.11-.54.367.367,0,0,0-.48-.15.507.507,0,0,0-.16.45c-.07,1.82-.14,3.63-.2,5.45a17.842,17.842,0,0,1-1.86-.4c-.05-.01-.1-.03-.16-.04a92.226,92.226,0,0,0-.57-13.99q-.24,6.855-.49,13.71l-.3-.09-.56-.17s-.09-.03-.14-.04q-.15-6.3-.3-12.61a51.737,51.737,0,0,0-.83,11.72,4.672,4.672,0,0,0,.05.54c-.29-.09-.57-.18-.87-.28-.66-.21-1.34-.46-2.04-.71l-.76-.28q.18-11.04-.32-22.09a1.985,1.985,0,0,1,.43,1.18,9.056,9.056,0,0,0,1.52,4.62,9.167,9.167,0,0,1,1.02-.96c-.44-2.48.79-5.39,3.44-5.82a22.667,22.667,0,0,1,8.21.44c.02,6.36.23,12.75.63,19.11.11,1.72.26,3.42.43,5.12a1.04,1.04,0,0,0-.76-.44Zm.72,1.53.01.01-.04-.07a1.064,1.064,0,0,0,.13-.23c.02.2.04.39.06.58-.05-.09-.12-.2-.16-.29m2.15,3.63-.01.01c-.31-.49-.59-.97-.86-1.42-.57-5.21-.97-10.44-1.38-15.67a114.958,114.958,0,0,1-.25-11.74h.05c.53-.11,1.05-.23,1.58-.34v.23c0,6.58.23,13.2.65,19.77.22,3.53.6,7,1.04,10.45-.27-.43-.57-.87-.82-1.29m3.08,4.67v-.02c-.05-.09-.1-.17-.15-.26s-.08-.2-.13-.28c-.14-.12-.26-.26-.39-.39l-.54-.78c-.84-6.4-1.31-12.87-1.83-19.34a115.85,115.85,0,0,1-.22-12.91c.24-.05.49-.09.73-.13a.278.278,0,0,0,.16.06c.09,0,.18-.03.27-.03.03,6.21.23,12.45.63,18.65.34,5.38.98,10.67,1.81,15.88-.11-.15-.22-.3-.34-.45m2.54,2.91v-.02l-.15-.12-.42-.44h-.03c-.19-.19-.38-.41-.57-.62-.05-.29-.11-.57-.16-.86-1.25-7.76-1.78-15.64-2.41-23.51a110.4,110.4,0,0,1-.25-11.49,7.567,7.567,0,0,0,1.16-.27c.23,4.48.44,8.96.71,13.44.19,3.2.48,6.4.73,9.6.07.89.13,1.78.24,2.66.51,4.18,1.23,8.26,2.06,12.3a4.31,4.31,0,0,1-.91-.67m1.8.88-.01-.02-.05.73c-.02-.09-.04-.19-.06-.28l-.08-.46h-.02c-1.12-5.64-1.88-11.43-2.51-17.28q-1.14-10.53-1.49-21.07a7.19,7.19,0,0,0,1.3-.71c0,.56.01,1.12.04,1.68.16,2.8.34,5.6.57,8.4.44,5.56.66,11.19,1.44,16.65.6,4.18,1.42,8.29,2.26,12.4-.51,0-.99-.02-1.39-.04m23.99-29.8-1.98-8.76c-.02-.74-.03-1.48-.04-2.22l1.81-4.03c-.08,4.97-.07,9.96.21,15.01m48.06,69.6c1.71.2,3.42.29,5.13.32,1.21.02,2.4-.17,3.61-.26.06,0,.12.05.41.19a5.3,5.3,0,0,1-1.18.35c-1.8.08-3.6.19-5.4.14-.84-.02-1.69-.09-2.53-.18-.01-.19-.03-.37-.04-.56m7.6-75.67h.01c.4.06,1.25-.4,1.66-.5s.82-.18,1.23-.25a13.983,13.983,0,0,0-.52,1.56,67.622,67.622,0,0,0-.95,31.93l-1.68-1.63a14.927,14.927,0,0,1-1.1-4.26,37.388,37.388,0,0,1,.32-8.12q1.02-9.075,2.05-18.16a60.224,60.224,0,0,0-3.89,16.95,29.74,29.74,0,0,0,2.1,13.09l-1.26-1.23c-1.19-2.41-1.49-5.57-1.4-8.86a97.758,97.758,0,0,1,1.69-13.63l1.33-7.13h.09a.489.489,0,0,0,.16.16l-.07.22a1.056,1.056,0,0,1,.23-.14m6.13,73.25-2.44.24c-.01-.08-.03-.17-.04-.25a4.8,4.8,0,0,1,2.44-.31l-.01.01c.02.1.03.21.05.31m-4.5-54.47v-.03a36.222,36.222,0,0,0,2.09,14.44l-1.57-.15c-.22-1.14-.43-2.29-.61-3.44a69.07,69.07,0,0,1,2.15-30.48c1.19-.18,2.39-.29,3.58-.37-.16.47-.28.95-.41,1.43a83.3,83.3,0,0,0-1.35,33.2l-1.47-.14a17.3,17.3,0,0,1-.89-4.1,46.209,46.209,0,0,1,.33-9.03q1-10.095,2.04-20.18a74.233,74.233,0,0,0-3.89,18.85m-1.94,52.82a1.965,1.965,0,0,0-.1-.2c.14-.1.27-.27.42-.28.86-.07,1.73-.11,2.6-.12.15,0,.31.15.46.23-.13.09-.25.25-.38.26-1,.06-2,.08-3,.11m3,1.97c-1.02.17-1.91.32-2.94.49.11-.27.16-.59.26-.6.74-.09,1.5-.12,2.25-.15.09,0,.19.11.43.26M184.6,165c.17-.58.86-.72,1.81-.46-.53.6-1.18.27-1.81.46m-3.24-42.86s-.03.08-.04.12c0-.12-.01-.25-.02-.37a.781.781,0,0,1,.04.16.148.148,0,0,1,.02.09m1.78,42.52c-.59.87-1.5.38-2.42.44.66-1.13,1.61-.46,2.42-.44m.05,5.28c-1.82-.15-3.47-.29-5.12-.43,0-.15-.01-.29-.02-.44,1.63.09,3.26.18,4.88.3.05,0,.12.25.26.57m-.41-2.88c-.35.62-4.39.47-5.27-.15,1.69-.29,3.43.16,5.27.15m9.22,20.66v-.01a.9.9,0,0,1-1.08-.26c-.39-.39.13-4.31-.91-5.03s-.59-.98-.59-.98,1.47-.65,2.25,2.16.33,4.12.33,4.12m2.52-20.5v.04c1.14,3.5,1.53,8.29,2.35,14.47.74,1.58,1.35,3.26,2.16,3.69,1.89,1.01,2.3,1.84,2.11,2.23-.09.19-1.62.02-2.25,0s-1.638-3.321-1.939-2.941a17.467,17.467,0,0,0,1.109,4.581c.52.78-1.27.96-2.71.57s-2.22.46-2.09-4.57c.02-.63.06-1.17.12-1.64,0-2.22-.08-4.1-.18-5.73a43.074,43.074,0,0,1-14.52,1.2c-.09-.28-.18-.57-.27-.85a46.565,46.565,0,0,0,8.18-.14,49.719,49.719,0,0,0,6.55-1.09c-.04-.49-.08-.95-.13-1.39-.21.05-.42.1-.64.15-.44.11-.88.23-1.33.3a62.391,62.391,0,0,1-13.46.29c-.03-.25-.07-.53-.11-.84,1.28.15,2.55.3,3.83.39a45.733,45.733,0,0,0,11.63-.92c-.05-.44-.11-.86-.17-1.25-.81.18-1.62.34-2.44.44-3.27.39-6.63.29-9.95.37a7.2,7.2,0,0,1-1.42-.26,42.12,42.12,0,0,1,6.72-.53,30.5,30.5,0,0,0,6.98-.71c-.13-.7-.27-1.33-.42-1.88-.92.2-1.84.4-2.77.58a15.384,15.384,0,0,1-2.35.12c-.02-.1-.05-.2-.07-.3a3.48,3.48,0,0,1,.53-.16,18.567,18.567,0,0,0,2.12-.16c.8-.16,1.58-.41,2.37-.63a15.326,15.326,0,0,0-2.08-4.14,4.678,4.678,0,0,1,.06-5.48.127.127,0,0,1,.18-.013.131.131,0,0,1,.04.063c.45,1.1,3.74,4.58,4.26,6.14m-2.16-37.72q-.69-7.065-1.39-14.12.435,7.035.86,14.07l-1-.1c-.07-.42-.13-.84-.19-1.25a85.46,85.46,0,0,1,2.02-33.48c.18-.01.36-.03.54-.04l.59-.03a14.159,14.159,0,0,0-2.26,5.77,38.047,38.047,0,0,0-.21,8.2c.02-.03.05-.06.07-.09.049.148.089.287.138.435a9.356,9.356,0,0,0-.338,4.035v.8a3.6,3.6,0,0,0,.81-2.58,8.826,8.826,0,0,0-.469-2.255,3.106,3.106,0,0,1,.089-.305c-.08-.05-.15-.09-.23-.14l.49-.58a38.794,38.794,0,0,1,2.6-13.34c.44-.02.88-.04,1.32-.05a98.077,98.077,0,0,0-3.16,22.66c-.08,4.14,0,8.3.21,12.44Zm2.07-8.67c-.04,2.95-.05,5.91-.06,8.87l-.99-.1a61.671,61.671,0,0,1-.23-7.58c.21-5.38.34-10.76,1.07-16.07a108.9,108.9,0,0,1,2.33-11.51c.5,0,1,.01,1.49.05a.872.872,0,0,1-.04.15c-1.88-.38-1.69,0-.11.48a122.909,122.909,0,0,0-3.16,17.34c-.05.6-.07,1.21-.09,1.82-.08,2.18-.19,4.37-.22,6.55Zm29.16.17-.04-.03c0-1.25,0-2.5-.03-3.75a1.841,1.841,0,0,0-.21-.56,1.619,1.619,0,0,0-.21.54c0,1.14,0,2.28.05,3.42a1.336,1.336,0,0,0,.2.53c-5.25,4.61-10.31,9.03-10.31,9.03l-8.81-.17h-.02a3.161,3.161,0,0,0-.22-1.17,1.5,1.5,0,0,0-.19.03c-.01.38-.02.75-.03,1.13h-.01l-1.55-.03c.3-1.18.14-2.54-.37-2.78.07.9.14,1.79.21,2.78l-3.6-.06c0-.85-.01-1.7,0-2.54.04-3.55.32-7.1.47-10.65.06-1.36.01-2.72.1-4.07.06-.93.28-1.85.4-2.77a6.256,6.256,0,0,0,0-.75,2.248,2.248,0,0,1-.26-.03c-.17,1.02-.42,2.02-.49,3.05-.26,3.87-.48,7.76-.69,11.63-.11,2.04-.14,4.07-.15,6.11l-1.32-.03c-.02-.6-.03-1.21-.02-1.81.14-7.22,0-14.47,1.52-21.55a86.048,86.048,0,0,0,1.26-8.81,12.989,12.989,0,0,0-.57,1.71c-.77,4.29-1.7,8.54-2.2,12.89-.44,3.74-.39,7.58-.54,11.37-.07,1.91-.11,3.82-.14,5.73,0,.15,0,.3.01.45l-1.09-.11c-.07-4.68.06-9.34.41-14.03a93.954,93.954,0,0,1,2.21-15.65c.39-1.59.84-3.17,1.28-4.74.13.03.26.07.4.1a19.362,19.362,0,0,1,2.47.75c-.28,1.05-.56,2.1-.78,3.17-.49,2.3-.85,4.64-1.24,6.97a12.3,12.3,0,0,0-.01,1.64,3.414,3.414,0,0,0,.26-.45c.23-1.57.38-3.18.7-4.72.45-2.17.96-4.33,1.55-6.44,1.07.41,2.2.88,3.7,1.4a.028.028,0,0,0,.01.02.775.775,0,0,0-.09.1c.3.14.6.29.91.43-.01-.09-.03-.19-.04-.28,1.01.33,2.18.67,3.61,1.02,0,.02.02.05.02.07.08,0,.15-.01.22-.01.32.08.66.16,1,.24.39.48,1.35.75,1.76.38,4.73.96,6.66.61,7.76-.05.11.84.43,1.54.82,1.65-.16-.62-.32-1.24-.48-1.87.69-.52,1.05-1.15,1.84-1.49a14.06,14.06,0,0,1,1.4-.49c.19,1.03.38,2.06.56,3.09.58,3.5.94,7.04,1.41,10.56.18,1.34.46,2.68.61,4.03.1.93.05,1.87.09,2.8-1.14.99-2.33,2.04-3.51,3.07M198.74,94.8h.01v-.02c.02.01.05.03.07.04a.241.241,0,0,1-.08-.02m3,.85a.531.531,0,0,1,.2-.1c.46-.07.64.25.9.45-.39-.13-.75-.24-1.1-.35m1.56.5a2.08,2.08,0,0,1,1.22.39c-.29-.09-.57-.17-.86-.27-.13-.04-.24-.08-.36-.12m25.13,20.33-.01-.01c-.3.34-.63.71-.94,1.07l-.01.01a19.639,19.639,0,0,0-.06-2.03c-.42-3.86-.89-7.72-1.36-11.57-.28-2.25-.64-4.48-1.04-6.71.39-.11.8-.22,1.25-.33.19.85.38,1.71.52,2.58.86,5.45,1.86,10.89,2.18,16.4-.16.18-.33.38-.53.59m1.58-1.74c-.16.17-.32.35-.49.53a2.679,2.679,0,0,0-.02-.27c-.22-3.75-.94-7.53-1.46-11.29-.27-1.88-.56-3.78-.88-5.66-.08-.44-.16-.87-.25-1.3.34-.08.7-.16,1.07-.23q1.485,7.38,2.26,14.89c.09.94.18,1.88.25,2.82-.16.17-.32.33-.49.51Zm1.49-1.58c-.14.14-.29.3-.43.46l-.12-.9c-.31-2.16-.58-4.33-.94-6.49-.53-3.26-1.1-6.53-1.68-9.79.28-.06.57-.11.86-.17a64,64,0,0,1,1.87,8.56c.36,2.58.72,5.16,1.02,7.74l-.59.59Zm3.22-2.86v-.01c-.07.05-.13.09-.19.13l-.22.16c-.34.26-.64.49-.89.71l-.43.39c-.08.07-.17.17-.26.25-.09-.78-.19-1.55-.31-2.34-.69-4.44-1.57-8.86-2.6-13.22-.02-.08-.03-.14-.05-.2.93-.16,1.88-.31,2.82-.42a60.341,60.341,0,0,1,1.57,7.48c.32,2.27.63,4.55.92,6.82-.12.08-.25.16-.36.25m1.05-.7-.01-.01c-.07-.54-.14-1.08-.23-1.61q-.96-6.2-2.38-12.28c.36-.04.72-.07,1.08-.1a62.852,62.852,0,0,1,1.67,7.87q.39,2.775.76,5.55Zm2.2-1.41c-.22.14-.44.27-.66.4-.02-.13-.03-.26-.05-.38-.67-4.24-1.51-8.48-2.49-12.66.42-.03.82-.04,1.21-.05a64.695,64.695,0,0,1,1.63,7.72c.23,1.58.45,3.18.65,4.78-.1.06-.22.13-.3.19Zm1.36-.82c-.14.08-.27.16-.41.24-.65-4.06-1.44-8.11-2.37-12.11.3,0,.58.02.84.04a64.1,64.1,0,0,1,1.71,8.03l.51,3.63c-.1.06-.2.11-.29.17Zm34.58,45.34.03.04c-3.24,5.32-13.8,22.34-18.64,26.44-2.75,2.33-1.76,4.7-1.76,4.7s2.29.87,2.74,1.92,1.25,3.44.78,3.07-2.02-2.83-2.28-2.83.91,3.74.13,4.26-1.8-3.73-2.68-4.84a1.237,1.237,0,0,1-.2-.59c-1.6-.04-8.66-.28-10.22-1.28l10.22-.05a12.018,12.018,0,0,1,.17-1.21c-4-.02-9.77-.14-9.77-.14s-2.82-1.09-.55-.79a33.4,33.4,0,0,0,5.32.13l5.06.46c.1-.49.23-.95.33-1.3-3.96-.61-10.01-1.65-10.01-1.65s-2.63-1.5-.43-.86a33.967,33.967,0,0,0,5.24.92l5.28,1.29c.06-.18.1-.31.1-.31l1.7-2.28a43.8,43.8,0,0,1-12.21-9.52l.39-.81a47.018,47.018,0,0,0,6.06,5.5,52.781,52.781,0,0,0,6.28,4.13l.84-1.13c-.44-.25-.87-.5-1.31-.74-.39-.22-.8-.44-1.17-.69a62.241,62.241,0,0,1-10.01-9.01c.15-.2.32-.43.49-.69.83.98,1.65,1.97,2.52,2.91a46.571,46.571,0,0,0,9.36,7.46c.16.1.32.19.47.28l.76-1.02a30.676,30.676,0,0,1-2.83-1.8c-2.65-1.95-5.03-4.33-7.51-6.54a7.843,7.843,0,0,1-.86-1.16A43.11,43.11,0,0,1,251,169.2a31.731,31.731,0,0,0,6.35,4.74l1.143-1.535,0,0c-1.11-.68-2.23-1.34-3.34-2.03a15.918,15.918,0,0,1-1.79-1.52l.15-.27.01.01a2.338,2.338,0,0,1,.5.25,17.134,17.134,0,0,0,1.65,1.33c.86.54,1.8.94,2.68,1.44l.506.3,3.844-5.158a21.633,21.633,0,0,1-3.99-2.83c.25-.23,2.55,1.07,4.38,2.3l1.62-2.18a48.079,48.079,0,0,1-9.41-7.92c.27-.19.53-.39.79-.58a56.273,56.273,0,0,0,5.27,4.78c1.27,1.05,2.61,1.98,3.96,2.89l.97-1.3c-.07-.05-.15-.1-.22-.15-2.83-2.18-5.38-4.79-8.01-7.26.15-.12.29-.24.44-.35a36.91,36.91,0,0,1,4.11,3.58,30.751,30.751,0,0,0,4.17,3.53l1.16-1.55c-.8-.56-1.55-1.08-2.39-1.67.3-.13.6-.35.69-.28.66.51,1.29,1.08,1.92,1.65l6.03-8.08h.04c.12-.27.23-.52.33-.74a16.513,16.513,0,0,0,1.17-3.87,18.632,18.632,0,0,0-.37-7.5,28.517,28.517,0,0,0-4.12-8.96c-.98-1.46-2.16-2.77-3.14-4.23-1.34-1.99-2.47-4.1-3.73-6.14,0,0,11.5,13.72,12.87,21.56a13.785,13.785,0,0,1-3.33,11.25m-31.56,22.25a14.6,14.6,0,0,0,3.3,1.1l3.41,1.53s2.89.97,1.63.72-8.3-2.53-8.3-2.53-1.35-1.52-.04-.82m.4-2.83h0a14.666,14.666,0,0,0,3.02,1.72l3.04,2.16s2.64,1.52,1.46,1.03-7.64-4.1-7.64-4.1-1.03-1.75.12-.81m13.54-10.02c.52-.31,1.11.06,1.64.9-.79.07-1.04-.61-1.64-.9m1.81,6.99c-.06.09-.12.17-.18.26l-1.95-1.5c.05-.07.09-.14.14-.21.69.44,1.53.65,1.99,1.45m-1.22-3.8h.01c.11.1.12.32.18.49-.15-.02-.35.01-.46-.08-.76-.64-1.51-1.31-2.27-1.97l.06-.21c.17.02.38-.02.5.08.67.54,1.33,1.11,1.98,1.69m-1.67,1.93c-.86-.58-1.61-1.07-2.48-1.65h-.01c.26-.12.52-.32.61-.26.6.44,1.17.94,1.74,1.43.07.06.06.21.14.48m-1.81-7.71c1.26-.37,1.49.77,2.07,1.34-1.03.23-1.35-.75-2.07-1.34m.16,2.84c-.69.21-3.52-2.66-3.74-3.71,1.43.94,2.39,2.46,3.74,3.71m-1.48,1.79s-.09.26-.2.59c-1.22-1.36-2.33-2.59-3.44-3.82.09-.11.19-.22.28-.33,1.12,1.18,2.25,2.36,3.36,3.56m-2.31,1.29.01.02c.87.84,1.87,1.52,2.8,2.28a2.354,2.354,0,0,1,.17.42,6.242,6.242,0,0,1-1.1-.55c-1.36-1.17-2.75-2.32-4.04-3.6-.6-.59-1.17-1.22-1.72-1.87.12-.14.24-.29.36-.44,1.11,1.32,2.3,2.55,3.52,3.74m9.51,2.07c.05-.07.1-.14.15-.22.81.06,1.06.24,1.12.99-.47-.29-.87-.53-1.26-.78Zm13.36-22.78h.01c.67.52,1.31,1.1,1.94,1.67.08.07.07.25.14.55-.97-.67-1.8-1.26-2.78-1.94.3-.13.6-.35.69-.28m-.5-2.47h.01c.3-.13.6-.35.69-.28.67.52,1.31,1.1,1.94,1.67.08.07.07.25.14.55-.97-.67-1.8-1.26-2.78-1.94m1.85,7.54.01-.01c.08.07.07.24.14.55-.96-.67-3.66-2.55-4.64-3.23.3-.13.6-.35.69-.28.67.52,3.17,2.39,3.8,2.97m-1.81,2.63c-.9.06-2.7-2.28-3.36-2.64.6-.34,2.79,1.67,3.36,2.64m-1.61,1.79c.12.11.13.37.19.56-.17-.03-.4,0-.52-.1-.85-.75-1.69-1.53-2.53-2.3.03-.08.05-.16.08-.23.19.03.44,0,.57.1.75.63,1.49,1.29,2.21,1.97m-1.58,1.95.01-.01c.08.07.07.25.14.55-.97-.67-3.66-2.55-4.64-3.23.3-.13.6-.35.69-.28.67.52,3.17,2.39,3.8,2.97m-4.17.11h.01c.08.07.07.25.14.55-.97-.67-1.8-1.26-2.78-1.94.3-.13.6-.35.69-.28.67.52,1.31,1.1,1.94,1.67m7.78-69.93c-1.02-1.44-2.42-3.28-3.05-4.23q-3.645-5.46-7.69-10.64c.27-.31.6-.55.79-.51a1.634,1.634,0,0,0,.15.61,1.929,1.929,0,0,1,.96.59l.03.03a60.122,60.122,0,0,1,4.19,5.66c1.05,1.64,3.45,5.29,5.26,8.09l-.05.05c-.19.1-.38.21-.55.32C272.63,86.321,272.61,86.341,272.6,86.351Zm6.87-2.18h0a8.51,8.51,0,0,0-1.01,0,7.749,7.749,0,0,0-1.04.16c-.13.02-.24.06-.37.09-1.14-1.61-2.74-3.87-2.86-4.05-2.49-3.73-5.14-7.39-7.9-10.92-.07-.09-.15-.18-.23-.27-.17.1-.33.2-.5.29a66.676,66.676,0,0,1,5.4,7.15c.82,1.28,3.66,5.36,5.43,7.97-.25.08-.51.15-.76.25-.05.02-.11.04-.16.06-1.01-1.55-2.52-3.86-2.77-4.23-2.49-3.73-5.14-7.39-7.9-10.91-.07-.09-.15-.18-.23-.27-.17.1-.33.2-.5.29a66.676,66.676,0,0,1,5.4,7.15c1.01,1.58,3.67,5.63,5.36,8.25a8.647,8.647,0,0,0-.88.42.459.459,0,0,0-.08.04c-1.06-1.63-2.32-3.57-2.64-4.04-2.1-3.14-4.32-6.21-6.62-9.21a8.169,8.169,0,0,1-.82-2.55,11.1,11.1,0,0,1,.32-5.02c-.12.23-.08.54-.31.81a3.264,3.264,0,0,0-1.14,1.97c-.01.8-.68,1.5-.86,2.3-.14.4-.38.73-.81.4-.15-.15-.28-.17-.38-.11-.08.15-.18.3-.28.45a1.281,1.281,0,0,0-.04.38h-.23c-.93,1.17-1.89,2.33-2.87,3.46,1.29-.88,2.41-1.66,3.24-2.31a3.229,3.229,0,0,1,.88-.47,64.659,64.659,0,0,1,5.01,6.68c1.82,2.84,3.64,5.67,5.36,8.56-.71.46-1.421.94-2.12,1.46-.69-1.18-1.39-2.36-2.16-3.52-2.49-3.73-5.141-7.39-7.9-10.91-.07-.09-.15-.18-.23-.27-.17.1-.33.2-.5.29a66.676,66.676,0,0,1,5.4,7.15c1.63,2.55,3.25,5.12,4.81,7.71-.3.23-.59.45-.88.68-.24-.4-.481-.79-.731-1.18-1.18-1.84-2.339-3.69-3.56-5.51-1.9-2.82-3.849-5.62-5.779-8.42-.1.06-.211.13-.31.18q4.543,6.21,8.459,12.84c.49.82.94,1.66,1.4,2.49-.271.22-.521.44-.791.66-1.74-3.16-3.85-6.16-5.82-9.22-1.03-1.61-2.09-3.2-3.16-4.78-.33-.49-.69-.95-1.05-1.42-.21.11-.42.22-.619.32.649.85,1.3,1.69,1.89,2.58,2.839,4.26,5.8,8.46,8.279,12.92-.409.35-.82.69-1.209,1.03q-2.895-4.815-5.86-9.59c-1.35-2.18-2.791-4.3-4.26-6.4-.19.1-.39.18-.58.27.81,1.15,1.62,2.29,2.41,3.45,2,2.94,3.8,6,5.7,9,.73,1.15,1.54,2.24,2.24,3.4.02.04.04.07.06.11-.41.36-.82.72-1.2,1.05-.53.47-1.03.91-1.49,1.31a13.526,13.526,0,0,1-2.11,1.62c-.3.14-.81.4-1.49.74l-3.29,1.71s-.09.05-.14.07a48.84,48.84,0,0,0-4.49-5.56,21.528,21.528,0,0,0,3.51,6.05c-.26.14-.54.29-.87.45h-.02c-2.06-3.36-5.49-8.56-7.63-10.83a21.453,21.453,0,0,0,3.81,6.43c.45.52,2.06,3.1,3.34,4.65-.23.12-.46.24-.62.34-.05.02-.08.04-.13.06a49.315,49.315,0,0,0-5.45-6.99,21.329,21.329,0,0,0,3.8,6.43,6.311,6.311,0,0,0,.95.92l-2.07,1.09c-.29.16-.59.32-.89.48-.29-.07-.58-.14-.87-.23a3.162,3.162,0,0,1,.41.34v.14l-.48.25-1.11.6a.555.555,0,0,0-.13-.27,2.269,2.269,0,0,0-1.54.61,5.109,5.109,0,0,0,.02.58l-.06.04c-.14.08-.28.15-.44.25-.12.07-.22.12-.34.18a3.626,3.626,0,0,1-.05-.75c-.6-.06-.99.06-.91.75a.389.389,0,0,0,.26.39c-.2.11-.39.22-.58.33-.33-1.68-.68-3.37-1.08-5.03-.03-.13-.08-.24-.09-.34-.2.02-.39.03-.58.05.5,1.84.95,3.69,1.33,5.56l-.19.11c-.08.04-.16.09-.23.13l-1.45.83c-.63-3.77-1.37-7.53-2.25-11.24v-.01c2.94.38,2.69,1.8,2.69,1.8l1.47.6s.34-2.24-2.43-3.58l5.53-9.27s11.38-24.58,11.38-31.22-4.57-9.05-4.57-9.05,2.67,2.59,2.07,8.88-4.4,15.01-4.4,15.01l-6.55,16.73-3.48,8.92a9,9,0,0,0-2.29-.7q2.145-4.215,4.05-8.54c-1.43,2.86-2.92,5.68-4.43,8.47-.34-.05-.7-.09-1.09-.12,1.72-4.67,3.39-9.36,4.89-14.11,2.33-7.37,4.66-14.75,6.91-22.14.6-1.96.9-3.98,1.34-5.98l-.42-.09a12.141,12.141,0,0,0-.5,1.4c-.44,1.8-.73,3.63-1.28,5.41-.79,2.58-1.79,5.11-2.63,7.67-2.2,6.72-4.2,13.51-6.58,20.17-.91,2.55-1.86,5.09-2.81,7.63-.62,0-1.23.02-1.84.08.5-1.63,1.01-3.27,1.51-4.91,1.01-3.34,1.87-6.74,2.92-10.05.73-2.29,1.69-4.46,2.52-6.7.22-.59.34-1.23.51-1.85-.13-.06-.26-.12-.4-.18-.95,2.44-2.03,4.83-2.84,7.35-1.75,5.48-3.46,10.97-5.17,16.46a27.612,27.612,0,0,0-11.22,4.5c-.53.53-5.51.75-11.5-.42a.984.984,0,0,0-.67-.13c-.04,0-.08-.02-.11-.02a1.453,1.453,0,0,0-1.14-.6,1.389,1.389,0,0,0-.95-.48l.13-.06c.51-1.84,1.39-3.65,1.23-5.55-.1,0-.21-.02-.31-.03-.49,1.6-.99,3.19-1.44,4.8a1.567,1.567,0,0,0,.07.8c-.06,0-.13-.02-.19-.02-.24-.11-.48-.22-.72-.32a2.408,2.408,0,0,1-.19-.32c-.12.02-.24.05-.37.07-.18-.07-.35-.14-.53-.21-.31-.44-1.04-.44-1.47-.74a1.9,1.9,0,0,0-1.52-.6.035.035,0,0,0-.01-.02c-.07-.05-.15-.08-.23-.13v-.08c-.1-.03-.2-.05-.3-.08a4.9,4.9,0,0,0-1.83-.51c-.16-.05-.32-.11-.48-.16a.192.192,0,0,0-.21.05c-.02-.03-.05-.05-.06-.09-.08-.02-.16-.05-.24-.07.68-2.54,1.35-5.07,2.07-7.6,1.93-6.8,4.22-13.49,6.33-20.25.8-2.58,1.45-5.22,2.3-7.78.58-1.77,1.4-3.43,2.09-5.15a13.352,13.352,0,0,0,.4-1.43c-.13-.06-.27-.11-.4-.17-.8,1.88-1.73,3.7-2.37,5.65-2.45,7.33-4.83,14.69-7.2,22.05-1.57,4.86-2.96,9.77-4.29,14.69.13.06.25.13.38.19a.274.274,0,0,1-.04.05l-.45-.12a1.16,1.16,0,0,0-.05-.28c-.73,0-1.01-.52-1.72-.61-.14-.1-.2-.16-.22-.22l-.36-.12a1.587,1.587,0,0,1-.75.38,2.136,2.136,0,0,1-.24-.07,2.114,2.114,0,0,1,.06-.25.95.95,0,0,0-.2.21,1.755,1.755,0,0,0-.61-.16c-.1-.03-.2-.05-.3-.08a1.87,1.87,0,0,0,.46-.11v-.12c-.46-.02-.65-.32-1.07-.44-.63.44-.65-.22-1.39-.08-.02-.1.16-.16.52-.16.36-.1.26-.28.08-.48-.3-.13-.58-.27-.86-.41.08.03.17.06.25.09a161.079,161.079,0,0,1,4.16-17.35c3.15-10.23,6.18-20.51,10.13-30.41.53-1.34,1.11-2.64,1.68-3.95-.67.58-1.33,1.18-1.97,1.81-3.04,7.41-7.3,15.03-9.59,22.91-2.49,8.58-3.2,17.26-5.15,25.96-.05.2-.08.41-.12.61-.28-.15-.56-.3-.84-.46-.55-.34-1.11-.65-1.61-1.03a4.427,4.427,0,0,1-.72-.64,88.644,88.644,0,0,1,2.66-15.48,140.338,140.338,0,0,1,6.04-17.16c.78-1.72,6.55-14.14,6.55-14.14s-12.76,24.32-12.76,28.63c0,3.42-2.54,11.58-3.55,16.34-.01-.03-.03-.06-.04-.09-.05-.13-.1-.27-.14-.4-.02-.01-.03-.03-.05-.04-.07-.16-.14-.32-.21-.49l-.28-1.4h-.17c-.15-.59-.28-1.19-.4-1.8.13-.14.28-.27.41-.42a2.859,2.859,0,0,0,.48-1.7c.07-.56.14-1.12.23-1.68v-.48c.03-.08.05-.16.08-.24v-.05c.5-1.37.91-2.79,1.36-4.16.62-1.91,1.22-3.83,1.76-5.76.56-1.99.88-4.11,1.61-6.04.16-.42-.51-.59-.67-.18-.69,1.82-.99,3.81-1.51,5.68-.54,1.93-1.13,3.85-1.74,5.76-.47,1.47-.9,3-1.43,4.47a13.933,13.933,0,0,1-.67,1.26c0,.09.01.18.01.29a1.067,1.067,0,0,0-.24.09c-.17.25-.35.49-.53.72a2.391,2.391,0,0,1-.33,1.12.512.512,0,0,1,.01.21c-.07.12-.14.25-.21.37a.73.73,0,0,1-.32.12,4.794,4.794,0,0,1-.51-.32c-.26.24-.55.44-.84.68.53-.04.84.1.92.41l-.3.78c-.82-.03-.88.29-.86.86a6.9,6.9,0,0,1-1.91.19.833.833,0,0,0-.45-.79.165.165,0,0,0-.09.04c.08-.31.17-.65.27-1.07l9.08-23,15.06-28.75s.11-2.18-12.88,22.77-12.88,30.13-12.88,30.13.01.12.03.28q-.33-.12-.66-.27a.252.252,0,0,0-.337.121.249.249,0,0,0-.023.089h-.03a77.328,77.328,0,0,1,5.27-15.62c3.45-7.01,19.43-39.67,19.43-39.67-.34-2.99-11.27-5.06-15.18-6.32-.67-.22-.5-.11.18.2-.09.16-.19.31-.28.46-1.91,3.41-3.65,6.94-5.37,10.48-.79,1.63-1.32,3.41-2.01,5.09-.66,1.6-1.41,3.16-2.08,4.75q-1.17,2.775-2.28,5.6c-1.02,2.59-2.03,5.2-3.02,7.8-2.1,5.52-4.27,11.01-6.27,16.56-1.2,3.34-2.33,6.7-3.49,10.05h-.69a1.361,1.361,0,0,1-1,.35c.71-2.11,1.42-4.22,2.16-6.31,1.69-4.77,3.56-9.48,5.31-14.23,1.24-3.36,2.36-6.77,3.62-10.13,1.04-2.79,2.15-5.56,3.34-8.29,2.55-5.88,5.09-11.77,7.77-17.59.77-1.67,1.62-3.32,2.52-4.92-.2-.03-.4-.05-.6-.08a196.309,196.309,0,0,0-9.06,19.04c-1.45,3.49-2.72,7.05-4.09,10.57-.22.56-.55,1.09-.77,1.65-1.18,3.05-2.38,6.09-3.51,9.16-2.38,6.47-4.77,12.94-7.08,19.44-.21.6-.39,1.21-.59,1.82.11-.02.21-.03.31-.04a2.216,2.216,0,0,1-1,.14,1.831,1.831,0,0,1-1.27.33c.11-.03.21-.05.32-.08,1.2-3.77,2.41-7.54,3.66-11.29,1.31-3.92,2.65-7.84,4.07-11.72q2.175-5.97,4.54-11.86c1.03-2.55,2.27-5.02,3.36-7.54s2.02-5.15,3.21-7.62c1.98-4.1,3.93-8.23,6.1-12.2-.2-.02-.4-.02-.6-.04-.87,1.67-1.75,3.33-2.6,5.01-.8,1.57-1.53,3.17-2.28,4.76-1.89,3.99-3.61,8.06-5.19,12.21-.88,2.33-2.18,4.5-3.08,6.82-2.08,5.39-4.1,10.8-6,16.24-2.01,5.78-3.85,11.63-5.87,17.41h.03c-.41.24-.81.05-1.2.45-.7,0-1.34.21-1.9-.26a2.138,2.138,0,0,1-1.68-.89,2.094,2.094,0,0,0,.24-.1.353.353,0,0,1-.03.11c.15.04.29.09.43.14.04-.13.06-.26.1-.39,2.02-6.54,4.19-13.05,6.28-19.57a7.573,7.573,0,0,0,.18-1.34,6.139,6.139,0,0,0-.6,1.1c-2.05,6.3-4.12,12.6-6.1,18.93-.08.25-.14.52-.2.77-.28-.02-.55-.05-.83-.08a1.4,1.4,0,0,0,.04.49c-.51.23-.67-.36-1.26-.37a6.046,6.046,0,0,0-2.97-.56.648.648,0,0,0-.24-.25c-.17-.03-.34-.06-.52-.09a4.866,4.866,0,0,1-.54,0,.476.476,0,0,0-.17.92c.73.07,1.36-.14,1.93.45.23.29.84.07,1.19.21a3.206,3.206,0,0,0,1.78.27c.67.37,1.15,1.21,2.07,1.15.62.19.12.65-.15.88a3.063,3.063,0,0,0-.03.62c.4-.03.67.13.88-.3.04-.39.2-.53.48-.43.3.43-.07,1.07.14,1.61h.18c.12-.11.23-.23.35-.33s.23-.15.34-.23V86.2c.15-.18.3-.37.47-.56.22,2.78.44,5.58.69,8.64.32-.18.57-.23.56-.33-.26-2.91-.54-5.83-.81-8.74a1.876,1.876,0,0,1,.42-.28c.51-.03.78.01,1.17-.35a4.151,4.151,0,0,0,.59.02c-.37,1.8.4,8.91,1.14,9.72-.45-3.41-.39-6.52-1.08-9.72a2.853,2.853,0,0,0,1.71-.59c1.06-.04,2.12-.05,3.17-.04a.251.251,0,0,0,.23.07c.12-.01.24-.05.35-.07h1.78a4.207,4.207,0,0,1,3.29-.26,1.022,1.022,0,0,0,.53-.23c.14,0,.27.02.41.02.23.01.45.05.68.06.06.04.13.07.19.11a12.85,12.85,0,0,0,1.84.09c.13.01.26.02.39.04a3.448,3.448,0,0,1,.45.07.873.873,0,0,0,.36.01c1.1.16,2.2.35,3.32.58a14.326,14.326,0,0,1,1.41.37l.13.03c.51.16,1.01.35,1.54.57a20.455,20.455,0,0,0,2.66.68c.86.24,1.68.58,1.22,1.69-.12.29-.38.51-.49.82-.4.32-.07.77-.35,1.24.034.048.071.1.11.14a13.523,13.523,0,0,0-.75,4.86.32.32,0,0,0,.13.24q-.705,7.77-1.4,15.54l.13.08c.1-.21.17-.43.27-.65v.05c-.06.89-.14,1.66-.22,2.27a1.874,1.874,0,0,1-.27-.3c.06.3.13.6.19.89-.27,2.05-.65,5.41-1.01,8.85l-.2-.2q.283-9,.579-17.993a1.151,1.151,0,0,0,.471-.577,3.265,3.265,0,0,0,.15-1.49q-.315-6.735-.64-13.46-.315,7.695-.62,15.39l-.07.31a1.16,1.16,0,0,0,.705-.171c-1.222,5.721-.526,11.78-.985,17.581l-.26-.26-1.05,2.5c.58-6.13.7-22.98.7-22.98l.09-4.14-.34-6.64v.59l-.07,2.24-.13,5.6-.63,26.26-.67,1.6c-.01-.56-.03-1.12-.04-1.68-.11-6.73.07-13.46.09-20.19.01-2.57-.1-5.16-.06-7.72.03-1.77.25-3.51.37-5.27.03-.46-.02-.94-.03-1.41-.11-.02-.21-.03-.32-.05-.16,1.93-.42,3.84-.46,5.79-.15,7.35-.24,14.71-.32,22.07-.03,2.98,0,5.96.04,8.93l-.88-.02c-.02-.69-.04-1.38-.05-2.08-.11-6.73.07-13.46.09-20.19.01-2.57-.1-5.16-.06-7.72.03-1.77.25-3.51.37-5.27.03-.46-.02-.94-.03-1.41-.11-.02-.21-.03-.32-.05-.16,1.93-.42,3.84-.46,5.79-.15,7.35-.24,14.71-.32,22.07-.03,2.95,0,5.89.04,8.83l-1.71-.04c-.05-1.9-.11-3.8-.14-5.69-.11-6.73.07-13.46.09-20.19.01-2.57-.1-5.16-.06-7.72.03-1.77.25-3.51.37-5.27.029-.46-.02-.94-.031-1.41-.109-.02-.209-.03-.32-.05-.159,1.93-.419,3.84-.459,5.79-.15,7.35-.241,14.71-.32,22.07-.051,4.15.009,8.3.1,12.45l-1.839-.05L169,91.891c-.99,11.23-.32,23.05-1.09,34.37l-1.71-.04q-.3-6.555-.61-13.1c-.03-.72-.27-1.66-.99-1.68l.66,14.76-5.7-.15c-.66-4.7-1.25-9.42-1.9-14.11-.36-2.54-.83-5.08-1.16-7.62-.22-1.76-.25-3.51-.38-5.27-.05-.45-.16-.94-.24-1.4h-.31c.11,1.93.13,3.86.36,5.8.89,7.29,1.85,14.59,2.82,21.88.03.24.06.47.1.7l-2.77-.07-.56.16a1.406,1.406,0,0,1,.19-.69,2.433,2.433,0,0,0,.38-.13,5.548,5.548,0,0,1-.78-.61c-.22.23-.39.53-.66.86a.9.9,0,0,0,.17.76l-.87.24a.3.3,0,0,0-.06.02,23.4,23.4,0,0,0-.2-3.46l.13-.11a11.5,11.5,0,0,1-.6-1,.509.509,0,0,0-.16-.02,1.012,1.012,0,0,1-.11-.47,15.273,15.273,0,0,1-1.05-2.87c-.06-.37-.13-.75-.19-1.12-.44-2.78-.8-5.58-1.14-8.38v-.04c-.29-2.37-.57-4.74-.88-7.1-.26-1.97-.64-3.94-.87-5.92-.15-1.36-.12-2.73-.19-4.1a10.069,10.069,0,0,0-.17-1.08c-.11,0-.21,0-.32.01.05,1.5-.01,3.01.16,4.51.52,4.74,1.1,9.48,1.67,14.22h-.03c.1.88.21,1.76.34,2.64a.609.609,0,0,0,.01.12c.02.13.04.27.06.4a.308.308,0,0,0,.01.08c.39,3.1.86,6.19,1.38,9.27a.544.544,0,0,1-.08.11,2.934,2.934,0,0,0,.05.52,2.838,2.838,0,0,1,.19.29c.03.16.05.32.08.48a2.21,2.21,0,0,1-.19.57c0,.16.02.31.02.5a4.683,4.683,0,0,1-.28,1.85,3.859,3.859,0,0,0,.19.42.649.649,0,0,1-.23.26q-.6.15-1.23.3c-.3-2.41-.58-4.8-.89-7.2-.27-1.98-.64-3.95-.86-5.93-.16-1.36-.13-2.73-.19-4.09-.03-.36-.13-.72-.17-1.08-.11,0-.22.02-.33.02.05,1.51-.02,3.01.16,4.52q.78,6.975,1.63,13.94a.219.219,0,0,0-.08.02l-.83.18c-.08-.46-.16-.92-.23-1.38-.81-5.15-1.34-10.34-2.02-15.51-.26-1.98-.64-3.94-.87-5.92-.15-1.36-.12-2.73-.19-4.1a10.065,10.065,0,0,0-.17-1.08c-.11,0-.21,0-.32.01.05,1.5-.01,3.01.16,4.51.63,5.66,1.31,11.33,2,16.99.27,2.22.59,4.42.94,6.63a.123.123,0,0,0-.06.01c-.62.14-1.23.26-1.82.37l-.38.08c-.48.08-.96.16-1.4.22l-.24.03h-.01l-.58.02-.03.03a4.586,4.586,0,0,1-1,.04l-.19-.02s-.09-.01-.13-.01c-.2-.96-.54-1.73-.94-1.87.14.6.27,1.18.41,1.78a9.364,9.364,0,0,1-1.51-.47l-.33-.13s-.08-.04-.11-.05c-.28-1.9-.28-3.8-1.35-5.66a26.9,26.9,0,0,0,.79,5.39c-.51-.23-1.02-.46-1.54-.72l-.25-.13c-.08-.04-.17-.09-.25-.14-.72-4.81-1.24-9.64-1.87-14.46-.26-1.97-.64-3.94-.87-5.92-.15-1.36-.12-2.73-.19-4.1a10.061,10.061,0,0,0-.17-1.08c-.11,0-.21,0-.32.01.05,1.5-.01,3.01.16,4.51.63,5.66,1.31,11.33,2,16.99.15,1.21.33,2.42.5,3.63-.44-.23-.89-.46-1.3-.69l-.53-.29c-1.43-9.21-2.91-18.42-2.83-27.69.04-4.25-.29-8.6-.63-13.01a20.268,20.268,0,0,0-.26,2.59c.12,6.36.05,12.71.51,19.1.31,4.41,1,8.84,1.64,13.27l-2.87-12.71a146.66,146.66,0,0,1-.71-18.45c.04-1.1.11-2.2.17-3.29a7.021,7.021,0,0,1,.66-.4,2.372,2.372,0,0,0-.33-.37l.33-.74c.14,0,.28-.01.43,0,0-.31,0-.61-.02-.92h-1.49c-.26-.28-.45-.53-.89,0l-1.25,2.76c-.24.26-.49.51-.74.77l-.18.06v.13c-.56.57-1.1,1.16-1.67,1.72-.05.39-.51.45-.64.9-.09.58.67,1.11.67,1.67a4.69,4.69,0,0,1-.91-.01.911.911,0,0,0-.67-.96c-.18.18-.36.37-.54.55,0,.69.43,1.42,1.24,1.27,0,.7-.8.73-.02,1.52a.718.718,0,0,1-.48.27c.22.3.42.61.61.92l1.16,10.94,2.05,11.62a2.93,2.93,0,0,1-.23.64.133.133,0,0,0,.02.08h.34l.12.65a.278.278,0,0,0-.19.21,1.349,1.349,0,0,1,.09.3c.06.08.09.16.17.2.02,0,.03.01.05.02l.17.95h-.11c.03.3.11.6.13.88.07.15.15.29.21.44l.61,3.48c-.95,1.33-1.5,3.66-2.01,5.81l-.14.55c-.03.12-.06.23-.09.35a10.382,10.382,0,0,1-1.2.64,6.512,6.512,0,0,1-2.85.55,22.892,22.892,0,0,1-2.27-.67,5,5,0,0,1-.48-.32,4.741,4.741,0,0,0-1.03-3.86c.37,1.4.66,2.54,1,3.84a4.717,4.717,0,0,1-.78-.83c-.41.2-.82.43-1.23.67l-.6.026c.768-1.92-.221-3.251-.547-4.736-.584,1.633.2,3,.519,4.737l-1.879.083h-.22c-.23-.89-.46-1.79-.65-2.73a7.571,7.571,0,0,0,.17,2.74l-.73.02c-.36.01-.73.03-1.16.04h-.14c-.14-.54-.27-1.09-.4-1.63-.03-.1-.28-.06-.64-.12.16.6.31,1.19.46,1.77-.6.02-1.21.04-1.81.05h-.35c-.34-1.82-.61-3.69-.93-5.53a4.614,4.614,0,0,0-.34-.65,18.492,18.492,0,0,0,.13,2.41c.23,1.26.47,2.52.7,3.78a14.118,14.118,0,0,1-1.58.01H107c-.24-1.34-.49-2.68-.79-3.99-2.33-10.29-2.66-20.94-3.33-31.52-.09-1.42-.11-2.85-.12-4.28a6.055,6.055,0,0,0,.6-.63v.06a26.757,26.757,0,0,1,2.95-1.66c.2-.08.4-.19.61-.26.29-.1.57-.22.86-.29,1.12-.28,2.27-.39,3.39-.64.53-.12,1.04-.28,1.55-.45h.04c.24-.08.48-.18.71-.27a1.493,1.493,0,0,0,.22.3c.34.02.67.05,1.01.1a2.033,2.033,0,0,0-.24-.79c.44-.18.88-.36,1.31-.56a7.222,7.222,0,0,0,1.04.06c.1,1.57.21,3.13.35,4.7.53,5.68,1.06,11.36,1.65,17.03.16,1.5.53,2.96.8,4.44l.32-.06a9.926,9.926,0,0,0-.06-1.09c-.22-1.35-.54-2.68-.68-4.04-.2-1.98-.24-3.98-.41-5.97-.4-4.83-.92-9.64-1.23-14.47.03.02.05.05.08.07,1.64-1.35,3.22-2.77,4.89-4.08a3.712,3.712,0,0,0,.46-.33c.25-.18.5-.36.76-.54a.279.279,0,0,1,.13-.26c.33-.38.82-.4,1.2-.72.01,0,.02.02.03.03a1.935,1.935,0,0,1,1.39-.25.544.544,0,0,1-.13-.23,1.5,1.5,0,0,1,1.36-.88c.53.71,1.23.38,1.77,1.19.54.51.87-.26.76-.76-.37-.11-.97.07-1.15-.33-.14-.35-.6-.61-.46-.99.58-.55,1.28.6,1.92.74.66.72,1.46.52,2.2,1.09a3.888,3.888,0,0,0,1.32.12c.57.74,1.8.53,2.73.53.63.25,1.65.8,2.28.48a.657.657,0,0,0,.39-.6,12.728,12.728,0,0,0,3.02.32.25.25,0,0,0,0-.5,12.454,12.454,0,0,1-3.16-.35.2.2,0,0,0-.21.06,1.037,1.037,0,0,0-.21-.1.19.19,0,0,0-.16-.18h-.06a.221.221,0,0,0-.25-.12c-.13.03-.25.03-.38.05-.04,0-.08-.01-.12-.01a2.83,2.83,0,0,0-.09-.43c-.32-.09-.64-.19-.95-.29a.808.808,0,0,0-.13.83c-.22,0-.43-.01-.64-.03a.41.41,0,0,1-.263-.517c0-.011.008-.022.013-.033a.667.667,0,0,0,.28-.52c-.23-.09-.44-.18-.66-.28l16.5-58.75c-4.48,4.37-17.71,58.53-17.71,58.53.03.33.07.59.1.82a1.279,1.279,0,0,1-.32-.05c.06-.87-.01-1.07-.9-1.16-.01-.23.52-.08.69-.33a6.181,6.181,0,0,1-.68-.57,2.528,2.528,0,0,1-.7-.04c-.92-.1-.53.94-1.33.89a.942.942,0,0,0-.648-1.164.9.9,0,0,0-.262-.036c.6-.5,1.32-.14,1.73-.74-.13-.68-.66-.23-1-.54-.19-.29-.93-.18-.82-.61.43-.22.9.03,1.41-.11a6.052,6.052,0,0,1-.23-.59,4.427,4.427,0,0,0-.77-.07c-.24-.37-.7-.42-1.12-.58.04-.62-.06-1.25-.03-1.87a8.388,8.388,0,0,1,.18-1.33c.24-.75.57-1.48.78-2.24.1-.37-.45-.63-.63-.27-.009.027-.019.054-.03.08v.02a11.133,11.133,0,0,0-.49,1.21.329.329,0,0,0-.15.16,5.576,5.576,0,0,0-.34,1.37,10.845,10.845,0,0,0-.12,3.32l-.09.39a1.207,1.207,0,0,1-.01.18c-.02.46-.02.93-.02,1.39a11.924,11.924,0,0,1-.33,1.37,1.823,1.823,0,0,1-.42.17c-.12.92-1.18.92-1.74,1.51-.56.56-1.21.22-1.77.76a1.358,1.358,0,0,0-.67-.35q-.276.309-.58.59a.7.7,0,0,1,.23.92h-.59l-.14-.44h-.06c-.03.03-.07.06-.1.09a4.166,4.166,0,0,1-.86,1.23l-.06.06a1.131,1.131,0,0,1,.2.07c.68.23.1-.57.73-.43a.473.473,0,0,1-.15.45,1.206,1.206,0,0,1-.29.17c-.11.06-.22.12-.33.17a3.987,3.987,0,0,0-.87.53c-.91.78-1.27,1.92-2.7,1.72-.74-.1-.9-.21-1.49.22a14.982,14.982,0,0,1-3.32,1.53c-2.08.8-4.31.84-6.4,1.55a20.777,20.777,0,0,0-3.84,1.92,1.754,1.754,0,0,1-.2.07c-.25.1-.5.18-.75.27-.29.1-.58.22-.87.32,0,.02.02.05.02.07a4.855,4.855,0,0,1-1.28.33v-.02a.428.428,0,0,0-.1.03,6,6,0,0,1-1.34-.03.252.252,0,0,0-.28.16c-.32-.02-.65-.04-.97-.05.39-2.38,1.9-9.06,2.17-10.83a229.244,229.244,0,0,1,7.42-31.25q2.085-7.02,4.42-13.93c.49-.67.85-1.09.92-1.02.18-.24.36-.48.53-.72a1.106,1.106,0,0,1-.09-.57c.02-.02.03-.04.05-.05a3.941,3.941,0,0,1,.34.22c.34-.47.68-.94,1.01-1.43.46-.69.88-1.4,1.29-2.12-.56,1.61-1.12,3.23-1.65,4.85-2.41,7.36-5.15,14.68-7.07,22.1-2.23,8.61-3.74,17.3-5.51,25.95a27.265,27.265,0,0,0-.3,3.61c1.58-5.93,3.13-11.78,4.15-17.6,2.54-14.43,7.81-28.24,12.62-42.16.15-.42.31-.84.47-1.26a17.685,17.685,0,0,1,1.41-1.84,12.463,12.463,0,0,1,2.38-2.07c-1.72,4.7-3.38,9.42-4.88,14.21-2.37,7.55-4.73,15.11-7.01,22.69-.6,2.01-.91,4.08-1.35,6.12.15.03.29.06.43.1.17-.48.39-.95.51-1.43.44-1.85.74-3.72,1.29-5.54.8-2.64,1.82-5.23,2.68-7.86,2.23-6.89,4.27-13.84,6.68-20.67.95-2.7,1.95-5.37,2.94-8.06l-.45-.06a14.252,14.252,0,0,1,1.47-.73c-.02-.11-.04-.22-.06-.31.05-.03.1-.06.14-.08a.48.48,0,0,0,.22.28,20.572,20.572,0,0,1,2.4-.76,1.446,1.446,0,0,1,.19-.12c.54-.19.86-.59,1.47-.48.55-.52,1.21-.24,1.93-.31.06.05.09.1.14.14.43-.08.87-.17,1.3-.26a.73.73,0,0,1,.27-.42.514.514,0,0,1,.48-.06c.39.04.8-.09,1.07.04.43-.12.85-.25,1.28-.39,0-.02-.02-.05-.02-.07-.03-.12.38-.2.83-.22a14.41,14.41,0,0,0,2.4-1.23,4.273,4.273,0,0,1,3.91-.5c-1.55,5.2-7.92,26.55-8.97,29.04-1.21,2.85-5.52,22.25-5.61,23.63a13.2,13.2,0,0,0,0,2.16c1.26-8.57,13.63-46.97,15.93-54.06a5.7,5.7,0,0,1,1.48,1.82l-12.07,43.96,13.38-41.79h.03a8.708,8.708,0,0,1,1.97-3.26,3.688,3.688,0,0,0,.47-.02c.34-.03.66-.14,1-.2a2.314,2.314,0,0,1-.46-.83,1.01,1.01,0,0,1-.04-.14,2.624,2.624,0,0,1-.05-.29c0-.07-.02-.13-.02-.2a2.208,2.208,0,0,1,.01-.27,1.446,1.446,0,0,1,.05-.3,1.335,1.335,0,0,1,.09-.29c.03-.06.06-.11.09-.17a1.059,1.059,0,0,1,.15-.23.786.786,0,0,1,.13-.14,1.676,1.676,0,0,1,.25-.21c.05-.03.09-.07.14-.1a1.374,1.374,0,0,1,.51-.22c4.41-.64,13.67-6.81,13.67-6.81.32-.06,1.97-1.14,2.51-1.4-3.21,2.68-7.58,8.79-7.58,8.79a3.034,3.034,0,0,1-.33-.04c-.35.22-.7.43-1.05.64.36.05.71.09,1.07.14a1.136,1.136,0,0,1,.25-.14c.01.06.01.12.02.18a22.09,22.09,0,0,0,3.03.22c.1-.1.21-.18.31-.3.45.29.81.3,1.1.01.24-.18.46-.07.67.08.24-.04.49-.07.73-.12-.01-.21-.02-.41-.02-.62.61.64,1.02.13.9-.58.14.11.29.23.44.34,1.03.05,1.61-.59,2.5-.62.28-.13.55-.26.83-.39a1.589,1.589,0,0,1,.67-.29c.15-.07.3-.13.45-.19-1.51.22-3.03.48-4.56.74,1.02-1.37,2.04-2.74,3.04-4.13.1-.14.07-.39.1-.59-1.12,1.25-2.09,2.53-3.08,3.85-.06.08-.15.15-.17.23-.06.23-.1.46-.15.7-.63.1-1.27.2-1.91.3,1.06-1.96,7.31-8.46,9.29-10.5.45-.09.89-.2,1.36-.27.34-.05.68-.07,1.02-.11-.65.83-1.28,1.66-1.88,2.49a.767.767,0,0,0-.16.23c-.06.24-.1.48-.14.72h.2c.83-1.16,1.67-2.33,2.49-3.5,8.35-.65,15.82,2.79,23.99,4.29a1.775,1.775,0,0,1,.91.44,1.7,1.7,0,0,1,.48.83c.44.04.88.06,1.33.09.1,0,.21.01.31.02.19.01.37.03.56.04.13,0,.26.02.4.03.6.03,1.2.02,1.8.03.5,0,1.01,0,1.51-.02a.772.772,0,0,0-.04.15l1.28-.23q.69-.045,1.38-.12a2.542,2.542,0,0,0,.35.03,2.959,2.959,0,0,0,.52-.08c.13-.02.28-.05.46-.09l.41-.08c.51-.11,1.15-.25,1.89-.42a37.006,37.006,0,0,0,5.64-1.14l.86-.15,17.36-3.1,18.32,5.62,1.34.54,7.38,2.97s.34.19.96.55c.34.2.78.47,1.29.79l2.66,2.4v.01l.35.31a.512.512,0,0,0,.37.33l2.21.79v.34c-.43.03-.57-.43-1.04-.33-.71-.11-1.11.46-.43.92a2.937,2.937,0,0,0-.6-.02.689.689,0,0,0-.3-.82,2.289,2.289,0,0,1-.52,1.5c-.05-.09-.1-.17-.15-.26a9.438,9.438,0,0,1-1.47-.9c-.02.01-.03.03-.05.04,1.41,2.44,2.83,4.86,4.22,7.32,3.24,5.74,7.15,13.53,10.28,19.41.23-.07.46-.15.7-.22-2.03-3.9-4.92-9.63-6.96-13.52-2.01-3.83-4.1-7.55-6.22-11.25a1.039,1.039,0,0,1,.78-.14.548.548,0,0,1-.13.44c.05,0,.09-.01.13-.01h.57a5.387,5.387,0,0,1-.01-.73h.31a.877.877,0,0,0,.11.73c.19,0,.38.01.57.02.34.56.69,1.1,1.01,1.68,3.78,6.79,8.49,15.32,12.13,22.25.29-.04.58-.08.87-.11-2.37-4.47-5.72-10.69-8.12-15.14-1.59-2.94-3.21-5.85-4.83-8.75a.3.3,0,0,0,.03-.1c.5,0,1,.01,1.51.02a.535.535,0,0,1,.17.09.347.347,0,0,1,.1.07.07.07,0,0,0,.02.04.332.332,0,0,1,.05.14h.03c4.02,6.98,8.77,15.85,12.51,23.18.02.04.72.6.74.64.24-.06-.21-.66.03-.72-1.74-3.24-4.34-8.32-6.12-11.5-2.17-3.87-4.36-7.69-6.55-11.53h.04a.26.26,0,0,1,.1-.11,1.281,1.281,0,0,1,.96.03l.15.06.53.36a2.335,2.335,0,0,1,.4.16c1.37,2.24,3.17,5.18,4.37,7.39,2.31,4.28,5.44,10.43,7.7,14.76.37-.08.74-.14,1.11-.21-.83-1.61-2.53-5.04-3.41-6.62-2.6-4.67-5.34-10.13-8.06-14.74.13.07.27.15.42.23l.26.15a8.5,8.5,0,0,0,1.11.51c.61.99.78,1.29,1.77,3.11,2.31,4.28,5.44,10.43,7.7,14.76.37-.08.74-.14,1.11-.21-.83-1.61-2.53-5.04-3.41-6.62-2.53-4.54-3.87-6.78-6.31-10.84a8.946,8.946,0,0,1,1.76.34c.18.09.36.17.54.27l2.77,2.29.76,1.05a2.2,2.2,0,0,1,.24.71.5.5,0,0,1-.37.42c-.44-.35-.91-.72-1.42-1.11,2.5,4.63,5.84,11.1,8.26,15.81.58-.04,1.16-.05,1.74-.06-1.78-3.14-5.54-9.65-6.81-11.93-.42-.76-.86-1.5-1.29-2.25.17.14.34.29.5.43a.989.989,0,0,0,.23-.02.674.674,0,0,1,.3-.11l.44.6a1.053,1.053,0,0,1-.29.12c.08.07.16.13.23.2a.447.447,0,0,1,.19-.17l1.63,1.83c1.86,3.42,4.52,8.51,6.02,11.29.19,0,.39-.01.58,0-.03-.45-.98-2.71-1.07-3.15-.84-1.54-1.82-3.34-2.72-5l5.51,6.18c.28.43.55.87.78,1.31q.42.375.81.78h.27l.42.47c-.01.06-.03.11-.04.17s-.04.15-.05.22l.09.09c.12.06.25.1.37.15.1.04.19.09.29.12,0,0,.57.69,1.39,1.6a34.5,34.5,0,0,0,3.9,3.84,6.244,6.244,0,0,0,1.19.76c.33.36.59.64.72.77.04.06.1.11.15.17l.25.31h.06c.15.15.31.29.47.43a10.716,10.716,0,0,0,2.95,1.83,15.192,15.192,0,0,0,3.05.95c.17.03.34.06.52.09.64,1.54,1.4,3.36,1.55,3.67,1.89,4,3.53,8.07,5.07,12.17-.56.09-1.13.17-1.66.25-2.16-5.38-4.94-11.7-7.14-16.43l-.77-.09c1.71,3.52,4.57,9.29,5.93,12.96.44,1.18.85,2.37,1.26,3.56-.52-.04-1.02-.08-1.45-.11l-.4-.04q-3.24-8.52-7.13-16.74c-.06-.13-.12-.27-.18-.4-.13-.02-.26-.04-.39-.07-.29-.05-.59-.11-.88-.15.18.38.37.75.56,1.13.18.35.35.69.52,1.05,2.32,4.95,4.36,9.98,6.29,15.05l-.71-.08h-.08l-.33-.42c-.22-.04-.48-.02-.73-.06-.5-.3-.65-1.07-1.25-1.25-.01,0-.02.01-.04.02a98.341,98.341,0,0,0-6.89-14.06c-2.28-3.83-4.71-7.59-7.25-11.24-.07-.1-.14-.19-.21-.28-.16.08-.32.17-.49.25a68.982,68.982,0,0,1,4.96,7.38c2.65,4.64,5.36,9.24,7.55,14.09.85,1.88,1.61,3.77,2.32,5.68v.03l-1.46.08a101.676,101.676,0,0,0-4.69-11.01c-.27-.54-.58-1.06-.88-1.58-1.08-1.88-2.13-3.78-3.25-5.64-1.74-2.9-3.52-5.77-5.29-8.65-.1.05-.2.11-.3.16q4.17,6.39,7.73,13.16a100.221,100.221,0,0,1,6.15,13.6l-.66.04-.53.1c-1.36-3.41-2.67-6.85-4.26-10.18-1.61-3.37-3.65-6.59-5.52-9.86-.94-1.65-1.91-3.28-2.89-4.9-.3-.5-.64-.98-.96-1.47l-.6.27c.6.88,1.2,1.75,1.74,2.66,3.67,6.17,7.58,12.21,10.07,18.94.57,1.56,1.25,3.09,1.96,4.63l-1.39.26c-.54-1.33-1.1-2.66-1.66-3.99a12.176,12.176,0,0,0-.85-1.39,2.568,2.568,0,0,0,.03.51c.64,1.44,1.36,2.87,1.91,4.33.08.2.15.41.22.61l-1.72.32c-.22-.68-.44-1.34-.67-2.05-.21.19-.39.29-.37.35.24.72.49,1.43.74,2.15v.02s-.04.09-.09.21l-.08.19c-.04.11-.1.23-.17.38l-.13.29c-.12.26-.25.57-.41.89-.55-1.69-1.36-3.56-1.78-3.8.59,1.5.99,2.96,1.5,4.38-.03.06-.05.11-.08.16a1.908,1.908,0,0,0-.13.26l-.1.2a44.212,44.212,0,0,1-2.38,4.14l-.28.43a27.134,27.134,0,0,1-4.61,5.39l-.48.35v.04a14.267,14.267,0,0,1-2.17,1.45,18.919,18.919,0,0,1-4.62,1.81l-.22.05a6.394,6.394,0,0,1-1.01.15,7.93,7.93,0,0,1-2.11-.04,3.944,3.944,0,0,1-1.1-.4,1.292,1.292,0,0,1-.09-.21,6.243,6.243,0,0,0-1.51-3.17,11.433,11.433,0,0,1-2.481,0c-.45-.05-.9-.11-1.349-.17a2.018,2.018,0,0,0-.2-.05c-.211-.05-.43-.11-.591-.13a10.3,10.3,0,0,0-1.409-.21,6.04,6.04,0,0,0-.67-.07m-92.66-40.8-.01-.02c-7.29,15.54-13.95,36.57-14.9,39.61-.54-.08-1.07-.15-1.61-.24a10.722,10.722,0,0,0-1.52.09c-.21,0-.41-.02-.62-.03a1.5,1.5,0,0,0-1.05-.16,1.111,1.111,0,0,1-.36.1h-.17a1.489,1.489,0,0,1-.29-.04c1.14-3.06,2.29-6.11,3.42-9.17.62-1.68,1.2-3.36,1.8-5.05.65-1.86,1.32-3.71,2.04-5.53,1.99-5.01,4.04-10,6.21-14.92.39-.89.81-1.78,1.2-2.67,2.31-5.16,4.69-10.29,7.05-15.43.88-1.91,1.73-3.84,2.66-5.71,3.81,1.56,8.09,3.27,8.09,3.27S180.7,63,179.55,66.1s-5.13,17.18-5.13,17.18a1.89,1.89,0,0,0-.4.1c-.29-.05-.59-.1-.88-.14-.02-.03-.03-.05-.05-.08,3.42-18.36,22.57-54.42,22.57-54.42-2.83,2.92-5.89,8.33-8.85,14.63m-21.96,36.48c1.27-3.42,2.53-6.85,3.84-10.25.98-2.55,1.99-5.09,2.99-7.64,1.17-2.98,2.32-5.96,3.39-8.97.44-1.24.91-2.47,1.38-3.69,2.96-7.57,6.57-14.82,9.82-22.24.58-1.33,1.25-2.61,1.95-3.88.52.22,1.08.45,1.66.69q-2.88,5.79-5.45,11.75c-.9,2.09-2.01,4.07-2.93,6.16q-.99,2.25-1.96,4.5c-.93,2.15-1.84,4.3-2.71,6.47-1.85,4.61-3.61,9.27-5.4,13.9-.02.06-.05.12-.07.18-.91,2.36-1.85,4.71-2.73,7.08-1.04,2.77-2.06,5.54-3.08,8.32,0-.02-.02-.04-.02-.06-.48,0-.95,0-1.42.04a.68.68,0,0,0-.15.01c.3-.79.6-1.58.89-2.37m-.96.01h-.01c-.3.81-.6,1.63-.9,2.45-.28.03-.56.06-.84.08-.07.14-.15.28-.22.42h-.52c.26-.71.53-1.43.78-2.14.94-2.63,1.77-5.29,2.77-7.9,2.21-5.79,4.5-11.54,6.72-17.32.71-1.85,1.24-3.78,2.02-5.6q4.125-9.675,8.38-19.31c1.25-2.83,2.67-5.54,4.15-8.2.37.16.79.33,1.26.53a118.521,118.521,0,0,0-6.34,13.37c-.98,2.48-1.93,4.97-2.95,7.42-.8,1.92-1.75,3.77-2.53,5.7-.4.98-.78,1.97-1.18,2.96-.61,1.52-1.22,3.05-1.82,4.57-.74,1.87-1.5,3.73-2.23,5.6-.82,2.09-1.59,4.2-2.38,6.3-1.39,3.69-2.79,7.37-4.16,11.07m-26.05,1.92h.01a.547.547,0,0,0,.13-.22h.05c-.01.09.01.16.11.17a.231.231,0,0,0-.19.09c-.04-.01-.07-.03-.11-.04m.762-.008a.088.088,0,0,1,.008-.032c.06.04.08.07.06.1a.232.232,0,0,0-.068-.068M309.22,105.921c-.43-.47-.79-.85-1.14-1.24.08-.06.15-.13.23-.19.87.31,1.08.59.91,1.43m-1.23-6.58c-.89-.17-.95-.99-1.51-1.5.66-.18,1.2.42,1.51,1.5m-3.5-.28h.02c.57.8,1.12,1.62,1.64,2.46.09.14.03.39.04.59-.16-.07-.39-.09-.48-.22-.64-.94-1.25-1.9-1.87-2.86.04-.07.09-.14.13-.21.18.08.42.1.52.24m-.37-4.95c1.49-.02,1.39,1.3,1.85,2.1-1.19-.07-1.25-1.23-1.85-2.1m.45,9.74c.62.69,1.47,1.18,1.73,2.2-.09.08-.18.15-.28.23-.56-.75-1.11-1.49-1.67-2.24Zm-15.34-3.53c.22-.26.45-.51.67-.76a52.408,52.408,0,0,0,4.93,7.89,85.47,85.47,0,0,0,8.69,9.63q-.03.48-.03.96c-1.02-.88-2.04-1.77-3.01-2.7a50.22,50.22,0,0,1-11.25-15.02m3.97,10.39h-.01a6.291,6.291,0,0,1-1.09-.93c-1.19-1.69-2.42-3.36-3.48-5.13-.5-.82-.94-1.69-1.37-2.55.19-.12.38-.25.57-.37a56.657,56.657,0,0,0,2.83,5.14c.73,1.18,1.66,2.22,2.49,3.33.04.05.02.15.06.51m7.63-1.91c-2.3-2.96-4.17-6.29-6.19-9.48a8.218,8.218,0,0,1-.58-1.53,48.87,48.87,0,0,1,4.45,6.24,38.577,38.577,0,0,0,6.48,8.17,6.529,6.529,0,0,0-.43.65,40.719,40.719,0,0,1-3.73-4.05m-5.73-14.13c.17-.12.35-.24.53-.37a58.008,58.008,0,0,0,2.7,5.19c.69,1.19,1.57,2.25,2.36,3.37.04.05.02.15.06.51a6.253,6.253,0,0,1-1.03-.94c-1.13-1.71-2.29-3.39-3.3-5.18-.47-.83-.9-1.7-1.31-2.58Zm3.16-.55c.14-.09.28-.18.41-.28.86,1.64,1.73,3.28,2.57,4.93.03.06-.17.26-.4.59-.92-1.86-1.75-3.55-2.58-5.24m2.21-2.06c1.27,1.47,1.85,3.44,2.94,5.22-.82.02-3.03-4-2.94-5.22m1.77,8.38c.52.67.99,1.39,1.46,2.11.06.09,0,.26,0,.57-.76-.9-1.43-1.67-2.2-2.58.33-.05.67-.19.74-.1m-8.31,23.13h-.01c-.37-.31-.76-.61-1.12-.93a49.153,49.153,0,0,1-11.88-14.85c.24-.26.48-.51.72-.77a49.715,49.715,0,0,0,5.2,7.81,77.263,77.263,0,0,0,8.65,8.99c-.52-.08-1.04-.16-1.56-.25m4.6.63h0c-.5-.43-1.01-.85-1.51-1.28-1.43-1.25-2.79-2.58-4.18-3.88-.38-.36-.78-.72-1.13-1.11a68.333,68.333,0,0,1-8.6-12.82c.24-.18.52-.38.81-.6.63,1.32,1.26,2.65,1.95,3.93a51.893,51.893,0,0,0,8.37,10.94c1.63,1.71,3.34,3.32,5.1,4.89-.27-.02-.54-.04-.81-.07m7.9.27v.02h-.19c-1.32-1.11-2.63-2.25-3.86-3.47-2.4-2.37-4.8-4.75-7.14-7.18a18.082,18.082,0,0,1-1.57-2.19c.09-.08.18-.17.27-.25a2.885,2.885,0,0,1,.49.42,20.183,20.183,0,0,0,1.47,1.95c.82.84,1.78,1.56,2.64,2.37,2.24,2.13,4.35,4.38,6.7,6.4l1.71,1.41Zm1.66-12.09h0c-1.82-1.93-3.63-3.86-5.41-5.83a17.667,17.667,0,0,1-1.49-2.21c.08-.08.17-.16.25-.25a3.19,3.19,0,0,1,.47.43,22.853,22.853,0,0,0,1.39,1.97c.78.85,1.68,1.58,2.49,2.4,1.09,1.11,2.14,2.25,3.21,3.37-.28.05-.59.09-.91.12m-1.12-5.12c1.5.92,2.42,2.47,3.66,3.67-1.7-.71-2.55-2.33-3.66-3.67m4.33.96h0L310.2,107l.19-.19c.65.1.9.63,1.14,1.16-.08.08-.16.17-.23.25m-2.73-7.57c.53-.27,5.43,5.1,5.96,6.49-.63.05-5.49-5.27-5.96-6.49m3.92-.52v.01a38.345,38.345,0,0,1-2.96-4.18,10.2,10.2,0,0,0,.53-.94,62.352,62.352,0,0,0,4.95,7.21,22.926,22.926,0,0,0,3.31,3.47l-.56.21a64.645,64.645,0,0,1-5.27-5.78m8.51,27.76c0,.72-3.61,2.54-4.67,2.43,1.33-1.08,3.07-1.53,4.67-2.43m-3.16,4.06c1.47-.71,2.93-1.42,4.41-2.12.05-.02.22.16.5.37-1.66.75-3.17,1.44-4.68,2.12-.08-.12-.15-.25-.23-.37m.32,2.7c1.59-.66,3.13-1.41,4.64-2.22,1.07-.57,2.02-1.32,3.03-1.98a2.263,2.263,0,0,1,.45-.04,5.636,5.636,0,0,1-.86.88c-1.53.94-3.05,1.92-4.65,2.75-.74.39-1.52.74-2.3,1.08-.1-.16-.2-.31-.31-.47m9.1,7.46v-.01c-.12-.14-.23-.29-.35-.43,1.48-.79,2.9-1.66,4.29-2.58.98-.65,3-3.12,3.91-3.85.04-.04,10.08-9.62,10.39-9.67-.32.41-5.16,6.14-5.62,6.73-1.07,1.38-9.01,7.59-10.49,8.55-.68.45-1.4.86-2.13,1.26m13.72,11.07v-.12c.09-.02.2-.05.3-.07,1.37-.2,2.75-.38,4.12-.52a66.88,66.88,0,0,1,8.24-.72c3.2.07,6.42.63,9.63,1.01a6.078,6.078,0,0,1,1.33.45,40.756,40.756,0,0,1-6.54-.41c-5.35-.91-10.51.11-15.7.8q-.645.09-1.29.24v-.02h.01Zm15.13,1.79v.01c-1.67-.12-3.34-.13-5-.09-1.18.03-2.33.27-3.49.41a2.879,2.879,0,0,1-.41-.17,5.3,5.3,0,0,1,1.12-.4c1.74-.16,3.48-.34,5.24-.38.82-.02,1.65.02,2.47.07.02.18.05.37.07.55m-9.92.51c-1.17,1.05-2.42.45-3.63.84.32-.72,1.74-1,3.63-.84m11.14,18a3.377,3.377,0,0,1-.55-.04,18.824,18.824,0,0,0-2.04-.61c-1-.17-2.02-.18-3.03-.31-2.63-.34-5.25-.84-7.9-1.05-.63-.05-1.26-.08-1.9-.12l.06-.73c1.52.1,3.03.24,4.54.46,2.87.43,5.75.87,8.61,1.36a16.512,16.512,0,0,1,2.23.72c-.01.1-.03.21-.04.31Zm2.582,3.078c-.2.21-.354.491-.452.462-.73-.18-1.44-.42-2.15-.66-.09-.03-.14-.17-.31-.39,1.007.2,1.886.379,2.912.588m-4.162-1.518c-.02.08-.03.16-.05.25a4.809,4.809,0,0,1-2.39-.58c.02-.1.04-.21.07-.31.79.21,1.58.43,2.37.64m-3.84-.73c-1.54.18-3.14-.42-4.65-.57,1.56-.43,3.15.25,4.65.57m-5.58-.74c-1.33.84-2.46.04-3.72.2.43-.65,1.89-.68,3.72-.2M342.4,180a1.512,1.512,0,0,1-.88.2l.04-.509.84.09Zm-.7-2.15v-.18h.01c.74-.04,1.41-.08,2.09-.12-.21.59-1.25.71-2.1.3m3.91,2.3h.01v.21c-.62.04-1.24.08-1.96.13.24-.77.4-.78,1.95-.34m-.29,3.11a1.522,1.522,0,0,1-.89.2l.04-.52.84.09v.22Zm.69,2.19c-.617.04-1.235.079-1.95.129.24-.769.4-.779,1.95-.339Zm-1.14-7.75c.64,0,1.17,0,1.7.01-.58.65-1.32.65-1.7-.01m9.5,4.12c-.22.48-6.53-.58-7.64-1.25.41-.38,6.66.67,7.64,1.25m-6.03-3.44v-.01c0-.1.02-.2.03-.3.47.08.95.17,1.42.25a1.971,1.971,0,0,1-.03.24c-.5.29-.96.05-1.42-.18m2.72.16v-.01c.55.09,1.01.16,1.46.24a2.054,2.054,0,0,0-.05.26c-.77.26-1.07.18-1.41-.49m3.36,4.97c-.16.5-6.55.22-7.74-.31.36-.43,6.69-.15,7.74.31m-7.28,1.98c.36-.43,6.69-.15,7.74.31-.16.5-6.55.22-7.74-.31m8.08-5.97c.15-.04.32-.14.45-.1.95.3,3.43,1.09,4.38,1.41-.03.07-.07.27-.13.46-.83-.25-3.53-1.1-4.35-1.39-.14-.05-.23-.25-.35-.38m2.12,3.1c-.36.48-1.05.36-1.86-.21.71-.37,1.2.16,1.86.21m1.27,3.83a4.808,4.808,0,0,1-2.39-.58c.02-.1.04-.21.07-.31.79.21,1.58.43,2.37.64-.02.08-.03.16-.05.25m-22.96-73.54-.02-.03c6.49,5.22,28.35,26.06,31.15,38.09,3.33,14.31-3.07,29.19-3.07,30.36s1.44,4.38,1.05,4.48-2.12-.95-2.12-.95-1.83-.06-1.18,2.22c.46,1.59-1.12.6-.87-2.92-.79.3-1.36-.43-2-.69.74-.51,1.33-.03,2.04.3a26.924,26.924,0,0,1,1.09-4.46,82.369,82.369,0,0,0-18.66-3.92c-.46-.03-.95.23-.75-.03a.862.862,0,0,1,.56-.29c4.5-.58,17.46,3.13,19.1,3.61.06-.15.11-.28.17-.44.14-.3.92-2.6,1.05-2.91-.18-.08-.69-.16-.86-.23-1.12-.45-2.64-.83-3.8-1.18-.05-.02-.1-.09-.32-.32a5.1,5.1,0,0,1,1.22.09c1.08.36,2.74.8,3.82,1.19.21-.53.3-1.11.49-1.66a37.357,37.357,0,0,1-4.34-1.28c-5.16-2.12-10.57-2.29-15.94-2.8q-.675-.06-1.35-.06v-.02l.05-.66v-.12h.35c1.42.12,2.84.25,4.26.43a69.809,69.809,0,0,1,8.43,1.17c2.79.7,5.97,1.83,8.7,2.82.14-.44.28-.88.41-1.33a50.779,50.779,0,0,0-11.55-3.24,76.106,76.106,0,0,0-10.42-1.14l.05-.39c2.2.15,4.4.3,6.6.49,1.62.14,3.24.38,4.86.57.45.06.9.1,1.35.19a52.845,52.845,0,0,1,9.19,2.95c.16-.59.3-1.18.43-1.77-1.37-.51-3.12-1.03-4.74-1.49a78.865,78.865,0,0,0-11.89-2.02,28.935,28.935,0,0,0-5.66-.09l.08-.62a84.307,84.307,0,0,1,9.28.34,49.515,49.515,0,0,1,13.32,3.13c.12-.6.23-1.2.33-1.79-.81-.27-2.2-.78-3.02-1.01-1.13-.32-2.3-.44-3.45-.65-.05,0-.1-.08-.34-.28a4.517,4.517,0,0,1,1.19-.04c1.71.37,4.17.95,5.86,1.44l-.11-.14c.09-.63.29-1.11.36-1.73a45.459,45.459,0,0,1-6.34-1.29c-5.21-1.52-10.45-1.1-15.69-1.02a11.471,11.471,0,0,0-1.31.09v-.02l-.02-.65v-.12c.11,0,.22-.03.32-.03,1.38-.04,2.77-.06,4.16-.04a68.8,68.8,0,0,1,8.26.23c3.17.44,6.31,1.37,9.45,2.12.15.04,1.05.29,1.19.36.04-.43.08-.87.12-1.29-.37-.14-1.49-.47-1.86-.6a44.49,44.49,0,0,0-11.45-2.03,71.909,71.909,0,0,0-10.18.01v-.39c2.15-.09,4.29-.19,6.43-.24,1.58-.04,3.17.02,4.76.03.44,0,.88,0,1.32.04a57.059,57.059,0,0,1,10.93,2.51c.04-.64.07-1.27.08-1.89a60.217,60.217,0,0,0-6.33-1.45,75.171,75.171,0,0,0-11.7-.69,28.525,28.525,0,0,0-5.47.52v-.62a79.68,79.68,0,0,1,9-.67,47.026,47.026,0,0,1,14.55,1.99c0-.95-.02-1.87-.08-2.75-1.42-.35-3.54-.82-4.97-1.05-1.16-.19-2.34-.17-3.51-.25-.05,0-.11-.07-.37-.24a5.805,5.805,0,0,1,1.18-.18c1.74.17,3.49.31,5.22.61.57.1,1.79.3,2.37.43a29.176,29.176,0,0,0-.49-3.57c-.79-.21-2.24-.47-3.03-.64a44.409,44.409,0,0,0-11.61-.7,72.613,72.613,0,0,0-10.11,1.19l-.04-.39c2.12-.34,4.23-.68,6.35-.98,1.57-.22,3.15-.35,4.73-.51.44-.05.88-.1,1.32-.11a54.226,54.226,0,0,1,11.58,1.31c0-.01.79-.02.78-.03a12.116,12.116,0,0,0-.59-1.9,62.447,62.447,0,0,0-7.22-.75,76.15,76.15,0,0,0-11.7.66,28.9,28.9,0,0,0-5.38,1.15l-.06-.61a81.043,81.043,0,0,1,8.86-1.71,49.484,49.484,0,0,1,15.33.31,30.2,30.2,0,0,0-1.62-2.92c-1.48-.06-8.28.42-8.28.42s-3.03.35-1.78.04c1.16-.29,9.03-1.39,9.88-1.49-.38-.57-.77-1.15-1.2-1.74-1.4.28-8.03,2.08-8.03,2.08s-2.9.94-1.74.39c1.03-.49,8.13-2.91,9.4-3.34-.49-.65-1-1.31-1.54-1.98-2.02.83-5.72,2.69-5.72,2.69l-5.31,2.22s-9.21,4.45-7.56,3.44c1.54-.94,16.9-8.57,18.1-9.18-.51-.61-1.03-1.23-1.57-1.85-1.75,1.1-4.93,3.3-4.93,3.3l-4.92,2.98s-7.31,4.68-5.83,3.44c1.29-1.08,13.21-9.21,15.06-10.52-.5-.56-1.01-1.13-1.53-1.69-2.94,2.83-17.82,14.54-21.31,16.67-.17-.19-.36-.39-.57-.61,1.11-.58,2.22-1.17,3.29-1.8a44.481,44.481,0,0,0,8.99-7.38c2.38-2.42,6.23-6.01,8.23-8.71-.45-.47-.97-1.04-1.48-1.63-.26.42-1.23,1.95-1.29,2.02q-1.3,1.62-2.67,3.18a67.415,67.415,0,0,1-5.55,6.13c-2.39,2.13-5.14,3.9-7.75,5.81a6.554,6.554,0,0,1-1.28.58,39.954,39.954,0,0,1,5.08-4.14c4.54-2.97,7.63-7.22,10.97-11.26.28-.34.53-.69.78-1.05l1.12-1.94c-.54-.65-1.08-1.31-1.53-1.94-1.42,2.11-4.4,6.02-6.02,7.97a42.426,42.426,0,0,1-12.18,10.44c-.24-.18-.47-.36-.7-.54a44.7,44.7,0,0,0,6.47-4.64,74.6,74.6,0,0,0,8.13-8.44,61.454,61.454,0,0,0,3.91-5.19c-.31-.31-.63-.6-.94-.9-1.05,1.34-3.59,4.54-4.67,5.86-1,1.23-2.07,2.4-3.12,3.59-.29.33-.58.67-.89.98a60.263,60.263,0,0,1-10.61,7.68c-.17-.19-.36-.39-.57-.62,1.11-.58,2.22-1.17,3.29-1.8a44.481,44.481,0,0,0,8.99-7.38c2.09-2.13,5.49-6.23,7.29-8.58-.31-.3-.62-.59-.93-.88-.69.84-2.85,3.52-3.57,4.33a67.557,67.557,0,0,1-5.55,6.13c-2.39,2.13-5.14,3.9-7.75,5.81a6.554,6.554,0,0,1-1.28.58,39.952,39.952,0,0,1,5.08-4.14c4.54-2.97,9.11-9.07,12.45-13.1-1.11-1.04-2.01-2.26-3.09-3.22-1.9,2.33-5.52,6.52-7.66,8.63a44.273,44.273,0,0,1-13.52,9.46c-.22-.2-.44-.41-.65-.61a44.93,44.93,0,0,0,7.08-4.11,79.862,79.862,0,0,0,9.19-7.81,61.7,61.7,0,0,0,5.11-5.96c-.3-.27-.6-.54-.9-.8-1.43,1.48-4.46,4.92-5.91,6.37-1.15,1.15-2.37,2.24-3.57,3.36-.33.31-.66.62-1.01.91a61.772,61.772,0,0,1-11.62,6.8c-.15-.21-.32-.43-.5-.68,1.19-.49,2.38-.98,3.53-1.52a46.529,46.529,0,0,0,9.95-6.65,119.246,119.246,0,0,0,8.84-8.85c-.32-.28-.52-.61-.83-.88-.94.95-3.62,3.87-4.6,4.78a69.658,69.658,0,0,1-6.32,5.7c-2.67,1.93-5.65,3.48-8.51,5.17a8.476,8.476,0,0,1-1.36.47,42.881,42.881,0,0,1,5.61-3.73c4.94-2.59,8.55-6.62,12.39-10.41.16-.16,2.17-2.46,2.33-2.63-.41-.36-.72-.71-1.11-1.05-.89.9-3.74,3.93-4.69,4.77-2.18,1.92-4.36,3.84-6.58,5.72a15.6,15.6,0,0,1-1.99,1.25c-.07-.08-.14-.15-.21-.23a3.594,3.594,0,0,1,.39-.4,18.23,18.23,0,0,0,1.77-1.17c.77-.66,1.44-1.43,2.19-2.12,1.96-1.8,4.02-3.49,5.88-5.37.26-.26,2.34-2.71,2.59-2.98-.6-.52-.89-.85-1.44-1.31.07.75-2.93,3.83-4.38,4.86.21-1.52,3.09-4.44,3.79-5.44-.47-.4-.42-.56-.85-.92-.2.26-2.5,2.86-2.69,3.12-.18-.31,1.63-2.95,1.91-3.32-2.39-1.98-4.78-4.4-4.78-4.4l.71-.06c1.59-.12,2.37,1.56,3.61,2.56m7.08,50.5c1.47-.06,2.95-.1,4.43-.04,2.82.11,5.64.23,8.46.4a16.328,16.328,0,0,1,2.24.47v.31a3.363,3.363,0,0,1-.54.02,18.187,18.187,0,0,0-2.03-.38c-.98-.06-1.97.04-2.95.02-2.58-.05-5.16-.25-7.73-.17-.61.02-1.23.06-1.84.09l-.02-.72Zm9.18-17.54-.05.19c-1.42.72-4.47.86-6.76,1.32,1.96-1.24,5.239-1.21,6.81-1.51m-5.59.6a10.565,10.565,0,0,1,5.13-1.22,48.221,48.221,0,0,0-5.13,1.22m-12.96-51.88-.11.04c-.04-.1-.09-.2-.13-.3-.47-1.3-.92-2.62-1.33-3.94v.01a66.542,66.542,0,0,1-2.35-7.93c-.57-3.15-.66-6.42-.92-9.64a2.383,2.383,0,0,1,.02-.28c.11-.08.21-.16.32-.24a37.03,37.03,0,0,1,.73,5.61c.17,5.42,2.2,10.28,3.9,15.23.14.41.31.82.48,1.22Zm.69-6.48h-.01a5.019,5.019,0,0,1-.61-1.02c-.5-1.68-1.03-3.35-1.41-5.06-.18-.8-.31-1.62-.43-2.44.18-.06.35-.12.53-.18a47.781,47.781,0,0,0,.91,4.92c.27,1.15.73,2.23,1.1,3.34.02.05-.02.13-.08.44m.53.92c1.27.94.93,2.28,1.54,3.39-.76-.17-1.32-1.51-1.54-3.39m2.8,3,.01-.01a82.169,82.169,0,0,1-2.45-8.68,42.281,42.281,0,0,1-.73-16.02c.28-.08.57-.15.85-.22a44.1,44.1,0,0,0-.32,7.95,75.138,75.138,0,0,0,1.65,11.6,27.956,27.956,0,0,0,1.6,5.26Zm1.75-.35v.01c-.51-2.08-1.04-4.16-1.51-6.25-.35-1.54-.61-3.11-.91-4.67-.08-.43-.17-.87-.22-1.3a59.285,59.285,0,0,1,.48-13.09c.25-.02.53-.04.83-.07-.22,1.23-.44,2.47-.6,3.7a44.753,44.753,0,0,0,.28,11.63,72.375,72.375,0,0,0,2.04,9.97Zm2.39-.48v.01l-.63.15-.11.02c-.03-.1-.07-.21-.09-.31-.31-1.35-.61-2.7-.86-4.07a68.459,68.459,0,0,1-1.42-8.14c-.2-3.2.09-6.45.19-9.69a6.926,6.926,0,0,1,.33-1.37,39.91,39.91,0,0,1,.14,6.55c-.46,5.41,1,10.46,2.12,15.58.09.43.22.85.35,1.27Zm1.52-.35h-.01c-.35-1.43-.68-2.87-.92-4.34-.45-2.79-.9-5.57-1.29-8.37a15.632,15.632,0,0,1,.01-2.28l.3-.06a3.207,3.207,0,0,1,.13.53,17.486,17.486,0,0,0,.04,2.06c.14.98.43,1.92.61,2.89.46,2.54.78,5.11,1.37,7.61.14.6.3,1.19.46,1.79Zm1.41-.15v-.01a86.2,86.2,0,0,1-1.51-9.17,44.236,44.236,0,0,1,1.02-16.47c.29-.05.59-.09.88-.13a46.324,46.324,0,0,0-1.19,8.1,78.227,78.227,0,0,0,.39,12.06,30.027,30.027,0,0,0,1.03,5.57Zm1.22-10.61h.01a77.233,77.233,0,0,0,.95,10.44l-.4.03c-.29-2.19-.59-4.37-.83-6.57-.18-1.62-.28-3.25-.4-4.88-.04-.45-.08-.9-.08-1.36a62.506,62.506,0,0,1,1.91-13.33c.25.01.54.02.84.03-.36,1.23-.72,2.47-1.01,3.71a46.542,46.542,0,0,0-.99,11.93m3.02,10.25-.65.08h-.12a2.953,2.953,0,0,1-.06-.32c-.17-1.42-.32-2.84-.42-4.26a69.048,69.048,0,0,1-.53-8.49c.15-3.29.79-6.59,1.26-9.88a6.69,6.69,0,0,1,.49-1.36,41.8,41.8,0,0,1-.58,6.72c-1.05,5.48-.14,10.81.43,16.18.05.45.12.89.21,1.33Zm5.81-17.82.21-.06c.08.15.23.31.21.46q-.12,1.29-.3,2.58c-.02.14-.2.28-.3.42-.07-.14-.21-.28-.19-.42.11-.99.25-1.99.38-2.98Zm-2.43-.325c.248.147.55.246.54.355-.03.75-.13,1.5-.22,2.24-.01.09-.14.17-.32.38Zm-.1,3.975.01-.01h.25a4.8,4.8,0,0,1-.1,2.46h-.32c.05-.82.11-1.63.16-2.45m-1.73,14,.01-.02c-.2-1.51-.37-3.02-.45-4.54-.15-2.9-.29-5.81-.38-8.71a16.71,16.71,0,0,1,.26-2.33c.1,0,.21-.01.31-.02a2.6,2.6,0,0,1,.07.55,19.04,19.04,0,0,0-.19,2.12c.03,1.01.23,2.02.3,3.03.19,2.65.22,5.32.54,7.95.08.63.17,1.25.26,1.88Zm.29-20.48v-.01c-.22,1.19-.23,2.4-.34,3.6,0,.06-.07.11-.25.38a5.177,5.177,0,0,1-.15-1.22c.22-1.79.4-3.58.74-5.35.16-.83.37-1.65.59-2.47l.56.06a51.043,51.043,0,0,0-1.15,5.01m1.36,10.12c.48,1.47.21,3.03.36,4.54-.73-1.45-.38-3.01-.36-4.54m.39,5.49c1.09,1.14.52,2.4.94,3.6-.72-.3-1.05-1.71-.94-3.6m.61-14.43c-.01.05-.26.07-.6.16.45-1.77.85-3.38,1.26-4.98.14.02.29.03.43.05-.36,1.59-.71,3.18-1.09,4.77m1.22,7.84h.26c.41.71.39,1.01-.2,1.48-.02-.56-.04-1.02-.06-1.48m.1,2.77a2.159,2.159,0,0,0,.24-.02c.38.44.24.93.1,1.43l-.3.03c-.01-.48-.03-.96-.04-1.44m.05,3.27c.75.44.9,1.16.32,1.67-.12-.63-.22-1.15-.32-1.67m1.11,4.76V89.5l-.18.03c-.19-.72-.36-1.36-.53-2.02.62.09.94,1.08.71,2M355.2,71.1c-.56-.45.26-4.41,1-5.17.01,1.71-.72,3.36-1,5.17m1.73,2.13c.54.26.57.96.16,1.86-.5-.62-.08-1.21-.16-1.86m.11,10.81c-.45-.32-.67-6.66-.3-7.74.51.12.73,6.51.3,7.74m-.191,1.167c.067-.018.134-.028.2-.047.16.6.33,1.2.52,1.89-.8-.08-.84-.231-.721-1.843m.361,4.073h-.01c-.02-.28-.05-.56-.07-.84.07-.02.14-.03.22-.05a1.657,1.657,0,0,1,.38.83Zm.31-17.44c-.76-.73-.13-1.54-.04-2.46,1.01.84.19,1.67.04,2.46m1.67,2.51a12.242,12.242,0,0,1,.18,2.88c-1.14-1.23-.47-4.65-.18-2.88m.34,5.31c.54,5.71.59,9.27.59,9.27-1.32-4.05-1.12-14.98-.59-9.27m2.02-8.21a9.165,9.165,0,0,1,.14,2.15c-.85-.92-.35-3.47-.14-2.15m.9,9.11c.49,5.73.59,9.3.59,9.3-1.05-4.08-1.08-15.03-.59-9.3m-.39-4.3a9.165,9.165,0,0,1,.14,2.15c-.85-.92-.35-3.47-.14-2.15m2.8,3.8a21.953,21.953,0,0,1-.08-3.43c.77.1.27,5.55.08,3.43m-.03-9.32a25.514,25.514,0,0,1,.1,3.89c-.85-.92-.32-5.21-.1-3.89m.55,17.99c-.19-2.11-.38-7.05-.38-7.05.77.1.57,9.16.38,7.05m1.8-6.75c.22,1.32.47,4.41.47,4.41-.72-.04-.69-5.73-.47-4.41m.63,5.43a9.165,9.165,0,0,1,.14,2.15c-.72-.04-.35-3.47-.14-2.15m2.03,4.75-.01-.01c-.32-3.56-.96-10.8-1.01-11.6l.19.03,1.32,11.65c-.31-.1-.18.01-.49-.07m.8-9.9a9.5,9.5,0,0,1,.11,2c-.71-.85-.29-3.22-.11-2m1.82,3.53c.34,3.95.37,6.42.37,6.42-.82-2.81-.7-10.37-.37-6.42m-.21-3.67a9.495,9.495,0,0,1,.11,2c-.71-.85-.29-3.22-.11-2m1.8,1.32a7.353,7.353,0,0,1,.08,1.49c-.53-.63-.22-2.4-.08-1.49m.24,2.98c.31,3.96.37,6.44.37,6.44-.66-2.82-.68-10.4-.37-6.44m1.9-6.53c.13.91.29,3.05.29,3.05-.45-.03-.43-3.97-.29-3.05m.4,3.76a7.9,7.9,0,0,1,.09,1.49c-.45-.02-.22-2.4-.09-1.49m.41,10.34v-.01a36.3,36.3,0,0,1-.56-6.32c-.05-2.11.33-2.23.33-2.23l.78,8.66c-.18-.04-.37-.07-.55-.1m1.92.45h-.01c-.2-2.47-.6-7.48-.63-8.03a1.969,1.969,0,0,1,.14-1.04l1.09,9.24c-.2-.07-.4-.11-.59-.17m2.91-1.27h.03l.13.06a1.188,1.188,0,0,0-.16-.06m-1.641,1.509c-.131-2.693-.9-12.342-1.419-15.089a4.265,4.265,0,0,0-3.02-3.33,12.781,12.781,0,0,1,0,3.27c-.22,1-4.78.96-6.95.68a6.677,6.677,0,0,1-.9-.16c-1.31-.39-.52-3.66.26-3.66a1.847,1.847,0,0,0,1.39-2.21,3.21,3.21,0,0,0-.2-1.57c-.56-1.49-3.6-5.3-13.01-7.95,8.14.2,19.06,7.47,21.62,9.9,3.99,3.79,5.49,10.13,5.49,13.07,0,3.345-3.159,6.935-3.261,7.049" fill="currentColor"/>
<path d="M196.95,184.71h0v0Z" fill="currentColor"/>
</svg>
