<svg xmlns="http://www.w3.org/2000/svg" xmlns:xlink="http://www.w3.org/1999/xlink" viewBox="0 0 507.226 255.918">
<path d="M0,26.659V236.35H218.107l8.529-56.674H80.759V158.707h65.516l42.655-55.256H80.759V83.332H204.325l43.364-56.673Z" transform="translate(0 -8.795)" fill="currentColor"/>
<path d="M263.543,143.749h71.874L318.538,255.917,426.894,105.634H355.019L373.532,0Z" transform="translate(-86.942)" fill="currentColor" opacity="0.4"/>
<path d="M435.766,26.659l-8.393,47.889h85.96c29.994,0,34,6.625,34,16.152s-5.794,16.593-18.39,16.593H505.826l-29.421,41.213s32.633.1,55.584.1,29.232,5.188,29.232,16.9-5.915,17.778-30.483,17.778-79.262-.207-79.262-.207l-37.849,53.27H550.384c48.233,0,93.3-15.183,93.3-61.808S595.509,126.4,595.509,126.4s30.5-3.4,30.5-51.856S568.606,26.659,525.374,26.659Z" transform="translate(-136.455 -8.795)" fill="currentColor"/>
</svg>
