<svg viewBox="0 0 356 115" fill="none" xmlns="http://www.w3.org/2000/svg">
<path d="M35.51 79.92C38.77 76.54 41.02 70.54 42.42 61.54C42.47 61.09 42.52 60.75 42.59 60.44L49.52 16.58H29.57H22.15V31.43H27.22L23.68 53.79C22.28 62.58 21.23 65.67 20.58 66.72C19.78 68.03 18.67 68.63 17.09 68.63C16.22 68.63 15.37 68.37 14.5 67.84C13.54 67.26 12.36 66.2 11 64.69L9.96 63.54L0 77.66L0.61 78.39C2.8 81.02 5.49 83.01 8.6 84.33C11.68 85.63 15.27 86.29 19.27 86.29C22.54 86.29 25.58 85.75 28.3 84.7C31.04 83.63 33.47 82.03 35.51 79.92Z" fill="currentColor"/>
<path d="M99.77 63.71C99.77 59.43 98.57 55.87 96.21 53.12C94.72 51.39 92.81 50.04 90.49 49.07C92.98 48.11 95.09 46.65 96.78 44.72C99.41 41.71 100.75 37.86 100.75 33.28C100.75 29.95 99.89 26.92 98.18 24.27C96.46 21.6 94.11 19.67 91.2 18.52C89.47 17.8 87.31 17.29 84.78 17.01C82.32 16.74 78.2 16.6 72.53 16.6H56.74L46.01 84.05H68.9C75.69 84.05 80.43 83.8 83.38 83.28C86.38 82.75 88.92 81.84 90.94 80.58C93.7 78.87 95.88 76.48 97.44 73.49C98.99 70.51 99.78 67.23 99.78 63.73L99.77 63.71ZM72.05 41.75L73.59 31.49H74.96C77.5 31.49 79.4 31.87 80.45 32.59C81.38 33.22 81.84 34.24 81.84 35.71C81.84 37.93 81.24 39.44 79.99 40.31C79.05 40.97 76.92 41.75 72.07 41.75H72.04H72.05ZM69.77 56.12H71.81C75.86 56.12 77.74 56.82 78.61 57.41C79.74 58.18 80.29 59.5 80.29 61.45C80.29 64.21 79.59 66.13 78.2 67.15C77.17 67.91 74.63 68.82 68.44 68.82H67.8L69.77 56.12Z" fill="currentColor"/>
<path d="M140.7 67.57C138.29 67.57 135.91 66.95 133.63 65.72C131.29 64.46 128.78 62.39 126.16 59.58L125.11 58.45L114.68 73.5L115.29 74.22C118.44 77.98 122.02 80.86 125.95 82.77C129.89 84.69 134.18 85.67 138.7 85.67C147.25 85.67 154.14 83.47 159.17 79.13C164.26 74.75 166.83 68.82 166.83 61.53C166.83 57.36 165.86 53.82 163.95 51.01C162.07 48.24 158.73 45.52 154.05 42.94C153.17 42.42 151.92 41.76 150.35 40.95C144.95 38.18 144.37 36.48 144.37 35.88C144.37 34.77 144.81 33.85 145.72 33.07C147.6 31.45 150.56 31.37 154.11 33.17C155.93 34.1 158 35.55 160.25 37.49L161.38 38.46L170.11 23.44L169.31 22.77C166.26 20.21 162.97 18.24 159.53 16.92C156.08 15.6 152.43 14.93 148.68 14.93C141.55 14.93 135.63 17.1 131.08 21.39C126.51 25.7 124.19 31.3 124.19 38.05C124.19 41.84 125.23 45.11 127.29 47.77C129.31 50.4 132.89 53.02 138.23 55.8C138.52 55.95 138.91 56.15 139.41 56.41C145.7 59.7 146.64 61.94 146.64 62.99C146.64 64.36 146.15 65.42 145.14 66.25C144.07 67.12 142.57 67.57 140.69 67.57H140.7Z" fill="currentColor"/>
<path d="M216.76 34.15L208.89 84.03H248.85L251.51 67.09H231.41L232.74 58.78H251.48L254.03 42.19H235.39L236.65 34.06H256.75L259.49 16.58H220.18H219.53H171.78L168.89 34.15H183.45L175.55 84.03H195.5L203.4 34.15H216.76Z" fill="currentColor"/>
<path d="M294.67 67.09H274.57L275.9 58.78H294.64L297.19 42.19H278.56L279.82 34.06H299.92L302.66 16.58H262.69L252.05 84.03H292.02L294.67 67.09Z" fill="currentColor"/>
<path d="M325.85 16.58H305.86L295.22 84.03H336.64L339.47 66.02H318L325.85 16.58Z" fill="currentColor"/>
<path d="M43.9 99.82C42.95 99.82 42.03 100 41.16 100.35C40.29 100.71 39.53 101.2 38.87 101.84C38.21 102.47 37.69 103.23 37.29 104.11C36.9 104.99 36.7 105.95 36.7 107C36.7 108.05 36.9 109.02 37.3 109.91C37.7 110.8 38.23 111.57 38.89 112.21C39.55 112.86 40.31 113.36 41.17 113.71C42.03 114.07 42.94 114.24 43.88 114.24C44.34 114.24 44.8 114.19 45.28 114.1C45.75 114.01 46.26 113.87 46.8 113.67L47.16 113.54V109.34C46.25 110.31 45.23 110.79 44.1 110.79C43.58 110.79 43.1 110.69 42.65 110.5C42.2 110.31 41.81 110.04 41.48 109.7C41.15 109.36 40.89 108.96 40.7 108.5C40.51 108.04 40.42 107.54 40.42 107C40.42 106.46 40.51 105.97 40.7 105.51C40.89 105.05 41.14 104.66 41.47 104.32C41.8 103.99 42.19 103.73 42.64 103.53C43.09 103.34 43.59 103.24 44.12 103.24C45.33 103.24 46.34 103.74 47.16 104.74V100.5C46.58 100.26 46.03 100.08 45.5 99.97C44.97 99.85 44.44 99.8 43.9 99.8V99.82Z" fill="currentColor"/>
<path d="M62.45 101.91C61.78 101.26 60.98 100.75 60.05 100.38C59.12 100.01 58.1 99.83 57 99.83C55.9 99.83 54.87 100.01 53.95 100.38C53.03 100.75 52.23 101.26 51.57 101.91C50.91 102.56 50.39 103.33 50.01 104.2C49.64 105.08 49.45 106.02 49.45 107.04C49.45 108.06 49.64 109 50.01 109.88C50.38 110.76 50.9 111.52 51.57 112.17C52.23 112.82 53.03 113.33 53.95 113.7C54.87 114.07 55.89 114.25 57 114.25C58.11 114.25 59.11 114.07 60.05 113.7C60.98 113.33 61.78 112.82 62.45 112.17C63.12 111.52 63.64 110.75 64.02 109.88C64.39 109 64.58 108.06 64.58 107.04C64.58 106.02 64.39 105.08 64.02 104.2C63.65 103.32 63.12 102.56 62.45 101.91ZM60.56 108.54C60.35 109 60.07 109.4 59.72 109.74C59.36 110.08 58.95 110.34 58.49 110.53C58.03 110.72 57.53 110.81 57.01 110.81C56.49 110.81 56 110.72 55.53 110.53C55.06 110.34 54.66 110.08 54.31 109.74C53.96 109.4 53.68 109 53.48 108.54C53.27 108.08 53.17 107.58 53.17 107.04C53.17 106.5 53.27 106 53.48 105.54C53.69 105.08 53.96 104.68 54.31 104.34C54.66 104 55.07 103.74 55.53 103.55C55.99 103.36 56.49 103.27 57.01 103.27C57.53 103.27 58.02 103.36 58.49 103.55C58.95 103.74 59.37 104 59.72 104.34C60.07 104.68 60.36 105.08 60.56 105.54C60.77 106 60.87 106.5 60.87 107.04C60.87 107.58 60.77 108.08 60.56 108.54Z" fill="currentColor"/>
<path d="M77.4 108.56L70.84 100.21H67.28V113.87H70.84V105.52L77.4 113.87H80.93V100.21H77.4V108.56Z" fill="currentColor"/>
<path d="M90.37 105.53C90.08 105.43 89.79 105.34 89.49 105.26C89.19 105.18 88.93 105.08 88.69 104.96C88.45 104.84 88.26 104.71 88.12 104.55C87.98 104.39 87.9 104.19 87.9 103.95C87.9 103.6 88.04 103.32 88.33 103.1C88.62 102.88 88.99 102.77 89.45 102.77C89.81 102.77 90.19 102.85 90.57 103C90.95 103.15 91.34 103.38 91.73 103.7L93.14 100.93C92.46 100.57 91.76 100.29 91.02 100.11C90.28 99.92 89.58 99.83 88.9 99.83C88.17 99.83 87.52 99.94 86.93 100.16C86.34 100.38 85.85 100.68 85.44 101.08C85.03 101.48 84.72 101.94 84.5 102.49C84.28 103.04 84.16 103.65 84.16 104.33C84.16 105.01 84.27 105.57 84.48 106.01C84.69 106.45 84.97 106.82 85.31 107.11C85.65 107.4 86.05 107.63 86.49 107.81C86.93 107.99 87.38 108.15 87.84 108.29C88.23 108.42 88.56 108.54 88.83 108.65C89.1 108.76 89.32 108.88 89.49 109C89.66 109.13 89.78 109.27 89.85 109.42C89.92 109.57 89.96 109.75 89.96 109.95C89.96 110.29 89.82 110.59 89.53 110.86C89.25 111.13 88.81 111.26 88.23 111.26C87.72 111.26 87.21 111.14 86.69 110.92C86.17 110.69 85.64 110.34 85.11 109.87L83.59 112.73C85.06 113.76 86.66 114.27 88.39 114.27C89.22 114.27 89.97 114.16 90.63 113.93C91.29 113.71 91.84 113.39 92.3 112.99C92.75 112.59 93.1 112.1 93.33 111.53C93.56 110.96 93.68 110.33 93.68 109.63C93.68 108.59 93.41 107.75 92.87 107.1C92.33 106.45 91.48 105.94 90.32 105.55L90.37 105.53Z" fill="currentColor"/>
<path d="M95.21 103.21H98.13V113.87H101.68V103.21H104.6V100.21H95.21V103.21Z" fill="currentColor"/>
<path d="M115.92 106.96C116.42 106.31 116.67 105.47 116.67 104.43C116.67 103.85 116.58 103.31 116.39 102.8C116.2 102.29 115.92 101.85 115.56 101.46C115.19 101.07 114.72 100.77 114.16 100.54C113.59 100.32 112.93 100.2 112.17 100.2H106.64V113.87H110.19V108.61L113.58 113.87H118L113.7 108.27C114.68 108.04 115.42 107.6 115.92 106.96ZM112.47 105.88C112.1 106.17 111.56 106.31 110.86 106.31H110.19V102.94H110.86C111.56 102.94 112.1 103.09 112.47 103.37C112.84 103.66 113.03 104.08 113.03 104.62C113.03 105.16 112.84 105.58 112.47 105.87V105.88Z" fill="currentColor"/>
<path d="M128.18 107.64C128.18 108.04 128.17 108.45 128.14 108.86C128.11 109.28 128.02 109.65 127.86 109.99C127.7 110.33 127.46 110.6 127.14 110.81C126.82 111.02 126.36 111.13 125.77 111.13C125.18 111.13 124.72 111.02 124.39 110.81C124.06 110.6 123.83 110.32 123.67 109.99C123.52 109.65 123.43 109.27 123.4 108.86C123.37 108.45 123.35 108.04 123.35 107.64V100.21H119.8V108.13C119.8 110.26 120.29 111.81 121.27 112.79C122.25 113.77 123.75 114.26 125.76 114.26C127.77 114.26 129.27 113.77 130.25 112.79C131.22 111.81 131.71 110.26 131.71 108.13V100.21H128.18V107.64Z" fill="currentColor"/>
<path d="M141.61 99.82C140.66 99.82 139.74 100 138.87 100.35C138 100.71 137.24 101.2 136.58 101.84C135.92 102.47 135.4 103.23 135 104.11C134.61 104.99 134.41 105.95 134.41 107C134.41 108.05 134.61 109.02 135.01 109.91C135.41 110.8 135.94 111.57 136.6 112.21C137.26 112.86 138.02 113.36 138.88 113.71C139.74 114.07 140.65 114.24 141.59 114.24C142.05 114.24 142.51 114.19 142.99 114.1C143.46 114.01 143.97 113.87 144.51 113.67L144.87 113.54V109.34C143.96 110.31 142.94 110.79 141.81 110.79C141.29 110.79 140.81 110.69 140.36 110.5C139.91 110.31 139.52 110.04 139.19 109.7C138.86 109.36 138.6 108.96 138.41 108.5C138.22 108.04 138.13 107.54 138.13 107C138.13 106.46 138.22 105.97 138.41 105.51C138.6 105.05 138.85 104.66 139.18 104.32C139.51 103.99 139.9 103.73 140.35 103.53C140.8 103.34 141.3 103.24 141.83 103.24C143.04 103.24 144.05 103.74 144.87 104.74V100.5C144.29 100.26 143.74 100.08 143.21 99.97C142.68 99.85 142.15 99.8 141.61 99.8V99.82Z" fill="currentColor"/>
<path d="M146.29 103.21H149.2V113.87H152.76V103.21H155.67V100.21H146.29V103.21Z" fill="currentColor"/>
<path d="M161.25 100.21H157.7V113.88H161.25V100.21Z" fill="currentColor"/>
<path d="M176.96 101.91C176.29 101.26 175.49 100.75 174.56 100.38C173.63 100.01 172.61 99.83 171.51 99.83C170.41 99.83 169.38 100.01 168.46 100.38C167.54 100.75 166.74 101.26 166.08 101.91C165.42 102.56 164.9 103.33 164.52 104.2C164.15 105.08 163.96 106.02 163.96 107.04C163.96 108.06 164.15 109 164.52 109.88C164.89 110.76 165.41 111.52 166.08 112.17C166.74 112.82 167.54 113.33 168.46 113.7C169.38 114.07 170.4 114.25 171.51 114.25C172.62 114.25 173.62 114.07 174.56 113.7C175.49 113.33 176.29 112.82 176.96 112.17C177.63 111.52 178.15 110.75 178.53 109.88C178.9 109 179.09 108.06 179.09 107.04C179.09 106.02 178.9 105.08 178.53 104.2C178.16 103.32 177.63 102.56 176.96 101.91ZM175.07 108.54C174.86 109 174.58 109.4 174.23 109.74C173.87 110.08 173.46 110.34 173 110.53C172.54 110.72 172.04 110.81 171.52 110.81C171 110.81 170.51 110.72 170.04 110.53C169.57 110.34 169.17 110.08 168.82 109.74C168.47 109.4 168.19 109 167.99 108.54C167.78 108.08 167.68 107.58 167.68 107.04C167.68 106.5 167.78 106 167.99 105.54C168.2 105.08 168.47 104.68 168.82 104.34C169.17 104 169.58 103.74 170.04 103.55C170.5 103.36 171 103.27 171.52 103.27C172.04 103.27 172.53 103.36 173 103.55C173.46 103.74 173.88 104 174.23 104.34C174.59 104.68 174.87 105.08 175.07 105.54C175.28 106 175.38 106.5 175.38 107.04C175.38 107.58 175.28 108.08 175.07 108.54Z" fill="currentColor"/>
<path d="M191.9 108.56L185.34 100.21H181.79V113.87H185.34V105.52L191.9 113.87H195.44V100.21H191.9V108.56Z" fill="currentColor"/>
<path d="M211.95 99.82C211 99.82 210.08 100 209.21 100.35C208.34 100.71 207.58 101.2 206.92 101.84C206.26 102.47 205.74 103.23 205.34 104.11C204.95 104.99 204.75 105.95 204.75 107C204.75 108.05 204.95 109.02 205.35 109.91C205.75 110.8 206.28 111.57 206.94 112.21C207.6 112.86 208.36 113.36 209.22 113.71C210.08 114.07 210.99 114.24 211.93 114.24C212.39 114.24 212.85 114.19 213.33 114.1C213.8 114.01 214.31 113.87 214.85 113.67L215.21 113.54V109.34C214.3 110.31 213.28 110.79 212.15 110.79C211.63 110.79 211.15 110.69 210.7 110.5C210.25 110.31 209.86 110.04 209.53 109.7C209.2 109.36 208.94 108.96 208.75 108.5C208.56 108.04 208.47 107.54 208.47 107C208.47 106.46 208.56 105.97 208.75 105.51C208.94 105.05 209.19 104.66 209.52 104.32C209.85 103.99 210.24 103.73 210.69 103.53C211.14 103.34 211.64 103.24 212.17 103.24C213.38 103.24 214.39 103.74 215.21 104.74V100.5C214.63 100.26 214.08 100.08 213.55 99.97C213.02 99.85 212.49 99.8 211.95 99.8V99.82Z" fill="currentColor"/>
<path d="M230.5 101.91C229.83 101.26 229.03 100.75 228.1 100.38C227.17 100.01 226.15 99.83 225.05 99.83C223.95 99.83 222.92 100.01 222 100.38C221.08 100.75 220.28 101.26 219.62 101.91C218.96 102.56 218.44 103.33 218.06 104.2C217.69 105.08 217.5 106.02 217.5 107.04C217.5 108.06 217.69 109 218.06 109.88C218.43 110.76 218.95 111.52 219.62 112.17C220.28 112.82 221.08 113.33 222 113.7C222.92 114.07 223.94 114.25 225.05 114.25C226.16 114.25 227.16 114.07 228.1 113.7C229.03 113.33 229.83 112.82 230.5 112.17C231.17 111.52 231.69 110.75 232.07 109.88C232.44 109 232.63 108.06 232.63 107.04C232.63 106.02 232.44 105.08 232.07 104.2C231.7 103.32 231.17 102.56 230.5 101.91ZM228.61 108.54C228.4 109 228.12 109.4 227.77 109.74C227.41 110.08 227 110.34 226.54 110.53C226.08 110.72 225.58 110.81 225.06 110.81C224.54 110.81 224.05 110.72 223.58 110.53C223.11 110.34 222.71 110.08 222.36 109.74C222.01 109.4 221.73 109 221.53 108.54C221.32 108.08 221.22 107.58 221.22 107.04C221.22 106.5 221.32 106 221.53 105.54C221.74 105.08 222.01 104.68 222.36 104.34C222.71 104 223.12 103.74 223.58 103.55C224.04 103.36 224.54 103.27 225.06 103.27C225.58 103.27 226.07 103.36 226.54 103.55C227 103.74 227.42 104 227.77 104.34C228.12 104.68 228.41 105.08 228.61 105.54C228.82 106 228.92 106.5 228.92 107.04C228.92 107.58 228.82 108.08 228.61 108.54Z" fill="currentColor"/>
<path d="M246 100.21L243.29 107.49L240.55 100.21H237.03L234.71 113.87H238.25L239.43 106.01L242.49 113.87H243.9L247.13 106.01L248.31 113.87H251.84L249.52 100.21H246Z" fill="currentColor"/>
<path d="M260.2 100.21H254.54V113.88H258.09V109.35H260.19C261.72 109.35 262.9 108.95 263.71 108.15C264.53 107.35 264.93 106.23 264.93 104.78C264.93 103.33 264.52 102.21 263.71 101.41C262.9 100.61 261.72 100.21 260.19 100.21H260.2ZM259.27 106.48H258.09V103.07H259.27C260.58 103.07 261.23 103.64 261.23 104.77C261.23 105.9 260.58 106.47 259.27 106.47V106.48Z" fill="currentColor"/>
<path d="M270.42 100.21L265.22 113.88H269.01L269.83 111.51H274.9L275.72 113.88H279.51L274.31 100.21H270.43H270.42ZM270.76 108.8L272.35 104.25L273.94 108.8H270.75H270.76Z" fill="currentColor"/>
<path d="M291.62 108.56L285.06 100.21H281.51V113.87H285.06V105.52L291.62 113.87H295.16V100.21H291.62V108.56Z" fill="currentColor"/>
<path d="M303.57 103.94L301.03 100.21H296.79L301.77 107.31V113.87H305.33V107.31L310.33 100.21H306.09L303.57 103.94Z" fill="currentColor"/>
<path d="M355.22 7.96C355.22 12.79 352.08 15.92 347.21 15.92C342.34 15.92 339.2 12.78 339.2 7.96C339.2 3.14 342.34 0 347.21 0C352.08 0 355.22 3.14 355.22 7.96ZM353.55 7.96C353.55 4.05 351.07 1.52 347.2 1.52C343.33 1.52 340.85 4.05 340.85 7.96C340.85 11.87 343.33 14.4 347.2 14.4C351.07 14.4 353.55 11.87 353.55 7.96ZM348.91 9.06L351.2 12.34H349.42L347.34 9.2H345.75V12.34H344.18V3.68H347.74C349.68 3.68 351.02 4.73 351.02 6.44C351.02 7.78 350.2 8.71 348.91 9.06ZM345.75 8.01H347.72C348.84 8.01 349.45 7.49 349.45 6.44C349.45 5.39 348.84 4.87 347.72 4.87H345.75V8.01Z" fill="currentColor"/>
</svg>
