<svg viewBox="0 0 320 190" fill="none" xmlns="http://www.w3.org/2000/svg">
<path d="M0 2.375H26.9529L84.8225 74.9444V2.375H123.402V139.333H94.3353L38.5797 69.1389V139.069H0C0 139.333 0 2.375 0 2.375Z" fill="currentColor"/>
<path d="M142.163 2.375H180.743V139.333H142.163V2.375Z" fill="currentColor"/>
<path d="M192.634 70.4583C192.634 29.8194 224.872 0 266.887 0C288.291 0 306.259 7.125 319.207 18.7361L293.576 44.5972C287.498 38 278.514 33.7778 266.887 33.7778C246.276 33.7778 231.742 47.7639 231.742 70.4583C231.742 93.1528 246.276 107.667 266.887 107.667C278.514 107.667 287.498 103.972 294.104 97.1111L320 122.972C306.259 134.583 290.14 141.708 267.151 141.708C225.4 141.444 192.634 111.361 192.634 70.4583Z" fill="currentColor"/>
<path d="M0 150.153H11.0983V189.472H0V150.153Z" fill="currentColor"/>
<path d="M16.3832 150.153H24.0463L40.6937 171V150.153H51.7919V189.208H43.6004L27.7457 169.153V189.208H16.3832V150.153Z" fill="currentColor"/>
<path d="M57.0768 150.153H73.7242C85.8794 150.153 95.128 157.806 95.128 169.681C95.128 181.556 86.1437 189.208 73.9884 189.208H57.341V150.153H57.0768ZM68.175 159.389V179.972H73.7242C79.8018 179.972 83.7655 176.542 83.7655 169.681C83.7655 162.819 79.8018 159.389 73.7242 159.389H68.175Z" fill="currentColor"/>
<path d="M97.5062 173.375V150.153H108.604V174.431C108.604 178.125 111.247 180.236 114.682 180.236C118.117 180.236 120.76 178.125 120.76 174.431V150.153H131.858V173.375C131.858 183.139 125.252 190 114.682 190C104.377 190 97.5062 183.139 97.5062 173.375Z" fill="currentColor"/>
<path d="M133.179 183.931L140.05 177.069C142.956 179.708 145.863 181.292 149.562 181.292C152.733 181.292 154.055 180.236 154.055 178.653C154.055 173.111 135.822 175.222 135.822 161.764C135.822 154.111 141.635 149.625 150.619 149.625C156.433 149.625 161.718 151.736 165.153 154.903L158.282 161.764C155.904 159.389 153.526 158.333 150.619 158.333C148.241 158.333 146.92 159.125 146.92 160.444C146.92 165.722 165.153 163.347 165.153 177.333C165.153 185.25 159.339 190 148.77 190C142.164 190 137.407 188.153 133.179 183.931Z" fill="currentColor"/>
<path d="M176.78 159.389H165.153V149.889H199.769V159.389H187.878V189.208H176.78V159.389Z" fill="currentColor"/>
<path d="M202.675 150.153H220.116C228.307 150.153 233.856 154.903 233.856 162.028C233.856 167.569 230.421 171.528 224.872 173.111L236.235 189.472H223.815L213.774 173.903H213.51V189.472H202.411L202.675 150.153ZM213.774 158.069V166.25H218.266C221.437 166.25 223.022 164.667 223.022 162.292C223.022 159.917 221.437 158.333 218.266 158.333L213.774 158.069Z" fill="currentColor"/>
<path d="M238.084 150.153H249.183V189.472H238.084V150.153Z" fill="currentColor"/>
<path d="M254.467 150.153H284.063V159.389H265.301V164.931H282.213V173.903H265.301V180.236H284.327V189.472H254.467V150.153Z" fill="currentColor"/>
<path d="M284.591 183.931L291.462 177.069C294.368 179.708 297.275 181.292 300.974 181.292C303.881 181.292 305.467 180.236 305.467 178.653C305.467 173.111 287.234 175.222 287.234 161.764C287.234 154.111 293.047 149.625 302.031 149.625C307.845 149.625 313.13 151.736 316.565 154.903L309.695 161.764C307.316 159.389 304.938 158.333 302.031 158.333C299.653 158.333 298.332 159.125 298.332 160.444C298.332 165.722 316.565 163.347 316.565 177.333C316.565 185.25 310.752 190 300.182 190C293.576 190 288.819 188.153 284.591 183.931Z" fill="currentColor"/>
</svg>
