<svg xmlns="http://www.w3.org/2000/svg" viewBox="0 0 581.256 223.984">
  <path d="M0,83.175c.2-.55.416-1.1.608-1.65,1.28-3.7,4.13-5.573,7.752-6.237,3.827-.7,7.705-1.144,11.574-1.585,4.183-.477,8.381-.825,12.573-1.221.353-.033.713.009,1.069,0,3.648-.116,7.3-.21,10.943-.394a1.674,1.674,0,0,0,1.123-.883c.664-1.416,1.2-2.891,1.791-4.341a2.852,2.852,0,0,1,3.084-2,50.722,50.722,0,0,1,7.475,1.429c2.206.638,2.563,1.814,1.746,4-.157.42-.257.861-.384,1.293.207.1.413.289.62.289,4.6,0,9.2-.013,13.8-.027,4.511.109,9.038.025,13.53.378,5.139.4,10.26,1.107,15.363,1.854a3.892,3.892,0,0,1,3.105,5.057c-.159.624-.306,1.253-.5,1.867a4.414,4.414,0,0,1-3.691,3.124A31.577,31.577,0,0,1,88,84.367a27,27,0,0,1-3.21-1.273,9.73,9.73,0,0,0-2.67-.819c-3.287-.19-6.582-.239-9.874-.341l-.958-.194-11,0-1.877.2c-3.055.056-3.163.032-3.906,3.311C53,91.9,51.519,98.566,50.232,105.266c-.82,4.264-1.368,8.588-1.851,12.9-.447,3.992-.754,8.006-.922,12.019a75.95,75.95,0,0,0,.06,10.711,52.686,52.686,0,0,0,2.059,8.9c.3,1.068.33,1.858-.726,2.253-3.985,1.49-8.011,2.574-12.264.971-3.707-1.4-5.133-4.494-5.612-7.992a71.881,71.881,0,0,1-.621-10.866,61.513,61.513,0,0,1,.993-10.023c1.362-7.439,2.748-14.888,4.539-22.231,1.533-6.288,3.644-12.435,5.5-18.645.056-.187.123-.372.295-.892-3.843.264-7.5.5-11.16.772-2.4.18-4.814.323-7.2.652-5.27.728-10.529,1.534-15.782,2.371a31.2,31.2,0,0,0-4.037,1.023C1.425,87.815.965,87.677,0,85.927V83.175" fill="currentColor"/>
  <path d="M377.81,14.993q.006,10.693.014,21.388l-.187.343A14.217,14.217,0,0,1,366.6,50.808c-5.489,1.113-10.7.985-15.328-2.52A14.12,14.12,0,0,1,345.543,36.9c-.147-7.437-.188-14.882.008-22.317A14.41,14.41,0,0,1,355.879.924C356.9.612,357.93.308,358.954,0h4.9c1.007.3,2,.685,3.026.895,6.461,1.317,10.785,7.5,10.756,13.758l.176.34M367.586,36.111a5.919,5.919,0,0,0,.234-1.155q.022-9.119,0-18.236a5.967,5.967,0,0,0-.228-1.154c-.121-.528-.251-1.054-.359-1.585-.737-3.58-2.677-4.824-6.919-4.516-2.262.164-4.469,2.845-4.452,5.476a8.636,8.636,0,0,0-.262,1.465q-.025,9.427,0,18.853a8.207,8.207,0,0,0,.27,1.468c.608,4.848,4.1,6.456,8.181,5.095,2.634-.878,3.19-3.288,3.535-5.711" fill="currentColor"/>
  <path d="M157.193,15.3q0,10.541,0,21.081l-.188.343c0,6.463-3.837,11.717-9.048,13.489-6.016,2.045-11.986,2.027-17.333-1.94a13.921,13.921,0,0,1-5.7-11.229c-.177-7.025-.016-14.056-.073-21.084C124.778,7.94,129.6,1.683,137.713.3a2.321,2.321,0,0,0,.6-.3h4.9c.964.287,1.917.614,2.892.855,5.969,1.478,9.392,5.339,10.583,11.277.185.924.212,1.879.312,2.821l.192.346m-10.216.566q-.192-.951-.385-1.9c-.518-2.555-2.084-4.27-4.094-4.483-3.718-.395-5.484.438-6.742,3.281a19.991,19.991,0,0,0-.75,2.512q-.025,10.146-.037,20.29a5.314,5.314,0,0,0,.263,1.165c.6,4.835,4.087,6.467,8.175,5.091,2.768-.931,3.254-3.48,3.562-6.008a4.9,4.9,0,0,0,.215-1.006q.02-8.967,0-17.934a5.072,5.072,0,0,0-.208-1.006" fill="currentColor"/>
  <path d="M288.636,14.368C289.229,8.71,292.225,2.3,300.461.585A10.9,10.9,0,0,0,302.037,0h4.59c1.247.293,2.506.546,3.74.888a14.411,14.411,0,0,1,7.355,4.869c1.941,2.341,1.811,5.467-.011,7.049a5.5,5.5,0,0,1-7.607-.518c-1.457-1.635-2.894-3-5.377-2.851-3.089.179-5.216,1.81-5.819,4.9a4.557,4.557,0,0,0-.229,1q-.021,9.816,0,19.632a6.086,6.086,0,0,0,.229,1.158c.427,5.892,4.827,6.962,8.372,5.659,2.363-.868,3.144-2.993,3.374-5.341q-.049-3.033-.1-6.066c-.761-.019-1.523-.043-2.285-.058a4.684,4.684,0,0,1-4.7-3.907,4.653,4.653,0,0,1,3.629-5.036l10.168,0c2.342.458,3.54,2.15,3.611,4.7.09,3.253.142,6.516,0,9.765-.3,6.594-2.775,12.062-9.356,14.394-6.059,2.148-12.142,1.984-17.537-2.185a14.739,14.739,0,0,1-5.193-8.994c-.123-.572-.172-1.161-.255-1.742.041-.026.121-.058.118-.077a1.328,1.328,0,0,0-.078-.233q0-11.16-.007-22.32c.036-.032.108-.08.1-.091a1.8,1.8,0,0,0-.138-.22" fill="currentColor"/>
  <path d="M72.069,108.276a84.862,84.862,0,0,1-5.3,20.151c-.489,1.253-.944,2.492-2.653,2.462a4.025,4.025,0,0,1-3.676-2.465,2.535,2.535,0,0,1,.188-1.838,64.965,64.965,0,0,0,6.6-17.6,1.444,1.444,0,0,0-.577-1.235,6.316,6.316,0,0,1-2.974-4.043c-.355-1.1,1.091-3.42,2.5-3.564a8.865,8.865,0,0,1,4.641.621c.914.455,1.26,2.052,1.86,3.139l-.434.522c3.5.55,7.01,1.077,10.509,1.658,2.746.456,5.47,1,7.774,2.74a7.989,7.989,0,0,1,3.123,6.275c.305,4.793-1.646,9.039-3.162,13.4-.775,2.229-1.553,4.46-2.242,6.716-.589,1.927.526,3.545,2.464,3.268a11.465,11.465,0,0,0,4.612-1.688,24.337,24.337,0,0,0,8.075-9.4c.944-1.854.991-4.146,1.6-6.192q2.07-6.922,4.342-13.784a1.887,1.887,0,0,1,1.386-.961,14.847,14.847,0,0,1,7.69,1.225c2.2,1.045,2.331,1.859,1.734,4.229-1.1,4.376-2.088,8.792-2.872,13.235-.548,3.107-.731,6.283-.969,9.436a8.9,8.9,0,0,0,.375,2.806c.382,1.5,1.223,1.957,2.449,1.053a50.85,50.85,0,0,0,5.247-4.612,38.471,38.471,0,0,0,2.472-3.1c2.793-3.358,3.714-7.446,4.785-11.54,1.055-4.033,2.55-7.953,3.895-11.907.117-.345.542-.809.851-.83a15.637,15.637,0,0,1,7.976,1.177c2.819,1.353,2.42,1.916,1.777,5.037q-1.666,8.085-3.226,16.192a25.51,25.51,0,0,0-.578,4.3,16.44,16.44,0,0,0,.443,4.159c.4,1.663,1.295,2.055,2.665,1.025a33.616,33.616,0,0,0,4.947-4.5,27.171,27.171,0,0,0,5.72-9.719,27.183,27.183,0,0,1,10.848-14.676c5.1-3.4,10.643-3.859,16.4-2.247a7.075,7.075,0,0,1,5.427,5.908,5.323,5.323,0,0,1-6.008,6.135,2.649,2.649,0,0,1-2.432-2.172c-.065-.745.81-1.586,1.3-2.358.119-.186.4-.27.751-.493a4.781,4.781,0,0,0-5.51.038,16.745,16.745,0,0,0-4.185,4.113,21.925,21.925,0,0,0-3.741,15.312c.361,3.164,1.671,5.98,5.125,6.718a11.332,11.332,0,0,0,5.368-.172c7.284-2.154,12.182-7.247,15.885-13.623a7.654,7.654,0,0,0,.505-2.6c.9-5.788,1.609-11.613,2.723-17.359a143.459,143.459,0,0,1,12.581-36.441,8.942,8.942,0,0,1,6.089-5.239c3.958-.947,10.14,2.026,11.606,5.795.812,2.087.243,4.18-.245,6.223A35.257,35.257,0,0,1,218.821,94.3a21.4,21.4,0,0,1-3.3,2.046,2.31,2.31,0,0,0-.9,1.075,111.292,111.292,0,0,0-5.283,21.556c-.378,3.122-.66,6.255-.986,9.383l.422.15c.2-.388.428-.765.6-1.165,2.271-5.245,4.941-10.28,8.861-14.478a42.492,42.492,0,0,1,6.4-5.347,7.355,7.355,0,0,1,6.153-.946c3.35.818,5.993,5.21,2.73,8.764a20.052,20.052,0,0,1-11.785,6.441c-.855.143-1.568,1.137-2.483,1.843,3.287,2.168,4.964,5.229,6.9,8.079,1.057,1.553,2.073,3.144,3.244,4.609,1.432,1.793,2.7,2.217,4.658,1.045a18.976,18.976,0,0,0,5.067-4.257,44.524,44.524,0,0,0,4.355-7.125,1.828,1.828,0,0,1,2.111-1.218,12.993,12.993,0,0,1,2.327.493c1.539.538,1.9,1.407,1.269,3.131a50.031,50.031,0,0,1-9.326,15.6A22.105,22.105,0,0,1,232.3,150a8.672,8.672,0,0,1-11.038-3.21c-2.155-3.3-3.015-7.051-3.646-10.878-.311-1.891-.734-3.763-1.107-5.644l-.573-.086a6.17,6.17,0,0,0-1.085,1.48c-1.685,4.937-3.459,9.851-4.885,14.864-.632,2.223-1.581,3.748-3.869,4.172a29.94,29.94,0,0,1-5.05.645,5.08,5.08,0,0,1-5.486-5.083c-.091-1.266.008-2.546-.065-3.814s-.249-2.505-.4-3.915c-.272.236-.564.449-.807.707A34.856,34.856,0,0,1,174.32,150.3c-3.447.572-6.983,1.048-10.45-.126-4.8-1.627-7.695-5.045-9.228-9.975-.356.387-.652.7-.933,1.019-3.194,3.679-6.633,7.068-11.324,8.791a10.412,10.412,0,0,1-7.395.331,8.169,8.169,0,0,1-4.9-5.669c-.49-1.556-.769-3.179-1.085-4.523-2.359,2.223-4.736,4.727-7.389,6.892a15.329,15.329,0,0,1-10.172,3.77,6.661,6.661,0,0,1-5.984-3.268,37.136,37.136,0,0,1-2.291-5.968c-.165-.452-.258-.929-.367-1.335-2.106,1.792-4.1,3.689-6.291,5.313a26.064,26.064,0,0,1-18.448,5.158c-5.682-.528-8.344-4.846-7.473-9.978,1.086-6.39,3.978-12.037,6.625-17.806,1.056-2.3,2.214-4.558,3.294-6.851,1.728-3.668,1.018-5.409-2.863-6.612-1.76-.545-3.616-.78-5.576-1.186" fill="currentColor"/>
  <path d="M503.534,110.886c-1.617.292-2.919.606-4.238.733-.711.069-1.876.05-2.089-.339a3.318,3.318,0,0,1-.31-2.667,5.217,5.217,0,0,1,2.468-2.229c1.686-.7,3.547-.961,5.3-1.513a2.1,2.1,0,0,0,1.189-1.051c1.058-2.629,2.043-5.288,3-7.955a2.786,2.786,0,0,1,2.873-2,13.863,13.863,0,0,1,6.827,1.186c2.113,1.077,2.454,1.97,1.631,4.158-.567,1.511-1.11,3.031-1.68,4.59,2.051.379,3.946.731,5.842,1.08a3.984,3.984,0,0,1,3.524,3.737c.018,1.89-.936,2.911-2.8,3.337a8.967,8.967,0,0,1-6.915-1.189c-.3-.18-.633-.294-1.213-.557-.448,2-.935,3.891-1.285,5.806-.741,4.062-1.548,8.12-2.062,12.213a61.261,61.261,0,0,0-.343,8.635c.035,2.06,1.162,2.668,2.73,1.334a70.006,70.006,0,0,0,6.746-6.772,17.94,17.94,0,0,0,3.436-6.5c1.407-4.239,3.576-8.033,8.143-9.6a20.129,20.129,0,0,1,4.276-.49.521.521,0,0,0,.149-.23c1.534-5.084,5.139-7.689,10.254-8.113,4.121-.342,8.2.067,11.716,2.629,3.4,2.476,4.851,6.112,5.33,10.051a27.521,27.521,0,0,1-1.683,15.069,9.4,9.4,0,0,0,6.921-2.954,29.925,29.925,0,0,0,3.644-4.845c.6-.9,1.148-1.758,2.326-1.648a4.946,4.946,0,0,1,3.9,1.9,1.624,1.624,0,0,1-.064,1.262c-2.514,6.283-7.309,9.985-13.677,11.743-2,.553-4.142.6-6.195,1a2.825,2.825,0,0,0-1.342,1.046c-3.307,3.954-7.25,7.068-12.292,8.35-9.338,2.374-18.581-.76-21.9-10.465-2.019,2.048-3.966,4.232-6.134,6.171-3.194,2.857-6.792,4.962-11.282,5.009a6.893,6.893,0,0,1-6.631-3.829,60.808,60.808,0,0,1-2.581-6.86c-1.306,1.383-2.8,3.133-4.465,4.7-3.669,3.435-7.674,6.195-13.058,5.98a7.009,7.009,0,0,1-5.431-2.848c-1.864-2.345-2.273-5.215-2.655-7.321-1.831,1.609-3.953,3.562-6.17,5.4-3.334,2.767-6.963,4.854-11.515,4.781a7.369,7.369,0,0,1-6.3-3.585,15.11,15.11,0,0,1-2.323-7.71c-.432-7.434.993-14.657,3.105-21.747,1.007-3.381,2.206-6.7,3.268-10.069a1.607,1.607,0,0,1,1.835-1.316,17.414,17.414,0,0,1,7.211,1.244c2.229,1.006,2.5,1.625,1.989,3.967-1.119,5.141-2.416,10.254-3.254,15.441-.522,3.227-1.2,6.519-.453,9.864.436,1.938,1.32,2.553,2.916,1.357a52.811,52.811,0,0,0,5.284-4.805,28.287,28.287,0,0,0,2.171-2.755c2.345-2.986,3.484-6.447,4.418-10.094,1.149-4.49,2.75-8.865,4.207-13.272a1.467,1.467,0,0,1,.973-.872,15.232,15.232,0,0,1,7.8,1.164c2.393,1.125,2.735,1.6,2.018,4.453-1.193,4.76-2.267,9.565-3.066,14.4a69.07,69.07,0,0,0-.622,9.647,3.263,3.263,0,0,0,1.017,2.47c.467.314,1.762-.152,2.415-.638a31.907,31.907,0,0,0,9.666-12.179c.73-1.533.74-3.4,1.14-5.1.631-2.679,1.315-5.346,1.971-8.019.118-.482.21-.971.382-1.769m51.994,22.892c.8-2.25,1.626-4.3,2.253-6.413a18.8,18.8,0,0,0,.375-9.228c-.505-2.459-2.359-3.9-5.494-4.353-1.685-.243-3.73,1.034-4.7,3a9.761,9.761,0,0,0-.793,6.842,13.684,13.684,0,0,0,8.361,10.157m-4.515,5.532a19.15,19.15,0,0,1-12.2-10.972,26.025,26.025,0,0,0-.988,3.37c-1.531,6.093,2.6,10.952,8.745,10.163a7.171,7.171,0,0,0,4.446-2.561" fill="currentColor"/>
  <path d="M433.068,120.5c.276,3.6.478,7.212.85,10.806.315,3.035.717,6.071,1.286,9.067.5,2.644,1.252,5.245,1.969,7.844.3,1.091.237,2.028-.927,2.361-5.493,1.572-10.93,2.145-15.811-1.73a13.016,13.016,0,0,1-4.794-9.747c-.263-4.114-.068-8.257-.064-12.389a3.9,3.9,0,0,1,.183-.744q-5.28-.158-10.568-.312l-1.266-.2-7.624.008q-1.035.12-2.07.238a82.655,82.655,0,0,0-6.475,19.866,13.44,13.44,0,0,0-.306,3.142,2.444,2.444,0,0,1-1.552,2.532,17.164,17.164,0,0,1-12.206,1.248c-5.005-1.273-6.942-4.814-5.34-9.693,1.531-4.661,3.562-9.159,5.38-13.727a3.37,3.37,0,0,0,.349-1.532L363.235,130.7a6.746,6.746,0,0,1-2.608-4.824,7.826,7.826,0,0,1,1.74-4.627c1.959-2.572,4.988-3.552,8.049-4.088,3.252-.569,6.557-.827,9.829-1.292a1.817,1.817,0,0,0,1.068-.843,371.644,371.644,0,0,1,25.246-36.284c2.324-2.965,4.75-5.85,7.148-8.757a5.587,5.587,0,0,1,4.529-2.057c3.705.032,7.418.04,11.111.3a49.631,49.631,0,0,1,6.464,1.2,1.653,1.653,0,0,1,1.5,2.062c-.574,3.667-1.162,7.333-1.69,11.008-.39,2.717-.7,5.445-1.037,8.17-.328,2.685-.662,5.369-.94,8.058-.161,1.554-.246,3.118-.314,4.679-.109,2.522-.176,5.046-.261,7.569V120.5m-10.7-40.234-.412-.181a233.286,233.286,0,0,0-22.936,35.54l17.5,1.73c1.959-12.424,3.9-24.756,5.848-37.089" fill="currentColor"/>
  <path d="M307.389,124.738l7.943,7.654a31.456,31.456,0,0,0,7.887-8.086,2.329,2.329,0,0,1,2.586-1.363c2.884.581,5.772,1.154,8.623,1.872,1.3.327,1.512,1.165.775,2.427a41.388,41.388,0,0,1-8.525,9.917c-.527.47-1.07.923-1.961,1.69,4.351,1.707,8.4,3.319,12.471,4.876.846.324,1.228.717.705,1.561a15.1,15.1,0,0,1-8.051,6.617,5.58,5.58,0,0,1-2.822-.375,37.558,37.558,0,0,1-11.479-5.111,2.1,2.1,0,0,0-2.47-.094,66.784,66.784,0,0,1-21.184,6.824c-5.686.827-11.335.529-16.64-2.118-6.141-3.066-8.566-8.04-8.031-12.619a19.272,19.272,0,0,1,7.4-12.87,31.622,31.622,0,0,1,14.741-6.585c.538-.1,1.063-.259,1.582-.387-1.257-3.009-2.563-6-3.762-9.033-2.028-5.126-1.734-10.311-.2-15.489a12.467,12.467,0,0,1,7.207-8,24.112,24.112,0,0,1,10.636-2.266c2.141.049,4.284-.033,6.425.019a20.055,20.055,0,0,1,11.6,3.838c3.508,2.566,5.857,5.934,3.865,12.113-2.838,8.808-7.586,16.371-14.925,22.156-1.187.936-2.547,1.655-4.393,2.836m-12.592.749c-2.209,1.174-4.706,2.292-6.975,3.762a11.95,11.95,0,0,0-5.341,8.174c-.845,4.734,3.571,8.195,8.868,7.088A50.214,50.214,0,0,0,305.7,138.76l-10.9-13.273m7.656-9.668c.345-.2.622-.334.866-.511,6-4.358,9.395-10.363,10.909-17.486.626-2.946.012-4.129-2.462-5.071a19.287,19.287,0,0,0-11.069-.976,1.857,1.857,0,0,0-1.072,1.162,28.2,28.2,0,0,0-.66,11.762,37.357,37.357,0,0,0,3.488,11.12" fill="currentColor"/>
  <path d="M411.614,46.817a4.528,4.528,0,0,1-5.16,3.653,4.6,4.6,0,0,1-4.06-4.59q-.03-19.635,0-39.27a5.629,5.629,0,0,1,4.183-5.369c3.13-.6,5.552.541,6.866,3.229q2.13,4.355,4.246,8.714c2.328,4.782,4.645,9.569,6.995,14.339a6.077,6.077,0,0,0,.967,1.14c.069-.078.137-.156.206-.233.027-7.323.043-14.646.1-21.968a7.312,7.312,0,0,1,.373-2.528c.788-2.05,2.546-2.917,5.216-2.753a4.232,4.232,0,0,1,3.617,3.377c.036.106.072.213.107.319a8.651,8.651,0,0,1,.161,1.19q.012,19.291,0,38.583c0,.2-.035.4-.054.606l-.217.338a5.225,5.225,0,0,1-4.132,4.795,5.542,5.542,0,0,1-6.553-3.186c-2.833-5.589-5.53-11.246-8.283-16.875-1.112-2.274-2.2-4.559-3.359-6.81-.148-.288-.638-.4-.969-.594a3.811,3.811,0,0,0-.266.975q-.012,11.458.01,22.918" fill="currentColor"/>
  <path d="M191.964,31.194c-.026,4.63.027,9.262-.129,13.888a7.166,7.166,0,0,1-1.162,3.608,5.039,5.039,0,0,1-8.916-3.107c-.028-6.109-.013-12.219-.013-18.328q0-10.767.006-21.535A4.3,4.3,0,0,1,185.4,1.182l12.93.019c6.5.27,11.659,3.506,13.554,9.162,2.151,6.418,1.046,13.657-5.726,17.843-1.041.644-1.21,1.143-.62,2.261,2.2,4.163,4.3,8.379,6.38,12.6a5.084,5.084,0,0,1-7.436,6.5,6.994,6.994,0,0,1-1.875-2.332c-2.489-4.822-4.961-9.655-7.3-14.55-.7-1.471-1.512-2.171-3.122-1.722l-.216.231m.216-20.721-.219.231c-.024,3.206-.038,6.411-.081,9.616-.01.752.212,1.123,1.046,1.1,1.578-.045,3.165.08,4.736-.029,1.976-.138,3.769-.96,4.447-2.883.8-2.268,1.1-4.74-.929-6.618a5.726,5.726,0,0,0-3.056-1.458,48.953,48.953,0,0,0-5.944.042" fill="currentColor"/>
  <path d="M257.675,20.483a4.1,4.1,0,0,1,3.317,4.355,4.107,4.107,0,0,1-3.315,4.218l-.626.2c-2.743.027-5.486.079-8.229.065-.9,0-1.282.27-1.271,1.221.039,3.251,0,6.5.041,9.755.005.354.369.7.566,1.056a3.468,3.468,0,0,0,.851.22c3.816.006,7.632-.008,11.448-.017a4.694,4.694,0,0,1,3.631,5.061,4.48,4.48,0,0,1-4.536,3.873q-8.79.034-17.58,0A4.312,4.312,0,0,1,237.434,46q-.029-20.241,0-40.482a4.2,4.2,0,0,1,3.651-4.342l19.351.031c2.6.74,3.767,2.652,3.35,5.47a4.455,4.455,0,0,1-4.434,3.449c-3.719.041-7.438.05-11.157.073l-.322.2a4.461,4.461,0,0,0-.293,1.086c-.026,2.5.013,4.992-.028,7.487-.015.929.328,1.251,1.254,1.245,2.75-.017,5.5.04,8.249.067l.62.2" fill="currentColor"/>
  <path d="M331.374,185.287c.642-2.129,1.8-3.025,3.969-3.033,3.06-.012,6.13-.163,9.177.033,5.637.363,10.589,2.565,11.969,8.812,1.192,5.394.7,9.646-4.846,13.47-1.087.749-1.071,1.294-.533,2.315,1.7,3.233,3.477,6.444,4.885,9.8a6.564,6.564,0,0,1,.045,4.336c-.625,1.784-2.428,2.036-4.235,1.924a3.658,3.658,0,0,1-3.168-2.268c-2.1-4.1-4.145-8.233-6.214-12.352-.159-.316-.242-.762-.5-.918a4.471,4.471,0,0,0-1.706-.621c-.124-.015-.506.781-.511,1.206-.042,3.566-.014,7.134-.027,10.7-.009,2.58-1.465,4.164-4.123,4.528-1.738.238-3.692-1.455-4.2-3.638q.006-17.149.014-34.3m8.406,4.485v9.259a31.266,31.266,0,0,0,5.226-.058c2.213-.386,3.354-1.539,3.533-4.206.155-2.3-.971-4.359-3.147-4.577-1.83-.183-3.668-.277-5.612-.418" fill="currentColor"/>
  <path d="M310.964,211.942c-.476,7.189-5.6,11.88-12.789,11.932-3.183.023-6.146-.444-8.757-2.337a11.958,11.958,0,0,1-5.084-9.876c-.122-6.213-.061-12.43-.024-18.645.033-5.608,5.682-11.328,11.3-11.376a25.811,25.811,0,0,1,6.505.468c5.3,1.346,8.465,5.63,8.858,11.426q0,9.2-.005,18.408M292.77,194.458c-.065.133-.188.265-.188.4q-.014,7.884,0,15.768c0,.132.124.264.191.4.327,3.757,2.06,5.459,5.443,5.189,3.263-.261,4.26-2.246,4.341-5.352.155-5.881-.039-11.774-.222-17.658a4.1,4.1,0,0,0-3.258-3.921c-3.016-.466-4.7.252-5.7,2.576a14.782,14.782,0,0,0-.608,2.6" fill="currentColor"/>
  <path d="M245.35,197.563l.165.279.215.191,8.565.028c.089-.077.178-.154.266-.232l.036.011a2.561,2.561,0,0,0,.3-.806c0-3.713-.026-7.426-.046-11.139.539-2.4,2.266-3.848,4.337-3.642a4.219,4.219,0,0,1,4,4.474q.015,15.978,0,31.955a4.351,4.351,0,0,1-4.126,4.543c-1.823.188-3.659-1.407-4.2-3.647.017-4.189.039-8.378.04-12.567a4.509,4.509,0,0,0-.221-.982.275.275,0,0,0-.118-.2l-8.892-.09-.306.349a4.485,4.485,0,0,0-.231,1c-.009,4.27,0,8.539.009,12.809-.6,2.154-2.654,3.7-4.559,3.318a4.543,4.543,0,0,1-3.741-4.3c.05-10.735.017-21.469.032-32.2a4.322,4.322,0,0,1,3.56-4.431,4.106,4.106,0,0,1,4.719,3.3c-.01,2.9-.042,5.8-.019,8.7.009,1.1.142,2.2.219,3.294" fill="currentColor"/>
  <path d="M161.542,185.574a4.069,4.069,0,0,1,4.567-3.309,4.22,4.22,0,0,1,3.7,4.175c.036,8.242.2,16.489-.048,24.724-.172,5.772-2.556,10.4-8.854,12.108-4.807,1.3-9.549,1-13.579-2.424a11.8,11.8,0,0,1-4.167-8.6q-.007-13.181-.016-26.359c.519-2.4,2.217-3.908,4.287-3.615,2.467.35,3.967,1.243,4.013,4.494.108,7.736.012,15.474.06,23.211a10.263,10.263,0,0,0,.567,3.369c.816,2.253,2.271,3.147,5.191,2.866,1.98-.191,3.208-1.361,3.7-3.6.14-.631.26-1.267.389-1.9a3.79,3.79,0,0,0,.2-.861q0-12.14-.021-24.278" fill="currentColor"/>
  <path d="M122.437,218.572c-.03,2.81-1.486,4.289-3.968,4.649-1.417.205-3.574-1.493-4.012-3.154-.33-1.255-.283-3.052-1.1-3.62-.939-.656-2.636-.253-4-.266-2.243-.021-4.485,0-6.728-.01-.812-.005-1.295.164-1.385,1.161a14.011,14.011,0,0,1-.782,3.07c-.645,1.95-2.968,3.3-4.625,2.745a4.138,4.138,0,0,1-2.824-5.048q2.866-10.433,5.746-20.861c.946-3.442,1.829-6.9,2.832-10.329a6.184,6.184,0,0,1,6.217-4.648,6.487,6.487,0,0,1,6.094,5.317c1.156,4.886,2.668,9.688,4,14.534,1.218,4.426,2.391,8.864,3.6,13.293.342,1.253.735,2.493.936,3.167m-10.869-10.106c-1.108-4.26-2.154-8.325-3.234-12.382a6.9,6.9,0,0,0-.656-1.293,5.2,5.2,0,0,0-.852,1.285q-1.129,3.882-2.133,7.8c-.378,1.478-.644,2.984-.984,4.588Z" fill="currentColor"/>
  <path d="M470.138,204.283c-.019,4.819-.026,9.639-.062,14.458-.017,2.184-1.458,4.035-3.187,4.183-3.055.26-4.546-.7-5.177-3.333.02-4.941.045-9.883.048-14.824a2.881,2.881,0,0,0-.261-.83c-2.708-5.218-5.381-10.454-8.138-15.645-1.232-2.322-.862-3.3.934-5.2,1.647-1.74,5.093-.546,6,1.426,1.416,3.078,3.014,6.073,4.568,9.087a8.008,8.008,0,0,0,.992,1.244,7.019,7.019,0,0,0,1.011-1.207c1.5-2.926,2.918-5.894,4.441-8.808,1.475-2.821,3.3-3.088,5.591-2.089,2.011.878,2.6,3.321,1.416,5.636q-3.981,7.776-8,15.533c-.059.121-.119.243-.179.364" fill="currentColor"/>
  <path d="M199.932,219.862c-.028-3.51-.074-7.02-.082-10.531-.013-6.409,0-12.819,0-19.435-1.64,0-3.2,0-4.755,0a3.887,3.887,0,0,1-4.154-3.859,3.72,3.72,0,0,1,4.048-3.782c6.012-.011,12.025-.055,18.037.016,3.445.041,4.638,2.215,3.875,5.3-.329,1.333-2.055,2.293-3.924,2.324-1.469.025-2.939,0-4.627,0v1.7q0,13.29,0,26.579c0,.558-.043,1.116-.067,1.673-.045.131-.091.262-.137.393-.6,2.045-1.974,3.012-4.253,2.988a3.774,3.774,0,0,1-3.8-2.953c-.05-.138-.1-.275-.151-.412" fill="currentColor"/>
  <path d="M424.271,190.209c-.035.554-.1,1.109-.1,1.663-.006,9.012-.037,18.025.02,27.036.013,2.116-.874,3.942-4.025,4.313-2.11.249-3.793-1.064-4.354-3.34q.031-14.539.05-29.078a2.141,2.141,0,0,0-.239-.671c-1.495-.079-2.994-.273-4.483-.212a4.226,4.226,0,0,1-4.449-3.99c.023-2.108,1.853-3.676,4.356-3.678q9.1-.008,18.194.005a3.805,3.805,0,0,1,3.717,2.616,3.616,3.616,0,0,1-1.436,4.169,7.715,7.715,0,0,1-2.958.823c-1.357.156-2.739.1-4.109.131l-.182.213" fill="currentColor"/>
  <path d="M385.653,219.271c-.492,2.79-1.862,3.972-5.232,3.655-1.759-.165-3.128-1.978-3.129-4.232q-.014-15.959,0-31.917c0-2.47,1.531-4.387,3.551-4.516,2.723-.174,4.386,1.188,4.818,3.945-.027,4.316-.078,8.633-.075,12.949,0,6.705.043,13.411.068,20.116" fill="currentColor"/>
  <path d="M331.373,185.287q-.007,17.149-.014,34.3a10.753,10.753,0,0,1-.242-1.608q-.021-15.542,0-31.083a10.081,10.081,0,0,1,.255-1.609" fill="currentColor"/>
  <path d="M385.652,219.271c-.025-6.705-.065-13.411-.068-20.116,0-4.316.048-8.633.075-12.949a7.932,7.932,0,0,1,.215,1.31q.018,15.223,0,30.449a7.822,7.822,0,0,1-.222,1.306" fill="currentColor"/>
  <path d="M415.621,190.132a2.205,2.205,0,0,1,.24.671q-.012,14.54-.051,29.078a3.3,3.3,0,0,1-.232-.845q.008-14.452.043-28.9" fill="currentColor"/>
  <path d="M143.15,185.887q.008,13.179.015,26.359a8.928,8.928,0,0,1-.245-1.468q-.024-11.869,0-23.74a5.875,5.875,0,0,1,.232-1.151" fill="currentColor"/>
  <path d="M161.542,185.574q.015,12.14.021,24.278a3.79,3.79,0,0,1-.2.861q-.045-7.254-.089-14.508c-.013-3.006-.015-6.012.01-9.017a10.494,10.494,0,0,1,.262-1.614" fill="currentColor"/>
  <path d="M411.614,46.817Q411.6,35.359,411.6,23.9a3.811,3.811,0,0,1,.266-.975q.014,11.291.014,22.582a6.5,6.5,0,0,1-.27,1.311" fill="currentColor"/>
  <path d="M298.908,36.124a6.009,6.009,0,0,1-.23-1.158q-.021-9.816,0-19.632a4.557,4.557,0,0,1,.228-1q0,10.894,0,21.789" fill="currentColor"/>
  <path d="M260.436,1.209l-19.351-.031a8.609,8.609,0,0,1,1.457-.25q8.14-.027,16.28,0a9.457,9.457,0,0,1,1.614.28" fill="currentColor"/>
  <path d="M461.5,203.937a2.931,2.931,0,0,1,.262.831c0,4.941-.029,9.882-.049,14.823a4.466,4.466,0,0,1-.232-1c-.006-4.885.009-9.769.019-14.654" fill="currentColor"/>
  <path d="M73.774,71.838c-4.6.013-9.2.03-13.8.026-.207,0-.413-.188-.62-.289,4.327,0,8.654,0,12.982.017a8.687,8.687,0,0,1,1.438.246" fill="currentColor"/>
  <path d="M245.139,219.89c-.006-4.27-.018-8.539-.008-12.809a4.483,4.483,0,0,1,.23-1c.02,4.268.047,8.535.049,12.8a3.974,3.974,0,0,1-.271,1" fill="currentColor"/>
  <path d="M254.677,206.029a4.512,4.512,0,0,1,.222.982c0,4.189-.024,8.378-.041,12.567a2.256,2.256,0,0,1-.239-.689c.008-4.287.035-8.573.058-12.86" fill="currentColor"/>
  <path d="M198.325,1.2,185.4,1.183a8.73,8.73,0,0,1,1.459-.255Q191.878.9,196.9.93a7.745,7.745,0,0,1,1.422.271" fill="currentColor"/>
  <path d="M260.457,41.557c-3.816.009-7.632.023-11.449.018a3.552,3.552,0,0,1-.85-.22c3.816-.021,7.63-.048,11.445-.052a3.116,3.116,0,0,1,.854.254" fill="currentColor"/>
  <path d="M254.848,185.9c.02,3.713.046,7.426.046,11.139a2.561,2.561,0,0,1-.3.806c0-3.447-.006-6.893.017-10.34a11.375,11.375,0,0,1,.234-1.6" fill="currentColor"/>
  <path d="M245.35,197.563c-.077-1.1-.21-2.2-.219-3.294-.023-2.9.009-5.8.019-8.7a8.125,8.125,0,0,1,.262,1.461c0,3.509-.037,7.019-.062,10.529" fill="currentColor"/>
  <path d="M317.373,21.373l-10.168,0a24.113,24.113,0,0,1,2.811-.267c2.453.041,4.9.171,7.357.265" fill="currentColor"/>
  <path d="M433.068,120.5v-9.526a13.378,13.378,0,0,1,.24,1.722q.048,3.194.008,6.387a8.642,8.642,0,0,1-.248,1.417" fill="currentColor"/>
  <path d="M245.667,205.737l8.892.09-8.892-.09" fill="currentColor"/>
  <path d="M310.556,30.376q.049,3.033.1,6.066-.049-3.033-.1-6.066" fill="currentColor"/>
  <path d="M394.232,125.706l2.069-.238-2.069.238" fill="currentColor"/>
  <path d="M58.418,81.934l1.877-.2-1.877.2" fill="currentColor"/>
  <path d="M403.926,125.458l1.266.2-1.266-.2" fill="currentColor"/>
  <path d="M71.291,81.74l.959.194-.959-.194" fill="currentColor"/>
  <path d="M257.051,29.257l.626-.2-.626.2" fill="currentColor"/>
  <path d="M257.675,20.483l-.62-.2.62.2" fill="currentColor"/>
  <path d="M435.272,4.877c-.036-.106-.072-.212-.107-.318.035.106.071.212.107.318" fill="currentColor"/>
  <path d="M247.873,10.4l.322-.2-.322.2" fill="currentColor"/>
  <path d="M288.636,14.368a1.8,1.8,0,0,1,.138.22c.006.011-.066.059-.1.091l-.036-.311" fill="currentColor"/>
  <path d="M424.271,190.209l.182-.213-.182.213" fill="currentColor"/>
  <path d="M377.81,14.993l-.175-.34.175.34" fill="currentColor"/>
  <path d="M157.194,15.3,157,14.952l.193.347" fill="currentColor"/>
  <path d="M425.862,28.43l-.2.233.2-.233" fill="currentColor"/>
  <path d="M245.73,198.034l-.215-.191.215.191" fill="currentColor"/>
  <path d="M254.561,197.83l-.266.232.266-.232" fill="currentColor"/>
  <path d="M435.166,45.594l.217-.338-.217.338" fill="currentColor"/>
  <path d="M470.138,204.283c.06-.121.12-.243.179-.364-.06.121-.119.243-.179.364" fill="currentColor"/>
  <path d="M288.678,37a1.254,1.254,0,0,1,.078.233c0,.019-.076.051-.118.077Z" fill="currentColor"/>
  <path d="M377.637,36.724l.188-.343-.188.343" fill="currentColor"/>
  <path d="M157,36.723l.188-.342-.188.342" fill="currentColor"/>
  <path d="M191.964,31.193c.071-.077.144-.154.216-.231-.072.077-.145.154-.216.231" fill="currentColor"/>
  <path d="M199.932,219.862c.05.137.1.274.151.412-.05-.138-.1-.275-.151-.412" fill="currentColor"/>
  <path d="M208.139,220.239l.138-.393-.138.393" fill="currentColor"/>
  <path d="M355.862,14.941l.009,21.786a8.118,8.118,0,0,1-.27-1.468q-.029-9.426,0-18.853a8.441,8.441,0,0,1,.262-1.465" fill="currentColor"/>
  <path d="M367.586,36.111q0-10.272.005-20.545a5.967,5.967,0,0,1,.228,1.154q.024,9.119,0,18.236a5.919,5.919,0,0,1-.234,1.155" fill="currentColor"/>
  <path d="M135.006,15.274a2.169,2.169,0,0,1,.243.677q.006,10.389-.017,20.778a5.381,5.381,0,0,1-.263-1.166q0-10.145.037-20.289" fill="currentColor"/>
  <path d="M146.969,35.811q0-9.974.008-19.946a5.011,5.011,0,0,1,.208,1.007q.02,8.966,0,17.933a4.875,4.875,0,0,1-.216,1.006" fill="currentColor"/>
  <path d="M192.18,10.473l-.219.231.219-.231" fill="currentColor"/>
  <path d="M292.77,194.458q0,8.282.005,16.562c-.067-.132-.191-.264-.191-.4q-.015-7.884,0-15.768c0-.133.123-.265.188-.4" fill="currentColor"/>
</svg>
